%FSLAX25Y25*%
%MOIN*%
G70*
G01*
G75*
G04 Layer_Physical_Order=1*
G04 Layer_Color=255*
%ADD10C,0.01969*%
%ADD11C,0.01000*%
%ADD12C,0.05906*%
%ADD13R,0.05906X0.05906*%
%ADD14C,0.11811*%
%ADD15R,0.05906X0.05906*%
%ADD16C,0.23622*%
%ADD17C,0.06496*%
%ADD18C,0.05512*%
%ADD19C,0.06299*%
%ADD20R,0.06299X0.06299*%
%ADD21C,0.02362*%
G36*
X246611Y1421D02*
X1421D01*
Y49882D01*
X1875Y50092D01*
X2447Y49604D01*
X4166Y48550D01*
X6029Y47778D01*
X7990Y47308D01*
X10000Y47149D01*
X12010Y47308D01*
X13971Y47778D01*
X15834Y48550D01*
X17553Y49604D01*
X19087Y50913D01*
X20396Y52447D01*
X21450Y54166D01*
X22222Y56029D01*
X22692Y57990D01*
X22851Y60000D01*
X22692Y62010D01*
X22222Y63971D01*
X21450Y65834D01*
X20396Y67553D01*
X19087Y69087D01*
X17553Y70396D01*
X15834Y71450D01*
X13971Y72222D01*
X12010Y72692D01*
X10000Y72851D01*
X7990Y72692D01*
X6029Y72222D01*
X4166Y71450D01*
X2447Y70396D01*
X1875Y69908D01*
X1421Y70118D01*
Y392280D01*
X246611D01*
Y1421D01*
D02*
G37*
%LPC*%
G36*
X67108Y134106D02*
X63886D01*
Y130884D01*
X64366Y130947D01*
X65280Y131326D01*
X66065Y131928D01*
X66667Y132712D01*
X67045Y133626D01*
X67108Y134106D01*
D02*
G37*
G36*
X73909D02*
X70687D01*
X70750Y133626D01*
X71129Y132712D01*
X71731Y131928D01*
X72515Y131326D01*
X73429Y130947D01*
X73909Y130884D01*
Y134106D01*
D02*
G37*
G36*
X62886D02*
X59663D01*
X59727Y133626D01*
X60105Y132712D01*
X60707Y131928D01*
X61492Y131326D01*
X62405Y130947D01*
X62886Y130884D01*
Y134106D01*
D02*
G37*
G36*
X200000Y133987D02*
X198968Y133851D01*
X198006Y133453D01*
X197181Y132819D01*
X196547Y131993D01*
X196149Y131032D01*
X196013Y130000D01*
X196149Y128968D01*
X196547Y128006D01*
X197181Y127181D01*
X198006Y126547D01*
X198968Y126149D01*
X200000Y126013D01*
X201032Y126149D01*
X201993Y126547D01*
X202819Y127181D01*
X203453Y128006D01*
X203851Y128968D01*
X203987Y130000D01*
X203851Y131032D01*
X203453Y131993D01*
X202819Y132819D01*
X201993Y133453D01*
X201032Y133851D01*
X200000Y133987D01*
D02*
G37*
G36*
X78132Y134106D02*
X74909D01*
Y130884D01*
X75390Y130947D01*
X76303Y131326D01*
X77088Y131928D01*
X77690Y132712D01*
X78069Y133626D01*
X78132Y134106D01*
D02*
G37*
G36*
X73909Y138329D02*
X73429Y138266D01*
X72515Y137887D01*
X71731Y137285D01*
X71129Y136501D01*
X70750Y135587D01*
X70687Y135106D01*
X73909D01*
Y138329D01*
D02*
G37*
G36*
X74909D02*
Y135106D01*
X78132D01*
X78069Y135587D01*
X77690Y136501D01*
X77088Y137285D01*
X76303Y137887D01*
X75390Y138266D01*
X74909Y138329D01*
D02*
G37*
G36*
X62886D02*
X62405Y138266D01*
X61492Y137887D01*
X60707Y137285D01*
X60105Y136501D01*
X59727Y135587D01*
X59663Y135106D01*
X62886D01*
Y138329D01*
D02*
G37*
G36*
X63886D02*
Y135106D01*
X67108D01*
X67045Y135587D01*
X66667Y136501D01*
X66065Y137285D01*
X65280Y137887D01*
X64366Y138266D01*
X63886Y138329D01*
D02*
G37*
G36*
X72149Y104244D02*
X68697D01*
Y100791D01*
X72149D01*
Y104244D01*
D02*
G37*
G36*
X78197Y125686D02*
X77088Y125540D01*
X76054Y125112D01*
X75167Y124431D01*
X74486Y123544D01*
X74058Y122511D01*
X73912Y121402D01*
X74058Y120293D01*
X74486Y119259D01*
X75167Y118372D01*
X76054Y117691D01*
X77088Y117263D01*
X78197Y117117D01*
X79306Y117263D01*
X80339Y117691D01*
X81226Y118372D01*
X81907Y119259D01*
X82336Y120293D01*
X82481Y121402D01*
X82336Y122511D01*
X81907Y123544D01*
X81226Y124431D01*
X80339Y125112D01*
X79306Y125540D01*
X78197Y125686D01*
D02*
G37*
G36*
X67697Y104244D02*
X64244D01*
Y100791D01*
X67697D01*
Y104244D01*
D02*
G37*
G36*
X72149Y99791D02*
X68697D01*
Y96339D01*
X72149D01*
Y99791D01*
D02*
G37*
G36*
X10000Y107987D02*
X8968Y107851D01*
X8006Y107453D01*
X7181Y106819D01*
X6547Y105993D01*
X6149Y105032D01*
X6013Y104000D01*
X6149Y102968D01*
X6547Y102007D01*
X7181Y101181D01*
X8006Y100547D01*
X8968Y100149D01*
X10000Y100013D01*
X11032Y100149D01*
X11993Y100547D01*
X12819Y101181D01*
X13453Y102007D01*
X13851Y102968D01*
X13987Y104000D01*
X13851Y105032D01*
X13453Y105993D01*
X12819Y106819D01*
X11993Y107453D01*
X11032Y107851D01*
X10000Y107987D01*
D02*
G37*
G36*
X57697Y125620D02*
X57088Y125540D01*
X56054Y125112D01*
X55167Y124431D01*
X54486Y123544D01*
X54058Y122511D01*
X53978Y121902D01*
X57697D01*
Y125620D01*
D02*
G37*
G36*
X58697D02*
Y121902D01*
X62416D01*
X62335Y122511D01*
X61907Y123544D01*
X61226Y124431D01*
X60339Y125112D01*
X59306Y125540D01*
X58697Y125620D01*
D02*
G37*
G36*
X226000Y139779D02*
X218094D01*
Y131874D01*
X220518D01*
Y126700D01*
X220153Y126549D01*
X219368Y125946D01*
X218766Y125162D01*
X218388Y124248D01*
X218259Y123268D01*
X218388Y122287D01*
X218766Y121374D01*
X219368Y120589D01*
X220153Y119987D01*
X221067Y119608D01*
X222047Y119480D01*
X223028Y119608D01*
X223941Y119987D01*
X224726Y120589D01*
X225328Y121374D01*
X225706Y122287D01*
X225835Y123268D01*
X225706Y124248D01*
X225328Y125162D01*
X224726Y125946D01*
X223941Y126549D01*
X223577Y126700D01*
Y131874D01*
X226000D01*
Y139779D01*
D02*
G37*
G36*
X57697Y120902D02*
X53978D01*
X54058Y120293D01*
X54486Y119259D01*
X55167Y118372D01*
X56054Y117691D01*
X57088Y117263D01*
X57697Y117183D01*
Y120902D01*
D02*
G37*
G36*
X62416D02*
X58697D01*
Y117183D01*
X59306Y117263D01*
X60339Y117691D01*
X61226Y118372D01*
X61907Y119259D01*
X62335Y120293D01*
X62416Y120902D01*
D02*
G37*
G36*
X200000Y143987D02*
X198968Y143851D01*
X198006Y143453D01*
X197181Y142819D01*
X196547Y141993D01*
X196149Y141032D01*
X196013Y140000D01*
X196149Y138968D01*
X196547Y138006D01*
X197181Y137181D01*
X198006Y136547D01*
X198968Y136149D01*
X200000Y136013D01*
X201032Y136149D01*
X201993Y136547D01*
X202819Y137181D01*
X203453Y138006D01*
X203851Y138968D01*
X203987Y140000D01*
X203851Y141032D01*
X203453Y141993D01*
X202819Y142819D01*
X201993Y143453D01*
X201032Y143851D01*
X200000Y143987D01*
D02*
G37*
G36*
X226394Y178634D02*
X222941D01*
Y175181D01*
X226394D01*
Y178634D01*
D02*
G37*
G36*
X10000Y183987D02*
X8968Y183851D01*
X8006Y183453D01*
X7181Y182819D01*
X6547Y181993D01*
X6149Y181032D01*
X6013Y180000D01*
X6149Y178968D01*
X6547Y178006D01*
X7181Y177181D01*
X8006Y176547D01*
X8968Y176149D01*
X10000Y176013D01*
X11032Y176149D01*
X11993Y176547D01*
X12819Y177181D01*
X13453Y178006D01*
X13851Y178968D01*
X13987Y180000D01*
X13851Y181032D01*
X13453Y181993D01*
X12819Y182819D01*
X11993Y183453D01*
X11032Y183851D01*
X10000Y183987D01*
D02*
G37*
G36*
X221941Y178634D02*
X218488D01*
Y175181D01*
X221941D01*
Y178634D01*
D02*
G37*
G36*
X200000Y173987D02*
X198968Y173851D01*
X198006Y173453D01*
X197181Y172819D01*
X196547Y171993D01*
X196149Y171032D01*
X196013Y170000D01*
X196149Y168968D01*
X196547Y168007D01*
X197181Y167181D01*
X198006Y166547D01*
X198968Y166149D01*
X200000Y166013D01*
X201032Y166149D01*
X201993Y166547D01*
X202819Y167181D01*
X203453Y168007D01*
X203851Y168968D01*
X203987Y170000D01*
X203851Y171032D01*
X203453Y171993D01*
X202819Y172819D01*
X201993Y173453D01*
X201032Y173851D01*
X200000Y173987D01*
D02*
G37*
G36*
X151260Y372097D02*
X150228Y371961D01*
X149266Y371563D01*
X148441Y370929D01*
X147807Y370104D01*
X147409Y369142D01*
X147273Y368110D01*
X147409Y367078D01*
X147807Y366117D01*
X148441Y365291D01*
X149266Y364657D01*
X149730Y364465D01*
Y177599D01*
X149730Y177599D01*
X149730D01*
X149847Y177013D01*
X150178Y176517D01*
X155081Y171614D01*
X154889Y171150D01*
X154753Y170118D01*
X154889Y169086D01*
X155287Y168125D01*
X155759Y167510D01*
X155538Y167062D01*
X151313D01*
X145109Y173266D01*
Y303531D01*
X145152Y303560D01*
X145634Y304281D01*
X145804Y305132D01*
X145634Y305983D01*
X145152Y306705D01*
X144431Y307187D01*
X143580Y307356D01*
X142729Y307187D01*
X142007Y306705D01*
X141525Y305983D01*
X141356Y305132D01*
X141525Y304281D01*
X142007Y303560D01*
X142050Y303531D01*
Y172632D01*
X142050Y172632D01*
X142050D01*
X142167Y172047D01*
X142498Y171551D01*
X149598Y164451D01*
X150094Y164119D01*
X150680Y164003D01*
X156532D01*
X156693Y163529D01*
X155921Y162937D01*
X155287Y162112D01*
X154889Y161150D01*
X154753Y160118D01*
X154889Y159086D01*
X155287Y158125D01*
X155921Y157299D01*
X156747Y156666D01*
X157708Y156267D01*
X158740Y156131D01*
X159772Y156267D01*
X160734Y156666D01*
X161559Y157299D01*
X162193Y158125D01*
X162591Y159086D01*
X162727Y160118D01*
X162601Y161079D01*
X163049Y161300D01*
X163664Y160686D01*
Y148011D01*
X163202Y147820D01*
X162399Y148622D01*
X162591Y149086D01*
X162727Y150118D01*
X162591Y151150D01*
X162193Y152112D01*
X161559Y152937D01*
X160734Y153571D01*
X159772Y153969D01*
X158740Y154105D01*
X157708Y153969D01*
X156747Y153571D01*
X155921Y152937D01*
X155287Y152112D01*
X154889Y151150D01*
X154753Y150118D01*
X154889Y149086D01*
X155287Y148125D01*
X155921Y147299D01*
X156747Y146666D01*
X157708Y146267D01*
X158740Y146131D01*
X159772Y146267D01*
X160236Y146459D01*
X161664Y145032D01*
Y143423D01*
X161215Y143201D01*
X160734Y143571D01*
X159772Y143969D01*
X158740Y144105D01*
X157708Y143969D01*
X157244Y143777D01*
X137409Y163612D01*
Y331631D01*
X137452Y331660D01*
X137934Y332381D01*
X138104Y333232D01*
X137934Y334083D01*
X137452Y334805D01*
X136731Y335287D01*
X135880Y335456D01*
X135029Y335287D01*
X134307Y334805D01*
X133825Y334083D01*
X133656Y333232D01*
X133825Y332381D01*
X134307Y331660D01*
X134350Y331631D01*
Y162979D01*
X134350Y162979D01*
X134350D01*
X134467Y162393D01*
X134798Y161897D01*
X155081Y141614D01*
X154889Y141150D01*
X154753Y140118D01*
X154889Y139086D01*
X155287Y138125D01*
X155921Y137299D01*
X155978Y137256D01*
X155961Y136756D01*
X155898Y136714D01*
X153198Y134014D01*
X152867Y133518D01*
X152750Y132932D01*
Y127732D01*
X152750Y127732D01*
X152750D01*
X152867Y127147D01*
X153198Y126651D01*
X155298Y124551D01*
X155795Y124219D01*
X156380Y124103D01*
X156749D01*
X156847Y123612D01*
X156747Y123571D01*
X155921Y122937D01*
X155287Y122112D01*
X154889Y121150D01*
X154753Y120118D01*
X154889Y119086D01*
X155287Y118125D01*
X155921Y117299D01*
X156747Y116665D01*
X157708Y116267D01*
X158740Y116131D01*
X159772Y116267D01*
X160236Y116459D01*
X171069Y105626D01*
Y28999D01*
X170605Y28807D01*
X169779Y28174D01*
X169146Y27348D01*
X168747Y26386D01*
X168612Y25354D01*
X168747Y24322D01*
X169146Y23361D01*
X169779Y22535D01*
X170605Y21902D01*
X171566Y21503D01*
X172598Y21368D01*
X173630Y21503D01*
X174592Y21902D01*
X175417Y22535D01*
X176051Y23361D01*
X176449Y24322D01*
X176585Y25354D01*
X176449Y26386D01*
X176051Y27348D01*
X175417Y28174D01*
X174592Y28807D01*
X174128Y28999D01*
Y106260D01*
X174031Y106748D01*
X174011Y106845D01*
X173680Y107341D01*
X162399Y118622D01*
X162591Y119086D01*
X162727Y120118D01*
X162591Y121150D01*
X162193Y122112D01*
X161559Y122937D01*
X160734Y123571D01*
X159772Y123969D01*
X159781Y124103D01*
X168980D01*
X169565Y124219D01*
X170061Y124551D01*
X170061Y124551D01*
X170061Y124551D01*
X186961Y141451D01*
X187293Y141947D01*
X187409Y142532D01*
X187409Y142532D01*
X187409Y142532D01*
Y142532D01*
Y203031D01*
X187452Y203060D01*
X187934Y203781D01*
X188104Y204632D01*
X187934Y205483D01*
X187452Y206205D01*
X186731Y206687D01*
X185880Y206856D01*
X185029Y206687D01*
X184307Y206205D01*
X183825Y205483D01*
X183656Y204632D01*
X183825Y203781D01*
X184307Y203060D01*
X184350Y203031D01*
Y143166D01*
X168346Y127162D01*
X162019D01*
X161798Y127610D01*
X162193Y128125D01*
X162591Y129086D01*
X162727Y130118D01*
X162591Y131150D01*
X162399Y131614D01*
X166274Y135489D01*
X166606Y135986D01*
X166722Y136571D01*
Y161319D01*
X166625Y161807D01*
X166606Y161904D01*
X166274Y162400D01*
X162061Y166614D01*
X161565Y166945D01*
X161494Y167249D01*
X161559Y167299D01*
X162193Y168125D01*
X162591Y169086D01*
X162727Y170118D01*
X162591Y171150D01*
X162193Y172112D01*
X161559Y172937D01*
X160734Y173571D01*
X159772Y173969D01*
X158740Y174105D01*
X157708Y173969D01*
X157244Y173777D01*
X152789Y178232D01*
Y364465D01*
X153253Y364657D01*
X154079Y365291D01*
X154712Y366117D01*
X155111Y367078D01*
X155247Y368110D01*
X155111Y369142D01*
X154712Y370104D01*
X154079Y370929D01*
X153253Y371563D01*
X152292Y371961D01*
X151260Y372097D01*
D02*
G37*
G36*
X226394Y183087D02*
X222941D01*
Y179634D01*
X226394D01*
Y183087D01*
D02*
G37*
G36*
X222441Y193121D02*
X221409Y192985D01*
X220447Y192587D01*
X219622Y191953D01*
X218988Y191127D01*
X218590Y190166D01*
X218454Y189134D01*
X218590Y188102D01*
X218988Y187140D01*
X219622Y186315D01*
X220447Y185681D01*
X221409Y185283D01*
X222441Y185147D01*
X223473Y185283D01*
X224434Y185681D01*
X225260Y186315D01*
X225894Y187140D01*
X226292Y188102D01*
X226428Y189134D01*
X226292Y190166D01*
X225894Y191127D01*
X225260Y191953D01*
X224434Y192587D01*
X223473Y192985D01*
X222441Y193121D01*
D02*
G37*
G36*
X221941Y183087D02*
X218488D01*
Y179634D01*
X221941D01*
Y183087D01*
D02*
G37*
G36*
X203953Y183953D02*
X196047D01*
Y176047D01*
X203953D01*
Y183953D01*
D02*
G37*
G36*
X74394Y205333D02*
X73362Y205197D01*
X72400Y204799D01*
X71575Y204166D01*
X70941Y203340D01*
X70543Y202378D01*
X70407Y201346D01*
X70543Y200314D01*
X70941Y199353D01*
X71575Y198527D01*
X72371Y197916D01*
Y194776D01*
X71575Y194166D01*
X70941Y193340D01*
X70543Y192378D01*
X70407Y191346D01*
X70543Y190314D01*
X70941Y189353D01*
X71575Y188527D01*
X72371Y187916D01*
Y184776D01*
X71575Y184166D01*
X70941Y183340D01*
X70543Y182378D01*
X70407Y181346D01*
X70543Y180315D01*
X70941Y179353D01*
X71575Y178527D01*
X72400Y177894D01*
X73362Y177495D01*
X74394Y177359D01*
X75426Y177495D01*
X76387Y177894D01*
X77213Y178527D01*
X77846Y179353D01*
X78245Y180315D01*
X78381Y181346D01*
X78245Y182378D01*
X77846Y183340D01*
X77213Y184166D01*
X76417Y184776D01*
Y187916D01*
X77213Y188527D01*
X77846Y189353D01*
X78245Y190314D01*
X78381Y191346D01*
X78245Y192378D01*
X77846Y193340D01*
X77213Y194166D01*
X76417Y194776D01*
Y197916D01*
X77213Y198527D01*
X77846Y199353D01*
X78245Y200314D01*
X78381Y201346D01*
X78245Y202378D01*
X77846Y203340D01*
X77213Y204166D01*
X76387Y204799D01*
X75426Y205197D01*
X74394Y205333D01*
D02*
G37*
G36*
X221547Y149748D02*
X221015Y149678D01*
X220054Y149279D01*
X219228Y148646D01*
X218595Y147820D01*
X218196Y146859D01*
X218126Y146327D01*
X221547D01*
Y149748D01*
D02*
G37*
G36*
X222547D02*
Y146327D01*
X225968D01*
X225898Y146859D01*
X225500Y147820D01*
X224866Y148646D01*
X224041Y149279D01*
X223079Y149678D01*
X222547Y149748D01*
D02*
G37*
G36*
X200000Y153987D02*
X198968Y153851D01*
X198006Y153453D01*
X197181Y152819D01*
X196547Y151993D01*
X196149Y151032D01*
X196013Y150000D01*
X196149Y148968D01*
X196547Y148006D01*
X197181Y147181D01*
X198006Y146547D01*
X198968Y146149D01*
X200000Y146013D01*
X201032Y146149D01*
X201993Y146547D01*
X202819Y147181D01*
X203453Y148006D01*
X203851Y148968D01*
X203987Y150000D01*
X203851Y151032D01*
X203453Y151993D01*
X202819Y152819D01*
X201993Y153453D01*
X201032Y153851D01*
X200000Y153987D01*
D02*
G37*
G36*
X221547Y145327D02*
X218126D01*
X218196Y144795D01*
X218595Y143833D01*
X219228Y143008D01*
X220054Y142374D01*
X221015Y141976D01*
X221547Y141906D01*
Y145327D01*
D02*
G37*
G36*
X225968D02*
X222547D01*
Y141906D01*
X223079Y141976D01*
X224041Y142374D01*
X224866Y143008D01*
X225500Y143833D01*
X225898Y144795D01*
X225968Y145327D01*
D02*
G37*
G36*
X13953Y167953D02*
X6047D01*
Y160047D01*
X13953D01*
Y167953D01*
D02*
G37*
G36*
X74409Y168395D02*
X73429Y168266D01*
X72515Y167887D01*
X71731Y167285D01*
X71129Y166500D01*
X70750Y165587D01*
X70621Y164606D01*
X70750Y163626D01*
X71129Y162712D01*
X71731Y161928D01*
X72515Y161326D01*
X73429Y160947D01*
X74409Y160818D01*
X75390Y160947D01*
X76303Y161326D01*
X77088Y161928D01*
X77690Y162712D01*
X78069Y163626D01*
X78198Y164606D01*
X78069Y165587D01*
X77690Y166500D01*
X77088Y167285D01*
X76303Y167887D01*
X75390Y168266D01*
X74409Y168395D01*
D02*
G37*
G36*
X200000Y163987D02*
X198968Y163851D01*
X198006Y163453D01*
X197181Y162819D01*
X196547Y161993D01*
X196149Y161032D01*
X196013Y160000D01*
X196149Y158968D01*
X196547Y158007D01*
X197181Y157181D01*
X198006Y156547D01*
X198968Y156149D01*
X200000Y156013D01*
X201032Y156149D01*
X201993Y156547D01*
X202819Y157181D01*
X203453Y158007D01*
X203851Y158968D01*
X203987Y160000D01*
X203851Y161032D01*
X203453Y161993D01*
X202819Y162819D01*
X201993Y163453D01*
X201032Y163851D01*
X200000Y163987D01*
D02*
G37*
G36*
X10000Y157987D02*
X8968Y157851D01*
X8006Y157453D01*
X7181Y156819D01*
X6547Y155993D01*
X6149Y155032D01*
X6013Y154000D01*
X6149Y152968D01*
X6547Y152006D01*
X7181Y151181D01*
X8006Y150547D01*
X8968Y150149D01*
X10000Y150013D01*
X11032Y150149D01*
X11993Y150547D01*
X12819Y151181D01*
X13453Y152006D01*
X13851Y152968D01*
X13987Y154000D01*
X13851Y155032D01*
X13453Y155993D01*
X12819Y156819D01*
X11993Y157453D01*
X11032Y157851D01*
X10000Y157987D01*
D02*
G37*
G36*
X222047Y159814D02*
X221015Y159678D01*
X220054Y159280D01*
X219228Y158646D01*
X218595Y157820D01*
X218196Y156859D01*
X218060Y155827D01*
X218196Y154795D01*
X218595Y153833D01*
X219228Y153008D01*
X220054Y152374D01*
X221015Y151976D01*
X222047Y151840D01*
X223079Y151976D01*
X224041Y152374D01*
X224866Y153008D01*
X225500Y153833D01*
X225898Y154795D01*
X226034Y155827D01*
X225898Y156859D01*
X225500Y157820D01*
X224866Y158646D01*
X224041Y159280D01*
X223079Y159678D01*
X222047Y159814D01*
D02*
G37*
G36*
X67697Y99791D02*
X64244D01*
Y96339D01*
X67697D01*
Y99791D01*
D02*
G37*
G36*
X23953Y29953D02*
X16047D01*
Y22047D01*
X23953D01*
Y29953D01*
D02*
G37*
G36*
X166551Y29307D02*
X163098D01*
Y25854D01*
X166551D01*
Y29307D01*
D02*
G37*
G36*
X30000Y29987D02*
X28968Y29851D01*
X28007Y29453D01*
X27181Y28819D01*
X26547Y27993D01*
X26149Y27032D01*
X26013Y26000D01*
X26149Y24968D01*
X26547Y24006D01*
X27181Y23181D01*
X28007Y22547D01*
X28968Y22149D01*
X30000Y22013D01*
X31032Y22149D01*
X31993Y22547D01*
X32819Y23181D01*
X33453Y24006D01*
X33851Y24968D01*
X33987Y26000D01*
X33851Y27032D01*
X33453Y27993D01*
X32819Y28819D01*
X31993Y29453D01*
X31032Y29851D01*
X30000Y29987D01*
D02*
G37*
G36*
X128791Y25248D02*
X125370D01*
X125440Y24716D01*
X125839Y23755D01*
X126472Y22929D01*
X127298Y22295D01*
X128260Y21897D01*
X128791Y21827D01*
Y25248D01*
D02*
G37*
G36*
X133212D02*
X129791D01*
Y21827D01*
X130323Y21897D01*
X131285Y22295D01*
X132111Y22929D01*
X132744Y23755D01*
X133142Y24716D01*
X133212Y25248D01*
D02*
G37*
G36*
X129791Y29669D02*
Y26248D01*
X133212D01*
X133142Y26780D01*
X132744Y27741D01*
X132111Y28567D01*
X131285Y29201D01*
X130323Y29599D01*
X129791Y29669D01*
D02*
G37*
G36*
X97532Y40878D02*
X94309D01*
X94372Y40398D01*
X94751Y39484D01*
X95353Y38699D01*
X96137Y38097D01*
X97051Y37719D01*
X97532Y37655D01*
Y40878D01*
D02*
G37*
G36*
X128791Y29669D02*
X128260Y29599D01*
X127298Y29201D01*
X126472Y28567D01*
X125839Y27741D01*
X125440Y26780D01*
X125370Y26248D01*
X128791D01*
Y29669D01*
D02*
G37*
G36*
X226823Y29275D02*
X226291Y29205D01*
X225329Y28807D01*
X224504Y28174D01*
X223870Y27348D01*
X223472Y26386D01*
X223402Y25854D01*
X226823D01*
Y29275D01*
D02*
G37*
G36*
X227823D02*
Y25854D01*
X231244D01*
X231174Y26386D01*
X230775Y27348D01*
X230142Y28174D01*
X229316Y28807D01*
X228355Y29205D01*
X227823Y29275D01*
D02*
G37*
G36*
X221275Y29307D02*
X213370D01*
Y21402D01*
X221275D01*
Y29307D01*
D02*
G37*
G36*
X226823Y24854D02*
X223402D01*
X223472Y24322D01*
X223870Y23361D01*
X224504Y22535D01*
X225329Y21902D01*
X226291Y21503D01*
X226823Y21433D01*
Y24854D01*
D02*
G37*
G36*
X166551D02*
X163098D01*
Y21402D01*
X166551D01*
Y24854D01*
D02*
G37*
G36*
X192598Y29341D02*
X191567Y29205D01*
X190605Y28807D01*
X189779Y28174D01*
X189146Y27348D01*
X188747Y26386D01*
X188611Y25354D01*
X188747Y24322D01*
X189146Y23361D01*
X189779Y22535D01*
X190605Y21902D01*
X191567Y21503D01*
X192598Y21368D01*
X193630Y21503D01*
X194592Y21902D01*
X195417Y22535D01*
X196051Y23361D01*
X196449Y24322D01*
X196585Y25354D01*
X196449Y26386D01*
X196051Y27348D01*
X195417Y28174D01*
X194592Y28807D01*
X193630Y29205D01*
X192598Y29341D01*
D02*
G37*
G36*
X237323D02*
X236291Y29205D01*
X235329Y28807D01*
X234504Y28174D01*
X233870Y27348D01*
X233472Y26386D01*
X233336Y25354D01*
X233472Y24322D01*
X233870Y23361D01*
X234504Y22535D01*
X235329Y21902D01*
X236291Y21503D01*
X237323Y21368D01*
X238355Y21503D01*
X239316Y21902D01*
X240142Y22535D01*
X240775Y23361D01*
X241174Y24322D01*
X241310Y25354D01*
X241174Y26386D01*
X240775Y27348D01*
X240142Y28174D01*
X239316Y28807D01*
X238355Y29205D01*
X237323Y29341D01*
D02*
G37*
G36*
X139291Y29735D02*
X138259Y29599D01*
X137298Y29201D01*
X136472Y28567D01*
X135839Y27741D01*
X135440Y26780D01*
X135304Y25748D01*
X135440Y24716D01*
X135839Y23755D01*
X136472Y22929D01*
X137298Y22295D01*
X138259Y21897D01*
X139291Y21761D01*
X140323Y21897D01*
X141285Y22295D01*
X142111Y22929D01*
X142744Y23755D01*
X143142Y24716D01*
X143278Y25748D01*
X143142Y26780D01*
X142744Y27741D01*
X142111Y28567D01*
X141285Y29201D01*
X140323Y29599D01*
X139291Y29735D01*
D02*
G37*
G36*
X123244Y29701D02*
X115339D01*
Y21795D01*
X123244D01*
Y29701D01*
D02*
G37*
G36*
X79000Y30285D02*
X77891Y30139D01*
X76858Y29711D01*
X75970Y29030D01*
X75289Y28142D01*
X74861Y27109D01*
X74715Y26000D01*
X74861Y24891D01*
X75289Y23858D01*
X75970Y22970D01*
X76858Y22289D01*
X77891Y21861D01*
X79000Y21715D01*
X80109Y21861D01*
X81142Y22289D01*
X82030Y22970D01*
X82711Y23858D01*
X83139Y24891D01*
X83285Y26000D01*
X83139Y27109D01*
X82711Y28142D01*
X82030Y29030D01*
X81142Y29711D01*
X80109Y30139D01*
X79000Y30285D01*
D02*
G37*
G36*
X231244Y24854D02*
X227823D01*
Y21433D01*
X228355Y21503D01*
X229316Y21902D01*
X230142Y22535D01*
X230775Y23361D01*
X231174Y24322D01*
X231244Y24854D01*
D02*
G37*
G36*
X59000Y30285D02*
X57891Y30139D01*
X56858Y29711D01*
X55970Y29030D01*
X55289Y28142D01*
X54861Y27109D01*
X54715Y26000D01*
X54861Y24891D01*
X55289Y23858D01*
X55970Y22970D01*
X56858Y22289D01*
X57891Y21861D01*
X59000Y21715D01*
X60109Y21861D01*
X61142Y22289D01*
X62030Y22970D01*
X62711Y23858D01*
X63139Y24891D01*
X63285Y26000D01*
X63139Y27109D01*
X62711Y28142D01*
X62030Y29030D01*
X61142Y29711D01*
X60109Y30139D01*
X59000Y30285D01*
D02*
G37*
G36*
X221547Y92768D02*
X218325D01*
X218388Y92287D01*
X218766Y91374D01*
X219368Y90589D01*
X220153Y89987D01*
X221067Y89609D01*
X221547Y89545D01*
Y92768D01*
D02*
G37*
G36*
X225770D02*
X222547D01*
Y89545D01*
X223028Y89609D01*
X223941Y89987D01*
X224726Y90589D01*
X225328Y91374D01*
X225706Y92287D01*
X225770Y92768D01*
D02*
G37*
G36*
X68197Y90499D02*
X67165Y90363D01*
X66203Y89964D01*
X65378Y89331D01*
X64744Y88505D01*
X64346Y87544D01*
X64210Y86512D01*
X64346Y85480D01*
X64744Y84518D01*
X65378Y83693D01*
X66203Y83059D01*
X67165Y82661D01*
X68197Y82525D01*
X69229Y82661D01*
X70190Y83059D01*
X71016Y83693D01*
X71649Y84518D01*
X72048Y85480D01*
X72184Y86512D01*
X72048Y87544D01*
X71649Y88505D01*
X71016Y89331D01*
X70190Y89964D01*
X69229Y90363D01*
X68197Y90499D01*
D02*
G37*
G36*
X39500Y74120D02*
Y70500D01*
X43120D01*
X43043Y71083D01*
X42625Y72093D01*
X41960Y72960D01*
X41093Y73625D01*
X40083Y74043D01*
X39500Y74120D01*
D02*
G37*
G36*
X98740Y84105D02*
X97708Y83969D01*
X96747Y83571D01*
X95921Y82937D01*
X95288Y82112D01*
X94889Y81150D01*
X94753Y80118D01*
X94889Y79086D01*
X95288Y78125D01*
X95921Y77299D01*
X96747Y76666D01*
X97708Y76267D01*
X98740Y76131D01*
X99772Y76267D01*
X100236Y76459D01*
X101750Y74945D01*
Y73356D01*
X101302Y73135D01*
X100734Y73571D01*
X99772Y73969D01*
X98740Y74105D01*
X97708Y73969D01*
X96747Y73571D01*
X95921Y72937D01*
X95288Y72112D01*
X94889Y71150D01*
X94753Y70118D01*
X94889Y69086D01*
X95288Y68125D01*
X95921Y67299D01*
X96747Y66666D01*
X97708Y66267D01*
X98740Y66131D01*
X99772Y66267D01*
X100734Y66666D01*
X101302Y67102D01*
X101750Y66880D01*
Y63356D01*
X101302Y63135D01*
X100734Y63571D01*
X99772Y63969D01*
X99240Y64039D01*
Y60117D01*
Y56197D01*
X99772Y56267D01*
X100734Y56665D01*
X101302Y57102D01*
X101750Y56880D01*
Y43479D01*
X101277Y43318D01*
X100710Y44057D01*
X99926Y44659D01*
X99012Y45037D01*
X98532Y45101D01*
Y41377D01*
Y37655D01*
X99012Y37719D01*
X99926Y38097D01*
X100710Y38699D01*
X101277Y39438D01*
X101750Y39277D01*
Y17260D01*
X99377Y14886D01*
X99012Y15037D01*
X98032Y15166D01*
X97051Y15037D01*
X96137Y14659D01*
X95353Y14057D01*
X94751Y13272D01*
X94372Y12359D01*
X94243Y11378D01*
X94372Y10397D01*
X94751Y9484D01*
X95353Y8699D01*
X96137Y8097D01*
X97051Y7719D01*
X98032Y7590D01*
X99012Y7719D01*
X99926Y8097D01*
X100710Y8699D01*
X101312Y9484D01*
X101691Y10397D01*
X101820Y11378D01*
X101691Y12359D01*
X101540Y12723D01*
X104361Y15545D01*
X104693Y16041D01*
X104809Y16626D01*
Y75579D01*
X104712Y76067D01*
X104693Y76164D01*
X104361Y76660D01*
X102399Y78622D01*
X102591Y79086D01*
X102727Y80118D01*
X102591Y81150D01*
X102193Y82112D01*
X101559Y82937D01*
X100734Y83571D01*
X99772Y83969D01*
X98740Y84105D01*
D02*
G37*
G36*
X222547Y96990D02*
Y93768D01*
X225770D01*
X225706Y94248D01*
X225328Y95162D01*
X224726Y95947D01*
X223941Y96549D01*
X223028Y96927D01*
X222547Y96990D01*
D02*
G37*
G36*
X98740Y104105D02*
X97708Y103969D01*
X96747Y103571D01*
X95921Y102937D01*
X95288Y102112D01*
X94889Y101150D01*
X94753Y100118D01*
X94889Y99086D01*
X95288Y98125D01*
X95921Y97299D01*
X96747Y96666D01*
X97708Y96267D01*
X98740Y96131D01*
X99772Y96267D01*
X100734Y96666D01*
X101559Y97299D01*
X102193Y98125D01*
X102591Y99086D01*
X102727Y100118D01*
X102591Y101150D01*
X102193Y102112D01*
X101559Y102937D01*
X100734Y103571D01*
X99772Y103969D01*
X98740Y104105D01*
D02*
G37*
G36*
X221547Y96990D02*
X221067Y96927D01*
X220153Y96549D01*
X219368Y95947D01*
X218766Y95162D01*
X218388Y94248D01*
X218325Y93768D01*
X221547D01*
Y96990D01*
D02*
G37*
G36*
X10000Y97987D02*
X8968Y97851D01*
X8006Y97453D01*
X7181Y96819D01*
X6547Y95993D01*
X6149Y95032D01*
X6013Y94000D01*
X6149Y92968D01*
X6547Y92007D01*
X7181Y91181D01*
X8006Y90547D01*
X8968Y90149D01*
X10000Y90013D01*
X11032Y90149D01*
X11993Y90547D01*
X12819Y91181D01*
X13453Y92007D01*
X13851Y92968D01*
X13987Y94000D01*
X13851Y95032D01*
X13453Y95993D01*
X12819Y96819D01*
X11993Y97453D01*
X11032Y97851D01*
X10000Y97987D01*
D02*
G37*
G36*
X120488Y372063D02*
X112583D01*
Y364157D01*
X115006D01*
Y142323D01*
X115006Y142323D01*
X115006D01*
X115122Y141738D01*
X115454Y141242D01*
X155081Y101614D01*
X154889Y101150D01*
X154753Y100118D01*
X154889Y99086D01*
X155287Y98125D01*
X155921Y97299D01*
X156747Y96666D01*
X157708Y96267D01*
X158740Y96131D01*
X159772Y96267D01*
X160734Y96666D01*
X161215Y97035D01*
X161664Y96814D01*
Y93423D01*
X161215Y93201D01*
X160734Y93571D01*
X159772Y93969D01*
X158740Y94105D01*
X157708Y93969D01*
X156747Y93571D01*
X155921Y92937D01*
X155287Y92112D01*
X154889Y91150D01*
X154753Y90118D01*
X154889Y89086D01*
X155287Y88125D01*
X155921Y87299D01*
X156747Y86665D01*
X157708Y86267D01*
X158740Y86131D01*
X159772Y86267D01*
X160734Y86665D01*
X161215Y87035D01*
X161664Y86814D01*
Y83423D01*
X161215Y83201D01*
X160734Y83571D01*
X159772Y83969D01*
X158740Y84105D01*
X157708Y83969D01*
X157244Y83777D01*
X112409Y128612D01*
Y255231D01*
X112452Y255260D01*
X112934Y255981D01*
X113104Y256832D01*
X112934Y257683D01*
X112452Y258405D01*
X111731Y258887D01*
X110880Y259056D01*
X110029Y258887D01*
X109307Y258405D01*
X108825Y257683D01*
X108656Y256832D01*
X108825Y255981D01*
X109307Y255260D01*
X109350Y255231D01*
Y127979D01*
X109350Y127979D01*
X109350D01*
X109467Y127393D01*
X109798Y126897D01*
X155081Y81614D01*
X154889Y81150D01*
X154753Y80118D01*
X154889Y79086D01*
X155287Y78125D01*
X155921Y77299D01*
X156747Y76666D01*
X157708Y76267D01*
X158740Y76131D01*
X159772Y76267D01*
X160734Y76666D01*
X161215Y77035D01*
X161664Y76814D01*
Y73423D01*
X161215Y73201D01*
X160734Y73571D01*
X159772Y73969D01*
X158740Y74105D01*
X157708Y73969D01*
X156747Y73571D01*
X155921Y72937D01*
X155287Y72112D01*
X154889Y71150D01*
X154753Y70118D01*
X154889Y69086D01*
X155287Y68125D01*
X155921Y67299D01*
X156747Y66666D01*
X157708Y66267D01*
X158740Y66131D01*
X159772Y66267D01*
X160734Y66666D01*
X161215Y67035D01*
X161664Y66814D01*
Y63423D01*
X161215Y63201D01*
X160734Y63571D01*
X159772Y63969D01*
X158740Y64105D01*
X157708Y63969D01*
X156747Y63571D01*
X155921Y62937D01*
X155287Y62112D01*
X154889Y61150D01*
X154753Y60118D01*
X154889Y59086D01*
X155287Y58125D01*
X155921Y57299D01*
X156747Y56665D01*
X157708Y56267D01*
X158740Y56131D01*
X159772Y56267D01*
X160734Y56665D01*
X161215Y57035D01*
X161664Y56814D01*
Y47879D01*
X156998Y43214D01*
X156667Y42717D01*
X156550Y42132D01*
Y19732D01*
X156550Y19732D01*
X156550D01*
X156667Y19147D01*
X156998Y18651D01*
X159598Y16051D01*
X160094Y15719D01*
X160680Y15603D01*
X174376D01*
X174961Y15719D01*
X175458Y16051D01*
X175458Y16051D01*
X175458Y16051D01*
X181102Y21696D01*
X181567Y21503D01*
X182598Y21368D01*
X183630Y21503D01*
X184592Y21902D01*
X185417Y22535D01*
X186051Y23361D01*
X186449Y24322D01*
X186585Y25354D01*
X186449Y26386D01*
X186051Y27348D01*
X185417Y28174D01*
X184592Y28807D01*
X183630Y29205D01*
X182598Y29341D01*
X181567Y29205D01*
X180605Y28807D01*
X179779Y28174D01*
X179146Y27348D01*
X178747Y26386D01*
X178612Y25354D01*
X178747Y24322D01*
X178940Y23858D01*
X173743Y18662D01*
X161313D01*
X159609Y20366D01*
Y21402D01*
X162098D01*
Y25353D01*
Y29307D01*
X159609D01*
Y41499D01*
X164274Y46164D01*
X164606Y46660D01*
X164722Y47245D01*
Y105665D01*
X164606Y106251D01*
X164274Y106747D01*
X162399Y108622D01*
X162591Y109086D01*
X162727Y110118D01*
X162591Y111150D01*
X162193Y112112D01*
X161559Y112937D01*
X160734Y113571D01*
X159772Y113969D01*
X158740Y114105D01*
X157708Y113969D01*
X156747Y113571D01*
X155921Y112937D01*
X155287Y112112D01*
X154889Y111150D01*
X154753Y110118D01*
X154889Y109086D01*
X155287Y108125D01*
X155921Y107299D01*
X156747Y106666D01*
X157708Y106267D01*
X158740Y106131D01*
X159772Y106267D01*
X160236Y106459D01*
X161664Y105032D01*
Y103423D01*
X161215Y103201D01*
X160734Y103571D01*
X159772Y103969D01*
X158740Y104105D01*
X157708Y103969D01*
X157244Y103777D01*
X118065Y142956D01*
Y364157D01*
X120488D01*
Y372063D01*
D02*
G37*
G36*
X39000Y64185D02*
X37917Y64043D01*
X36907Y63625D01*
X36040Y62959D01*
X35375Y62093D01*
X34957Y61083D01*
X34815Y60000D01*
X34957Y58917D01*
X35375Y57907D01*
X36040Y57040D01*
X36907Y56375D01*
X37917Y55957D01*
X39000Y55815D01*
X40083Y55957D01*
X41093Y56375D01*
X41960Y57040D01*
X42625Y57907D01*
X43043Y58917D01*
X43185Y60000D01*
X43043Y61083D01*
X42625Y62093D01*
X41960Y62959D01*
X41093Y63625D01*
X40083Y64043D01*
X39000Y64185D01*
D02*
G37*
G36*
X98240Y59618D02*
X94819D01*
X94889Y59086D01*
X95288Y58125D01*
X95921Y57299D01*
X96747Y56665D01*
X97708Y56267D01*
X98240Y56197D01*
Y59618D01*
D02*
G37*
G36*
X68197Y50499D02*
X67165Y50363D01*
X66203Y49964D01*
X65378Y49331D01*
X64744Y48505D01*
X64346Y47544D01*
X64210Y46512D01*
X64346Y45480D01*
X64744Y44518D01*
X65378Y43693D01*
X66203Y43059D01*
X67165Y42661D01*
X68197Y42525D01*
X69229Y42661D01*
X70190Y43059D01*
X71016Y43693D01*
X71649Y44518D01*
X72048Y45480D01*
X72184Y46512D01*
X72048Y47544D01*
X71649Y48505D01*
X71016Y49331D01*
X70190Y49964D01*
X69229Y50363D01*
X68197Y50499D01*
D02*
G37*
G36*
X97532Y45101D02*
X97051Y45037D01*
X96137Y44659D01*
X95353Y44057D01*
X94751Y43272D01*
X94372Y42358D01*
X94309Y41878D01*
X97532D01*
Y45101D01*
D02*
G37*
G36*
X200000Y67851D02*
X197990Y67692D01*
X196029Y67222D01*
X194166Y66450D01*
X192447Y65396D01*
X190913Y64087D01*
X189604Y62553D01*
X188550Y60834D01*
X187778Y58971D01*
X187308Y57010D01*
X187149Y55000D01*
X187308Y52990D01*
X187778Y51029D01*
X188550Y49166D01*
X189604Y47447D01*
X190913Y45913D01*
X192447Y44604D01*
X194166Y43550D01*
X196029Y42778D01*
X197990Y42308D01*
X200000Y42149D01*
X202010Y42308D01*
X203971Y42778D01*
X205834Y43550D01*
X207553Y44604D01*
X209087Y45913D01*
X210396Y47447D01*
X211450Y49166D01*
X212222Y51029D01*
X212692Y52990D01*
X212851Y55000D01*
X212692Y57010D01*
X212222Y58971D01*
X211450Y60834D01*
X210396Y62553D01*
X209087Y64087D01*
X207553Y65396D01*
X205834Y66450D01*
X203971Y67222D01*
X202010Y67692D01*
X200000Y67851D01*
D02*
G37*
G36*
X43120Y69500D02*
X39500D01*
Y65880D01*
X40083Y65957D01*
X41093Y66375D01*
X41960Y67040D01*
X42625Y67907D01*
X43043Y68917D01*
X43120Y69500D01*
D02*
G37*
G36*
X38500Y74120D02*
X37917Y74043D01*
X36907Y73625D01*
X36040Y72960D01*
X35375Y72093D01*
X34957Y71083D01*
X34880Y70500D01*
X38500D01*
Y74120D01*
D02*
G37*
G36*
Y69500D02*
X34880D01*
X34957Y68917D01*
X35375Y67907D01*
X36040Y67040D01*
X36907Y66375D01*
X37917Y65957D01*
X38500Y65880D01*
Y69500D01*
D02*
G37*
G36*
X72149Y64244D02*
X64244D01*
Y61821D01*
X49291D01*
X48706Y61704D01*
X48210Y61373D01*
X40987Y54150D01*
X34850D01*
Y45850D01*
X43150D01*
Y51987D01*
X49925Y58762D01*
X64244D01*
Y56339D01*
X72149D01*
Y64244D01*
D02*
G37*
G36*
X98240Y64039D02*
X97708Y63969D01*
X96747Y63571D01*
X95921Y62937D01*
X95288Y62112D01*
X94889Y61150D01*
X94819Y60618D01*
X98240D01*
Y64039D01*
D02*
G37*
G36*
X41232Y362661D02*
X40701Y362591D01*
X39739Y362193D01*
X38913Y361559D01*
X38280Y360734D01*
X37881Y359772D01*
X37811Y359240D01*
X41232D01*
Y362661D01*
D02*
G37*
G36*
X42232D02*
Y359240D01*
X45653D01*
X45583Y359772D01*
X45185Y360734D01*
X44552Y361559D01*
X43726Y362193D01*
X42764Y362591D01*
X42232Y362661D01*
D02*
G37*
G36*
X70579Y359982D02*
Y356760D01*
X73801D01*
X73738Y357241D01*
X73360Y358154D01*
X72758Y358939D01*
X71973Y359541D01*
X71059Y359919D01*
X70579Y359982D01*
D02*
G37*
G36*
X45653Y358240D02*
X42232D01*
Y354819D01*
X42764Y354889D01*
X43726Y355288D01*
X44552Y355921D01*
X45185Y356747D01*
X45583Y357708D01*
X45653Y358240D01*
D02*
G37*
G36*
X69579Y359982D02*
X69098Y359919D01*
X68185Y359541D01*
X67400Y358939D01*
X66798Y358154D01*
X66420Y357241D01*
X66356Y356760D01*
X69579D01*
Y359982D01*
D02*
G37*
G36*
X194067Y367217D02*
X190646D01*
X190716Y366685D01*
X191114Y365723D01*
X191748Y364897D01*
X192573Y364264D01*
X193535Y363866D01*
X194067Y363796D01*
Y367217D01*
D02*
G37*
G36*
X198488D02*
X195067D01*
Y363796D01*
X195599Y363866D01*
X196560Y364264D01*
X197386Y364897D01*
X198020Y365723D01*
X198418Y366685D01*
X198488Y367217D01*
D02*
G37*
G36*
X204567Y371703D02*
X203535Y371568D01*
X202573Y371169D01*
X201748Y370536D01*
X201114Y369710D01*
X200716Y368748D01*
X200580Y367717D01*
X200716Y366685D01*
X201114Y365723D01*
X201748Y364897D01*
X202573Y364264D01*
X203535Y363866D01*
X204567Y363730D01*
X205599Y363866D01*
X206560Y364264D01*
X207386Y364897D01*
X208020Y365723D01*
X208418Y366685D01*
X208554Y367717D01*
X208418Y368748D01*
X208020Y369710D01*
X207386Y370536D01*
X206560Y371169D01*
X205599Y371568D01*
X204567Y371703D01*
D02*
G37*
G36*
X26378Y370207D02*
X25346Y370072D01*
X24385Y369673D01*
X23559Y369040D01*
X22925Y368214D01*
X22527Y367252D01*
X22391Y366221D01*
X22527Y365189D01*
X22925Y364227D01*
X23559Y363401D01*
X24385Y362768D01*
X25346Y362370D01*
X26378Y362234D01*
X27410Y362370D01*
X28371Y362768D01*
X29197Y363401D01*
X29831Y364227D01*
X30229Y365189D01*
X30365Y366221D01*
X30229Y367252D01*
X29831Y368214D01*
X29197Y369040D01*
X28371Y369673D01*
X27410Y370072D01*
X26378Y370207D01*
D02*
G37*
G36*
X236221Y377018D02*
X234867Y376884D01*
X233565Y376489D01*
X232365Y375848D01*
X231314Y374985D01*
X230451Y373934D01*
X229810Y372734D01*
X229415Y371432D01*
X229282Y370079D01*
X229415Y368725D01*
X229810Y367423D01*
X230451Y366224D01*
X231314Y365172D01*
X232365Y364309D01*
X233565Y363668D01*
X234867Y363273D01*
X236221Y363140D01*
X237574Y363273D01*
X238876Y363668D01*
X240076Y364309D01*
X241127Y365172D01*
X241990Y366224D01*
X242631Y367423D01*
X243026Y368725D01*
X243160Y370079D01*
X243026Y371432D01*
X242631Y372734D01*
X241990Y373934D01*
X241127Y374985D01*
X240076Y375848D01*
X238876Y376489D01*
X237574Y376884D01*
X236221Y377018D01*
D02*
G37*
G36*
X29937Y346866D02*
X26484D01*
Y343413D01*
X29937D01*
Y346866D01*
D02*
G37*
G36*
X189618Y348604D02*
X189138Y348541D01*
X188224Y348163D01*
X187439Y347561D01*
X186837Y346776D01*
X186459Y345863D01*
X186396Y345382D01*
X189618D01*
Y348604D01*
D02*
G37*
G36*
X25484Y346866D02*
X22031D01*
Y343413D01*
X25484D01*
Y346866D01*
D02*
G37*
G36*
X189618Y344382D02*
X186396D01*
X186459Y343901D01*
X186837Y342988D01*
X187439Y342203D01*
X188224Y341601D01*
X189138Y341223D01*
X189618Y341160D01*
Y344382D01*
D02*
G37*
G36*
X193841D02*
X190618D01*
Y341160D01*
X191099Y341223D01*
X192012Y341601D01*
X192797Y342203D01*
X193399Y342988D01*
X193777Y343901D01*
X193841Y344382D01*
D02*
G37*
G36*
X51732Y362727D02*
X50700Y362591D01*
X49739Y362193D01*
X48913Y361559D01*
X48280Y360734D01*
X47881Y359772D01*
X47745Y358740D01*
X47881Y357708D01*
X48280Y356747D01*
X48696Y356204D01*
X48475Y355755D01*
X46724D01*
X45950Y355601D01*
X45294Y355163D01*
X42727Y352596D01*
X41732Y352727D01*
X40701Y352591D01*
X39739Y352193D01*
X38913Y351559D01*
X38280Y350734D01*
X37881Y349772D01*
X37745Y348740D01*
X37881Y347708D01*
X38280Y346747D01*
X38913Y345921D01*
X39063Y345806D01*
X39195Y345145D01*
X38698Y344814D01*
X32598Y338714D01*
X32267Y338217D01*
X32150Y337632D01*
Y317803D01*
X31867Y317378D01*
X31750Y316793D01*
Y157913D01*
X11496Y137659D01*
X11032Y137851D01*
X10000Y137987D01*
X8968Y137851D01*
X8006Y137453D01*
X7458Y137031D01*
X7009Y137253D01*
Y138846D01*
X8504Y140341D01*
X8968Y140149D01*
X10000Y140013D01*
X11032Y140149D01*
X11993Y140547D01*
X12819Y141181D01*
X13453Y142007D01*
X13851Y142968D01*
X13987Y144000D01*
X13851Y145032D01*
X13453Y145993D01*
X12819Y146819D01*
X11993Y147453D01*
X11032Y147851D01*
X10000Y147987D01*
X8968Y147851D01*
X8006Y147453D01*
X7181Y146819D01*
X6547Y145993D01*
X6149Y145032D01*
X6013Y144000D01*
X6149Y142968D01*
X6341Y142504D01*
X4398Y140561D01*
X4067Y140065D01*
X3950Y139480D01*
Y121732D01*
X3950Y121732D01*
X3950D01*
X4067Y121147D01*
X4398Y120651D01*
X6598Y118451D01*
X7095Y118119D01*
X7680Y118003D01*
X8053D01*
X8151Y117512D01*
X8006Y117453D01*
X7181Y116819D01*
X6547Y115993D01*
X6149Y115032D01*
X6013Y114000D01*
X6149Y112968D01*
X6547Y112006D01*
X7181Y111181D01*
X8006Y110547D01*
X8968Y110149D01*
X10000Y110013D01*
X11032Y110149D01*
X11993Y110547D01*
X12819Y111181D01*
X13453Y112006D01*
X13851Y112968D01*
X13987Y114000D01*
X13851Y115032D01*
X13659Y115496D01*
X47861Y149698D01*
X48193Y150195D01*
X48309Y150780D01*
X48309Y150780D01*
X48309Y150780D01*
Y150780D01*
Y285930D01*
X48783Y286091D01*
X48913Y285921D01*
X49739Y285287D01*
X50700Y284889D01*
X51732Y284753D01*
X52764Y284889D01*
X53726Y285287D01*
X54208Y285658D01*
X54657Y285437D01*
Y275087D01*
X54335Y274606D01*
X54181Y273832D01*
Y251007D01*
X54181Y251007D01*
X54181D01*
X54335Y250233D01*
X54774Y249577D01*
X70014Y234337D01*
X70025Y234281D01*
X70507Y233560D01*
X71229Y233078D01*
X72080Y232908D01*
X72931Y233078D01*
X73652Y233560D01*
X74134Y234281D01*
X74304Y235132D01*
X74134Y235983D01*
X73652Y236705D01*
X72931Y237187D01*
X72875Y237198D01*
X58228Y251845D01*
Y253771D01*
X58709Y253906D01*
X59604Y252447D01*
X60913Y250913D01*
X62447Y249604D01*
X64166Y248550D01*
X66029Y247778D01*
X67990Y247308D01*
X70000Y247149D01*
X72010Y247308D01*
X73971Y247778D01*
X75834Y248550D01*
X77553Y249604D01*
X79087Y250913D01*
X80396Y252447D01*
X81450Y254166D01*
X82222Y256029D01*
X82692Y257990D01*
X82851Y260000D01*
X82692Y262010D01*
X82222Y263971D01*
X81450Y265834D01*
X80396Y267553D01*
X79087Y269087D01*
X77553Y270396D01*
X75834Y271450D01*
X73971Y272222D01*
X72010Y272692D01*
X70000Y272851D01*
X67990Y272692D01*
X66029Y272222D01*
X64166Y271450D01*
X62447Y270396D01*
X60913Y269087D01*
X59604Y267553D01*
X58709Y266093D01*
X58228Y266229D01*
Y273053D01*
X58549Y273533D01*
X58703Y274307D01*
Y351732D01*
X58549Y352506D01*
X58110Y353163D01*
X56110Y355163D01*
X55454Y355601D01*
X54680Y355755D01*
X54680Y356088D01*
X55185Y356747D01*
X55583Y357708D01*
X55719Y358740D01*
X55583Y359772D01*
X55185Y360734D01*
X54552Y361559D01*
X53726Y362193D01*
X52764Y362591D01*
X51732Y362727D01*
D02*
G37*
G36*
X41232Y358240D02*
X37811D01*
X37881Y357708D01*
X38280Y356747D01*
X38913Y355921D01*
X39739Y355288D01*
X40701Y354889D01*
X41232Y354819D01*
Y358240D01*
D02*
G37*
G36*
X73801Y355760D02*
X70579D01*
Y352537D01*
X71059Y352601D01*
X71973Y352979D01*
X72758Y353581D01*
X73360Y354366D01*
X73738Y355279D01*
X73801Y355760D01*
D02*
G37*
G36*
X190618Y348604D02*
Y345382D01*
X193841D01*
X193777Y345863D01*
X193399Y346776D01*
X192797Y347561D01*
X192012Y348163D01*
X191099Y348541D01*
X190618Y348604D01*
D02*
G37*
G36*
X69579Y355760D02*
X66356D01*
X66420Y355279D01*
X66798Y354366D01*
X67400Y353581D01*
X68185Y352979D01*
X69098Y352601D01*
X69579Y352537D01*
Y355760D01*
D02*
G37*
G36*
X30331Y390173D02*
X22425D01*
Y382268D01*
X30331D01*
Y384691D01*
X66663D01*
X66798Y384366D01*
X67400Y383581D01*
X68185Y382979D01*
X69098Y382601D01*
X70079Y382472D01*
X71059Y382601D01*
X71424Y382752D01*
X92750Y361425D01*
Y129744D01*
X91206Y128200D01*
X90874Y127703D01*
X90758Y127118D01*
Y96571D01*
X90758Y96571D01*
X90758D01*
X90874Y95986D01*
X91206Y95490D01*
X95081Y91614D01*
X94889Y91150D01*
X94753Y90118D01*
X94889Y89086D01*
X95288Y88125D01*
X95921Y87299D01*
X96747Y86665D01*
X97708Y86267D01*
X98740Y86131D01*
X99772Y86267D01*
X100734Y86665D01*
X101559Y87299D01*
X102193Y88125D01*
X102591Y89086D01*
X102727Y90118D01*
X102591Y91150D01*
X102193Y92112D01*
X101559Y92937D01*
X100734Y93571D01*
X99772Y93969D01*
X98740Y94105D01*
X97708Y93969D01*
X97244Y93777D01*
X93817Y97205D01*
Y112225D01*
X94279Y112417D01*
X95081Y111614D01*
X94889Y111150D01*
X94753Y110118D01*
X94889Y109086D01*
X95288Y108125D01*
X95921Y107299D01*
X96747Y106666D01*
X97708Y106267D01*
X98740Y106131D01*
X99772Y106267D01*
X100734Y106666D01*
X101559Y107299D01*
X102193Y108125D01*
X102591Y109086D01*
X102727Y110118D01*
X102591Y111150D01*
X102193Y112112D01*
X101559Y112937D01*
X100734Y113571D01*
X99772Y113969D01*
X98740Y114105D01*
X97708Y113969D01*
X97244Y113777D01*
X95817Y115205D01*
Y116814D01*
X96265Y117035D01*
X96747Y116665D01*
X97708Y116267D01*
X98740Y116131D01*
X99772Y116267D01*
X100734Y116665D01*
X101559Y117299D01*
X102193Y118125D01*
X102591Y119086D01*
X102727Y120118D01*
X102591Y121150D01*
X102399Y121614D01*
X106361Y125576D01*
X106693Y126073D01*
X106809Y126658D01*
Y320931D01*
X106852Y320960D01*
X107334Y321681D01*
X107504Y322532D01*
X107334Y323383D01*
X106852Y324105D01*
X106131Y324587D01*
X105280Y324756D01*
X104496Y324600D01*
X104109Y324917D01*
Y360431D01*
X104152Y360460D01*
X104634Y361181D01*
X104804Y362032D01*
X104634Y362883D01*
X104152Y363605D01*
X103431Y364087D01*
X102580Y364256D01*
X101729Y364087D01*
X101007Y363605D01*
X100525Y362883D01*
X100356Y362032D01*
X100525Y361181D01*
X101007Y360460D01*
X101050Y360431D01*
Y256932D01*
X101050Y256932D01*
X101050D01*
X101167Y256347D01*
X101498Y255851D01*
X101750Y255599D01*
Y254071D01*
X95809D01*
Y362059D01*
X95693Y362644D01*
X95361Y363140D01*
X94239Y364263D01*
X94542Y364657D01*
X95503Y364259D01*
X96535Y364123D01*
X97567Y364259D01*
X98529Y364657D01*
X99354Y365291D01*
X99988Y366117D01*
X100386Y367078D01*
X100522Y368110D01*
X100386Y369142D01*
X99988Y370104D01*
X99354Y370929D01*
X98529Y371563D01*
X97567Y371961D01*
X96535Y372097D01*
X95503Y371961D01*
X94542Y371563D01*
X93716Y370929D01*
X93083Y370104D01*
X92684Y369142D01*
X92549Y368110D01*
X92684Y367078D01*
X93083Y366117D01*
X92688Y365814D01*
X73587Y384915D01*
X73738Y385279D01*
X73867Y386260D01*
X73738Y387241D01*
X73360Y388154D01*
X72758Y388939D01*
X71973Y389541D01*
X71059Y389919D01*
X70079Y390048D01*
X69098Y389919D01*
X68185Y389541D01*
X67400Y388939D01*
X66798Y388154D01*
X66631Y387750D01*
X30331D01*
Y390173D01*
D02*
G37*
G36*
X175213Y372063D02*
X171760D01*
Y368610D01*
X175213D01*
Y372063D01*
D02*
G37*
G36*
X41232Y372693D02*
X37780D01*
Y369240D01*
X41232D01*
Y372693D01*
D02*
G37*
G36*
X170760Y372063D02*
X167307D01*
Y368610D01*
X170760D01*
Y372063D01*
D02*
G37*
G36*
X106035Y372031D02*
X105503Y371961D01*
X104542Y371563D01*
X103716Y370929D01*
X103083Y370104D01*
X102684Y369142D01*
X102614Y368610D01*
X106035D01*
Y372031D01*
D02*
G37*
G36*
X107035D02*
Y368610D01*
X110456D01*
X110386Y369142D01*
X109988Y370104D01*
X109354Y370929D01*
X108529Y371563D01*
X107567Y371961D01*
X107035Y372031D01*
D02*
G37*
G36*
X25878Y380142D02*
X25346Y380072D01*
X24385Y379673D01*
X23559Y379040D01*
X22925Y378214D01*
X22527Y377253D01*
X22457Y376721D01*
X25878D01*
Y380142D01*
D02*
G37*
G36*
X26878D02*
Y376721D01*
X30299D01*
X30229Y377253D01*
X29831Y378214D01*
X29197Y379040D01*
X28371Y379673D01*
X27410Y380072D01*
X26878Y380142D01*
D02*
G37*
G36*
X30299Y375721D02*
X26878D01*
Y372300D01*
X27410Y372370D01*
X28371Y372768D01*
X29197Y373401D01*
X29831Y374227D01*
X30229Y375189D01*
X30299Y375721D01*
D02*
G37*
G36*
X45685Y372693D02*
X42232D01*
Y369240D01*
X45685D01*
Y372693D01*
D02*
G37*
G36*
X25878Y375721D02*
X22457D01*
X22527Y375189D01*
X22925Y374227D01*
X23559Y373401D01*
X24385Y372768D01*
X25346Y372370D01*
X25878Y372300D01*
Y375721D01*
D02*
G37*
G36*
X106035Y367610D02*
X102614D01*
X102684Y367078D01*
X103083Y366117D01*
X103716Y365291D01*
X104542Y364657D01*
X105503Y364259D01*
X106035Y364189D01*
Y367610D01*
D02*
G37*
G36*
X110456D02*
X107035D01*
Y364189D01*
X107567Y364259D01*
X108529Y364657D01*
X109354Y365291D01*
X109988Y366117D01*
X110386Y367078D01*
X110456Y367610D01*
D02*
G37*
G36*
X175213D02*
X171760D01*
Y364157D01*
X175213D01*
Y367610D01*
D02*
G37*
G36*
X141260Y372097D02*
X140228Y371961D01*
X139266Y371563D01*
X138441Y370929D01*
X137807Y370104D01*
X137409Y369142D01*
X137273Y368110D01*
X137409Y367078D01*
X137807Y366117D01*
X138441Y365291D01*
X139266Y364657D01*
X140228Y364259D01*
X141260Y364123D01*
X142292Y364259D01*
X143253Y364657D01*
X144079Y365291D01*
X144712Y366117D01*
X145111Y367078D01*
X145247Y368110D01*
X145111Y369142D01*
X144712Y370104D01*
X144079Y370929D01*
X143253Y371563D01*
X142292Y371961D01*
X141260Y372097D01*
D02*
G37*
G36*
X170760Y367610D02*
X167307D01*
Y364157D01*
X170760D01*
Y367610D01*
D02*
G37*
G36*
X194067Y371638D02*
X193535Y371568D01*
X192573Y371169D01*
X191748Y370536D01*
X191114Y369710D01*
X190716Y368748D01*
X190646Y368217D01*
X194067D01*
Y371638D01*
D02*
G37*
G36*
X195067D02*
Y368217D01*
X198488D01*
X198418Y368748D01*
X198020Y369710D01*
X197386Y370536D01*
X196560Y371169D01*
X195599Y371568D01*
X195067Y371638D01*
D02*
G37*
G36*
X45685Y368240D02*
X42232D01*
Y364787D01*
X45685D01*
Y368240D01*
D02*
G37*
G36*
X51732Y372727D02*
X50700Y372591D01*
X49739Y372193D01*
X48913Y371559D01*
X48280Y370734D01*
X47881Y369772D01*
X47745Y368740D01*
X47881Y367708D01*
X48280Y366747D01*
X48913Y365921D01*
X49739Y365287D01*
X50700Y364889D01*
X51732Y364753D01*
X52764Y364889D01*
X53726Y365287D01*
X54552Y365921D01*
X55185Y366747D01*
X55583Y367708D01*
X55719Y368740D01*
X55583Y369772D01*
X55185Y370734D01*
X54552Y371559D01*
X53726Y372193D01*
X52764Y372591D01*
X51732Y372727D01*
D02*
G37*
G36*
X41232Y368240D02*
X37780D01*
Y364787D01*
X41232D01*
Y368240D01*
D02*
G37*
G36*
X84185Y225770D02*
X83705Y225706D01*
X82791Y225328D01*
X82006Y224726D01*
X81404Y223941D01*
X81026Y223028D01*
X80963Y222547D01*
X84185D01*
Y225770D01*
D02*
G37*
G36*
X85185D02*
Y222547D01*
X88407D01*
X88344Y223028D01*
X87966Y223941D01*
X87364Y224726D01*
X86579Y225328D01*
X85666Y225706D01*
X85185Y225770D01*
D02*
G37*
G36*
X88407Y221547D02*
X85185D01*
Y218325D01*
X85666Y218388D01*
X86579Y218766D01*
X87364Y219368D01*
X87966Y220153D01*
X88344Y221067D01*
X88407Y221547D01*
D02*
G37*
G36*
X158740Y224105D02*
X157708Y223969D01*
X156747Y223571D01*
X155921Y222937D01*
X155287Y222112D01*
X154889Y221150D01*
X154753Y220118D01*
X154889Y219086D01*
X155287Y218125D01*
X155921Y217299D01*
X156747Y216666D01*
X157708Y216267D01*
X158740Y216131D01*
X159772Y216267D01*
X160734Y216666D01*
X161559Y217299D01*
X162193Y218125D01*
X162591Y219086D01*
X162727Y220118D01*
X162591Y221150D01*
X162193Y222112D01*
X161559Y222937D01*
X160734Y223571D01*
X159772Y223969D01*
X158740Y224105D01*
D02*
G37*
G36*
X84185Y221547D02*
X80963D01*
X81026Y221067D01*
X81404Y220153D01*
X82006Y219368D01*
X82791Y218766D01*
X83705Y218388D01*
X84185Y218325D01*
Y221547D01*
D02*
G37*
G36*
X10000Y243987D02*
X8968Y243851D01*
X8006Y243453D01*
X7181Y242819D01*
X6547Y241993D01*
X6149Y241032D01*
X6013Y240000D01*
X6149Y238968D01*
X6547Y238007D01*
X7181Y237181D01*
X8006Y236547D01*
X8968Y236149D01*
X10000Y236013D01*
X11032Y236149D01*
X11993Y236547D01*
X12819Y237181D01*
X13453Y238007D01*
X13851Y238968D01*
X13987Y240000D01*
X13851Y241032D01*
X13453Y241993D01*
X12819Y242819D01*
X11993Y243453D01*
X11032Y243851D01*
X10000Y243987D01*
D02*
G37*
G36*
X158740Y244105D02*
X157708Y243969D01*
X156747Y243571D01*
X155921Y242937D01*
X155287Y242112D01*
X154889Y241150D01*
X154753Y240118D01*
X154889Y239086D01*
X155287Y238125D01*
X155921Y237299D01*
X156747Y236666D01*
X157708Y236267D01*
X158740Y236131D01*
X159772Y236267D01*
X160734Y236666D01*
X161559Y237299D01*
X162193Y238125D01*
X162591Y239086D01*
X162727Y240118D01*
X162591Y241150D01*
X162193Y242112D01*
X161559Y242937D01*
X160734Y243571D01*
X159772Y243969D01*
X158740Y244105D01*
D02*
G37*
G36*
X226394Y237811D02*
X218488D01*
Y229905D01*
X226394D01*
Y237811D01*
D02*
G37*
G36*
X10000Y233987D02*
X8968Y233851D01*
X8006Y233453D01*
X7181Y232819D01*
X6547Y231993D01*
X6149Y231032D01*
X6013Y230000D01*
X6149Y228968D01*
X6547Y228007D01*
X7181Y227181D01*
X8006Y226547D01*
X8968Y226149D01*
X10000Y226013D01*
X11032Y226149D01*
X11993Y226547D01*
X12819Y227181D01*
X13453Y228007D01*
X13851Y228968D01*
X13987Y230000D01*
X13851Y231032D01*
X13453Y231993D01*
X12819Y232819D01*
X11993Y233453D01*
X11032Y233851D01*
X10000Y233987D01*
D02*
G37*
G36*
X158740Y234105D02*
X157708Y233969D01*
X156747Y233571D01*
X155921Y232937D01*
X155287Y232112D01*
X154889Y231150D01*
X154753Y230118D01*
X154889Y229086D01*
X155287Y228125D01*
X155921Y227299D01*
X156747Y226665D01*
X157708Y226267D01*
X158740Y226131D01*
X159772Y226267D01*
X160734Y226665D01*
X161559Y227299D01*
X162193Y228125D01*
X162591Y229086D01*
X162727Y230118D01*
X162591Y231150D01*
X162193Y232112D01*
X161559Y232937D01*
X160734Y233571D01*
X159772Y233969D01*
X158740Y234105D01*
D02*
G37*
G36*
X10000Y203987D02*
X8968Y203851D01*
X8006Y203453D01*
X7181Y202819D01*
X6547Y201993D01*
X6149Y201032D01*
X6013Y200000D01*
X6149Y198968D01*
X6547Y198006D01*
X7181Y197181D01*
X8006Y196547D01*
X8968Y196149D01*
X10000Y196013D01*
X11032Y196149D01*
X11993Y196547D01*
X12819Y197181D01*
X13453Y198006D01*
X13851Y198968D01*
X13987Y200000D01*
X13851Y201032D01*
X13453Y201993D01*
X12819Y202819D01*
X11993Y203453D01*
X11032Y203851D01*
X10000Y203987D01*
D02*
G37*
G36*
X203953Y203953D02*
X196047D01*
Y196047D01*
X203953D01*
Y203953D01*
D02*
G37*
G36*
X222441Y203121D02*
X221409Y202985D01*
X220447Y202587D01*
X219622Y201953D01*
X218988Y201127D01*
X218590Y200166D01*
X218454Y199134D01*
X218590Y198102D01*
X218988Y197140D01*
X219622Y196315D01*
X220447Y195681D01*
X221409Y195283D01*
X222441Y195147D01*
X223473Y195283D01*
X224434Y195681D01*
X225260Y196315D01*
X225894Y197140D01*
X226292Y198102D01*
X226428Y199134D01*
X226292Y200166D01*
X225894Y201127D01*
X225260Y201953D01*
X224434Y202587D01*
X223473Y202985D01*
X222441Y203121D01*
D02*
G37*
G36*
X10000Y193987D02*
X8968Y193851D01*
X8006Y193453D01*
X7181Y192819D01*
X6547Y191993D01*
X6149Y191032D01*
X6013Y190000D01*
X6149Y188968D01*
X6547Y188006D01*
X7181Y187181D01*
X8006Y186547D01*
X8968Y186149D01*
X10000Y186013D01*
X11032Y186149D01*
X11993Y186547D01*
X12819Y187181D01*
X13453Y188006D01*
X13851Y188968D01*
X13987Y190000D01*
X13851Y191032D01*
X13453Y191993D01*
X12819Y192819D01*
X11993Y193453D01*
X11032Y193851D01*
X10000Y193987D01*
D02*
G37*
G36*
X64394Y195333D02*
X63362Y195197D01*
X62400Y194799D01*
X61575Y194166D01*
X60941Y193340D01*
X60543Y192378D01*
X60407Y191346D01*
X60543Y190314D01*
X60735Y189850D01*
X58398Y187514D01*
X58067Y187018D01*
X57950Y186432D01*
Y168512D01*
X57950Y168512D01*
X57950D01*
X58067Y167927D01*
X58398Y167431D01*
X59878Y165952D01*
X59727Y165587D01*
X59597Y164606D01*
X59727Y163626D01*
X60105Y162712D01*
X60707Y161928D01*
X61492Y161326D01*
X62405Y160947D01*
X63386Y160818D01*
X64366Y160947D01*
X65280Y161326D01*
X66065Y161928D01*
X66667Y162712D01*
X67045Y163626D01*
X67174Y164606D01*
X67045Y165587D01*
X66667Y166500D01*
X66065Y167285D01*
X65280Y167887D01*
X64366Y168266D01*
X63386Y168395D01*
X62405Y168266D01*
X62041Y168114D01*
X61009Y169146D01*
Y178486D01*
X61483Y178647D01*
X61575Y178527D01*
X62400Y177894D01*
X63362Y177495D01*
X64394Y177359D01*
X65426Y177495D01*
X66387Y177894D01*
X67213Y178527D01*
X67847Y179353D01*
X68245Y180315D01*
X68381Y181346D01*
X68245Y182378D01*
X67847Y183340D01*
X67213Y184166D01*
X66387Y184799D01*
X65426Y185197D01*
X64394Y185333D01*
X63362Y185197D01*
X62400Y184799D01*
X61575Y184166D01*
X61483Y184046D01*
X61009Y184206D01*
Y185799D01*
X62898Y187688D01*
X63362Y187495D01*
X64394Y187359D01*
X65426Y187495D01*
X66387Y187894D01*
X67213Y188527D01*
X67847Y189353D01*
X68245Y190314D01*
X68381Y191346D01*
X68245Y192378D01*
X67847Y193340D01*
X67213Y194166D01*
X66387Y194799D01*
X65426Y195197D01*
X64394Y195333D01*
D02*
G37*
G36*
X200000Y213987D02*
X198968Y213851D01*
X198006Y213453D01*
X197181Y212819D01*
X196547Y211993D01*
X196149Y211032D01*
X196013Y210000D01*
X196149Y208968D01*
X196547Y208007D01*
X197181Y207181D01*
X198006Y206547D01*
X198968Y206149D01*
X200000Y206013D01*
X201032Y206149D01*
X201993Y206547D01*
X202819Y207181D01*
X203453Y208007D01*
X203851Y208968D01*
X203987Y210000D01*
X203851Y211032D01*
X203453Y211993D01*
X202819Y212819D01*
X201993Y213453D01*
X201032Y213851D01*
X200000Y213987D01*
D02*
G37*
G36*
X10000Y223987D02*
X8968Y223851D01*
X8006Y223453D01*
X7181Y222819D01*
X6547Y221993D01*
X6149Y221032D01*
X6013Y220000D01*
X6149Y218968D01*
X6547Y218007D01*
X7181Y217181D01*
X8006Y216547D01*
X8968Y216149D01*
X10000Y216013D01*
X11032Y216149D01*
X11993Y216547D01*
X12819Y217181D01*
X13453Y218007D01*
X13851Y218968D01*
X13987Y220000D01*
X13851Y221032D01*
X13453Y221993D01*
X12819Y222819D01*
X11993Y223453D01*
X11032Y223851D01*
X10000Y223987D01*
D02*
G37*
G36*
Y213987D02*
X8968Y213851D01*
X8006Y213453D01*
X7181Y212819D01*
X6547Y211993D01*
X6149Y211032D01*
X6013Y210000D01*
X6149Y208968D01*
X6547Y208007D01*
X7181Y207181D01*
X8006Y206547D01*
X8968Y206149D01*
X10000Y206013D01*
X11032Y206149D01*
X11993Y206547D01*
X12819Y207181D01*
X13453Y208007D01*
X13851Y208968D01*
X13987Y210000D01*
X13851Y211032D01*
X13453Y211993D01*
X12819Y212819D01*
X11993Y213453D01*
X11032Y213851D01*
X10000Y213987D01*
D02*
G37*
G36*
X54685Y225835D02*
X53705Y225706D01*
X52791Y225328D01*
X52006Y224726D01*
X51404Y223941D01*
X51026Y223028D01*
X50897Y222047D01*
X51026Y221067D01*
X51404Y220153D01*
X52006Y219368D01*
X52791Y218766D01*
X53156Y218615D01*
Y211055D01*
X53156Y211055D01*
X53156D01*
X53272Y210470D01*
X53604Y209974D01*
X60441Y203136D01*
Y197394D01*
X68347D01*
Y205299D01*
X62604D01*
X56214Y211689D01*
Y218615D01*
X56579Y218766D01*
X57364Y219368D01*
X57966Y220153D01*
X58344Y221067D01*
X58473Y222047D01*
X58344Y223028D01*
X57966Y223941D01*
X57364Y224726D01*
X56579Y225328D01*
X55665Y225706D01*
X54685Y225835D01*
D02*
G37*
G36*
X222441Y213121D02*
X221409Y212985D01*
X220447Y212586D01*
X219622Y211953D01*
X218988Y211127D01*
X218590Y210166D01*
X218454Y209134D01*
X218590Y208102D01*
X218988Y207140D01*
X219622Y206315D01*
X220447Y205681D01*
X221409Y205283D01*
X222441Y205147D01*
X223473Y205283D01*
X224434Y205681D01*
X225260Y206315D01*
X225894Y207140D01*
X226292Y208102D01*
X226428Y209134D01*
X226292Y210166D01*
X225894Y211127D01*
X225260Y211953D01*
X224434Y212586D01*
X223473Y212985D01*
X222441Y213121D01*
D02*
G37*
G36*
X221941Y243358D02*
X218520D01*
X218590Y242826D01*
X218988Y241865D01*
X219622Y241039D01*
X220447Y240406D01*
X221409Y240007D01*
X221941Y239937D01*
Y243358D01*
D02*
G37*
G36*
X29937Y292142D02*
X22031D01*
Y284236D01*
X29937D01*
Y292142D01*
D02*
G37*
G36*
X25984Y316900D02*
X24952Y316764D01*
X23991Y316366D01*
X23165Y315733D01*
X22532Y314907D01*
X22133Y313945D01*
X21997Y312913D01*
X22133Y311881D01*
X22532Y310920D01*
X23165Y310094D01*
X23991Y309461D01*
X24952Y309062D01*
X25984Y308927D01*
X27016Y309062D01*
X27978Y309461D01*
X28803Y310094D01*
X29437Y310920D01*
X29835Y311881D01*
X29971Y312913D01*
X29835Y313945D01*
X29437Y314907D01*
X28803Y315733D01*
X27978Y316366D01*
X27016Y316764D01*
X25984Y316900D01*
D02*
G37*
G36*
X236221Y294340D02*
X234867Y294207D01*
X233565Y293812D01*
X232365Y293171D01*
X231314Y292308D01*
X230451Y291257D01*
X229810Y290057D01*
X229415Y288755D01*
X229282Y287402D01*
X229415Y286048D01*
X229810Y284746D01*
X230451Y283546D01*
X231314Y282495D01*
X232365Y281632D01*
X233565Y280991D01*
X234867Y280596D01*
X236221Y280463D01*
X237574Y280596D01*
X238876Y280991D01*
X240076Y281632D01*
X241127Y282495D01*
X241990Y283546D01*
X242631Y284746D01*
X243026Y286048D01*
X243160Y287402D01*
X243026Y288755D01*
X242631Y290057D01*
X241990Y291257D01*
X241127Y292308D01*
X240076Y293171D01*
X238876Y293812D01*
X237574Y294207D01*
X236221Y294340D01*
D02*
G37*
G36*
X25484Y282110D02*
X24952Y282040D01*
X23991Y281642D01*
X23165Y281008D01*
X22532Y280182D01*
X22133Y279221D01*
X22063Y278689D01*
X25484D01*
Y282110D01*
D02*
G37*
G36*
X26484D02*
Y278689D01*
X29905D01*
X29835Y279221D01*
X29437Y280182D01*
X28803Y281008D01*
X27978Y281642D01*
X27016Y282040D01*
X26484Y282110D01*
D02*
G37*
G36*
X29937Y342413D02*
X26484D01*
Y338961D01*
X29937D01*
Y342413D01*
D02*
G37*
G36*
X218520Y371669D02*
X210614D01*
Y363764D01*
X213038D01*
Y350433D01*
X213038Y350433D01*
X213038D01*
X213154Y349848D01*
X213486Y349352D01*
X216610Y346227D01*
X216459Y345863D01*
X216330Y344882D01*
X216459Y343901D01*
X216837Y342988D01*
X217439Y342203D01*
X218224Y341601D01*
X219138Y341223D01*
X220118Y341094D01*
X221099Y341223D01*
X222012Y341601D01*
X222797Y342203D01*
X223399Y342988D01*
X223777Y343901D01*
X223906Y344882D01*
X223777Y345863D01*
X223399Y346776D01*
X222797Y347561D01*
X222012Y348163D01*
X221099Y348541D01*
X220118Y348670D01*
X219138Y348541D01*
X218773Y348390D01*
X216096Y351067D01*
Y363764D01*
X218520D01*
Y371669D01*
D02*
G37*
G36*
X25484Y342413D02*
X22031D01*
Y338961D01*
X25484D01*
Y342413D01*
D02*
G37*
G36*
X25984Y326900D02*
X24952Y326764D01*
X23991Y326366D01*
X23165Y325732D01*
X22532Y324907D01*
X22133Y323945D01*
X21997Y322913D01*
X22133Y321882D01*
X22532Y320920D01*
X23165Y320094D01*
X23991Y319461D01*
X24952Y319062D01*
X25984Y318927D01*
X27016Y319062D01*
X27978Y319461D01*
X28803Y320094D01*
X29437Y320920D01*
X29835Y321882D01*
X29971Y322913D01*
X29835Y323945D01*
X29437Y324907D01*
X28803Y325732D01*
X27978Y326366D01*
X27016Y326764D01*
X25984Y326900D01*
D02*
G37*
G36*
Y336900D02*
X24952Y336764D01*
X23991Y336366D01*
X23165Y335733D01*
X22532Y334907D01*
X22133Y333945D01*
X21997Y332913D01*
X22133Y331881D01*
X22532Y330920D01*
X23165Y330094D01*
X23991Y329461D01*
X24952Y329062D01*
X25984Y328926D01*
X27016Y329062D01*
X27978Y329461D01*
X28803Y330094D01*
X29437Y330920D01*
X29835Y331881D01*
X29971Y332913D01*
X29835Y333945D01*
X29437Y334907D01*
X28803Y335733D01*
X27978Y336366D01*
X27016Y336764D01*
X25984Y336900D01*
D02*
G37*
G36*
X200000Y253987D02*
X198968Y253851D01*
X198006Y253453D01*
X197181Y252819D01*
X196547Y251993D01*
X196149Y251032D01*
X196013Y250000D01*
X196149Y248968D01*
X196547Y248007D01*
X197181Y247181D01*
X198006Y246547D01*
X198968Y246149D01*
X200000Y246013D01*
X201032Y246149D01*
X201993Y246547D01*
X202819Y247181D01*
X203453Y248007D01*
X203851Y248968D01*
X203987Y250000D01*
X203851Y251032D01*
X203453Y251993D01*
X202819Y252819D01*
X201993Y253453D01*
X201032Y253851D01*
X200000Y253987D01*
D02*
G37*
G36*
X13953Y253953D02*
X6047D01*
Y246047D01*
X13953D01*
Y253953D01*
D02*
G37*
G36*
X222941Y247779D02*
Y244358D01*
X226362D01*
X226292Y244890D01*
X225894Y245852D01*
X225260Y246677D01*
X224434Y247311D01*
X223473Y247709D01*
X222941Y247779D01*
D02*
G37*
G36*
X226362Y243358D02*
X222941D01*
Y239937D01*
X223473Y240007D01*
X224434Y240406D01*
X225260Y241039D01*
X225894Y241865D01*
X226292Y242826D01*
X226362Y243358D01*
D02*
G37*
G36*
X221941Y247779D02*
X221409Y247709D01*
X220447Y247311D01*
X219622Y246677D01*
X218988Y245852D01*
X218590Y244890D01*
X218520Y244358D01*
X221941D01*
Y247779D01*
D02*
G37*
G36*
X25484Y277689D02*
X22063D01*
X22133Y277157D01*
X22532Y276196D01*
X23165Y275370D01*
X23991Y274736D01*
X24952Y274338D01*
X25484Y274268D01*
Y277689D01*
D02*
G37*
G36*
X29905D02*
X26484D01*
Y274268D01*
X27016Y274338D01*
X27978Y274736D01*
X28803Y275370D01*
X29437Y276196D01*
X29835Y277157D01*
X29905Y277689D01*
D02*
G37*
G36*
X25984Y272176D02*
X24952Y272040D01*
X23991Y271642D01*
X23165Y271008D01*
X22532Y270182D01*
X22133Y269221D01*
X21997Y268189D01*
X22133Y267157D01*
X22532Y266196D01*
X23165Y265370D01*
X23991Y264736D01*
X24952Y264338D01*
X25984Y264202D01*
X27016Y264338D01*
X27978Y264736D01*
X28803Y265370D01*
X29437Y266196D01*
X29835Y267157D01*
X29971Y268189D01*
X29835Y269221D01*
X29437Y270182D01*
X28803Y271008D01*
X27978Y271642D01*
X27016Y272040D01*
X25984Y272176D01*
D02*
G37*
G36*
X222441Y257845D02*
X221409Y257709D01*
X220447Y257311D01*
X219622Y256677D01*
X218988Y255852D01*
X218590Y254890D01*
X218454Y253858D01*
X218590Y252826D01*
X218988Y251865D01*
X219622Y251039D01*
X220447Y250406D01*
X221409Y250007D01*
X222441Y249871D01*
X223473Y250007D01*
X224434Y250406D01*
X225260Y251039D01*
X225894Y251865D01*
X226292Y252826D01*
X226428Y253858D01*
X226292Y254890D01*
X225894Y255852D01*
X225260Y256677D01*
X224434Y257311D01*
X223473Y257709D01*
X222441Y257845D01*
D02*
G37*
G36*
X161260Y372097D02*
X160228Y371961D01*
X159266Y371563D01*
X158441Y370929D01*
X157807Y370104D01*
X157409Y369142D01*
X157273Y368110D01*
X157409Y367078D01*
X157807Y366117D01*
X158441Y365291D01*
X159266Y364657D01*
X159730Y364465D01*
Y258452D01*
X159730Y258452D01*
X159730D01*
X159847Y257867D01*
X160178Y257371D01*
X165440Y252110D01*
X165248Y251648D01*
X162385D01*
X162193Y252112D01*
X161559Y252937D01*
X160734Y253571D01*
X159772Y253969D01*
X158740Y254105D01*
X157708Y253969D01*
X156747Y253571D01*
X155921Y252937D01*
X155287Y252112D01*
X154889Y251150D01*
X154753Y250118D01*
X154889Y249086D01*
X155287Y248125D01*
X155921Y247299D01*
X156747Y246666D01*
X157708Y246267D01*
X158740Y246131D01*
X159772Y246267D01*
X160734Y246666D01*
X161559Y247299D01*
X162193Y248125D01*
X162385Y248589D01*
X164996D01*
X184667Y228919D01*
X184667D01*
X184667Y228919D01*
X184667Y228919D01*
Y228919D01*
X185163Y228587D01*
X185748Y228471D01*
X196355D01*
X196547Y228007D01*
X197005Y227410D01*
X196784Y226962D01*
X173580D01*
X172994Y226845D01*
X172498Y226514D01*
X162198Y216214D01*
X161867Y215718D01*
X161750Y215132D01*
Y213356D01*
X161302Y213135D01*
X160734Y213571D01*
X159772Y213969D01*
X158740Y214105D01*
X157708Y213969D01*
X156747Y213571D01*
X155921Y212937D01*
X155287Y212112D01*
X154889Y211150D01*
X154753Y210118D01*
X154889Y209086D01*
X155287Y208125D01*
X155921Y207299D01*
X156747Y206665D01*
X157708Y206267D01*
X158740Y206131D01*
X159772Y206267D01*
X160734Y206665D01*
X161302Y207102D01*
X161750Y206880D01*
Y203356D01*
X161302Y203135D01*
X160734Y203571D01*
X159772Y203969D01*
X158740Y204105D01*
X157708Y203969D01*
X156747Y203571D01*
X155921Y202937D01*
X155287Y202112D01*
X154889Y201150D01*
X154753Y200118D01*
X154889Y199086D01*
X155287Y198125D01*
X155921Y197299D01*
X156747Y196666D01*
X157708Y196267D01*
X158740Y196131D01*
X159772Y196267D01*
X160734Y196666D01*
X161302Y197102D01*
X161750Y196880D01*
Y193356D01*
X161302Y193135D01*
X160734Y193571D01*
X159772Y193969D01*
X158740Y194105D01*
X157708Y193969D01*
X156747Y193571D01*
X155921Y192937D01*
X155287Y192112D01*
X154889Y191150D01*
X154753Y190118D01*
X154889Y189086D01*
X155287Y188125D01*
X155921Y187299D01*
X156747Y186665D01*
X157708Y186267D01*
X158740Y186131D01*
X159772Y186267D01*
X160734Y186665D01*
X161302Y187102D01*
X161750Y186880D01*
Y185291D01*
X160236Y183777D01*
X159772Y183969D01*
X158740Y184105D01*
X157708Y183969D01*
X156747Y183571D01*
X155921Y182937D01*
X155287Y182112D01*
X154889Y181150D01*
X154753Y180118D01*
X154889Y179086D01*
X155287Y178125D01*
X155921Y177299D01*
X156747Y176665D01*
X157708Y176267D01*
X158740Y176131D01*
X159772Y176267D01*
X160734Y176665D01*
X161559Y177299D01*
X162193Y178125D01*
X162591Y179086D01*
X162727Y180118D01*
X162591Y181150D01*
X162399Y181614D01*
X164361Y183576D01*
X164693Y184072D01*
X164712Y184170D01*
X164809Y184658D01*
Y214499D01*
X174213Y223903D01*
X197815D01*
X197976Y223429D01*
X197181Y222819D01*
X196547Y221993D01*
X196149Y221032D01*
X196013Y220000D01*
X196149Y218968D01*
X196547Y218007D01*
X197181Y217181D01*
X198006Y216547D01*
X198968Y216149D01*
X200000Y216013D01*
X201032Y216149D01*
X201993Y216547D01*
X202819Y217181D01*
X203453Y218007D01*
X203851Y218968D01*
X203987Y220000D01*
X203851Y221032D01*
X203453Y221993D01*
X202819Y222819D01*
X201993Y223453D01*
X201142Y223805D01*
X201142Y223805D01*
X201142D01*
X201032Y223851D01*
Y223851D01*
X201035Y223903D01*
X202180D01*
X202765Y224019D01*
X203261Y224351D01*
X205561Y226651D01*
X205893Y227147D01*
X206009Y227732D01*
Y233032D01*
X205893Y233617D01*
X205561Y234114D01*
X204061Y235614D01*
X203565Y235945D01*
X202980Y236062D01*
X202195D01*
X201993Y236547D01*
X202819Y237181D01*
X203453Y238007D01*
X203851Y238968D01*
X203987Y240000D01*
X203851Y241032D01*
X203453Y241993D01*
X202819Y242819D01*
X201993Y243453D01*
X201032Y243851D01*
X200000Y243987D01*
X198968Y243851D01*
X198006Y243453D01*
X197181Y242819D01*
X196547Y241993D01*
X196149Y241032D01*
X196013Y240000D01*
X196149Y238968D01*
X196547Y238007D01*
X197181Y237181D01*
X198006Y236547D01*
X197805Y236062D01*
X185813D01*
X173498Y248377D01*
X173807Y248770D01*
X174166Y248550D01*
X176029Y247778D01*
X177990Y247308D01*
X180000Y247149D01*
X182010Y247308D01*
X183971Y247778D01*
X185834Y248550D01*
X187553Y249604D01*
X189087Y250913D01*
X190396Y252447D01*
X191450Y254166D01*
X192222Y256029D01*
X192692Y257990D01*
X192851Y260000D01*
X192692Y262010D01*
X192222Y263971D01*
X191450Y265834D01*
X190396Y267553D01*
X189087Y269087D01*
X187553Y270396D01*
X185834Y271450D01*
X183971Y272222D01*
X182010Y272692D01*
X180000Y272851D01*
X177990Y272692D01*
X176029Y272222D01*
X174166Y271450D01*
X172447Y270396D01*
X170913Y269087D01*
X169604Y267553D01*
X168550Y265834D01*
X167778Y263971D01*
X167307Y262010D01*
X167149Y260000D01*
X167307Y257990D01*
X167778Y256029D01*
X168550Y254166D01*
X168770Y253807D01*
X168377Y253498D01*
X162789Y259086D01*
Y364465D01*
X163253Y364657D01*
X164079Y365291D01*
X164713Y366117D01*
X165111Y367078D01*
X165247Y368110D01*
X165111Y369142D01*
X164713Y370104D01*
X164079Y370929D01*
X163253Y371563D01*
X162292Y371961D01*
X161260Y372097D01*
D02*
G37*
%LPD*%
D10*
X74394Y191346D02*
Y201346D01*
Y181346D02*
Y191346D01*
X56205Y251007D02*
X72080Y235132D01*
X56205Y251007D02*
Y273832D01*
X56680Y274307D01*
Y351732D01*
X54680Y353732D02*
X56680Y351732D01*
X46724Y353732D02*
X54680D01*
X41732Y348740D02*
X46724Y353732D01*
D11*
X33680Y317193D02*
Y337632D01*
X33280Y316793D02*
X33680Y317193D01*
Y337632D02*
X39780Y343732D01*
X33280Y157280D02*
Y316793D01*
X5480Y139480D02*
X10000Y144000D01*
X5480Y121732D02*
Y139480D01*
Y121732D02*
X7680Y119532D01*
X12480D01*
X37280Y144332D01*
Y314287D01*
X41732Y318740D01*
X59480Y168512D02*
X63386Y164606D01*
X59480Y168512D02*
Y186432D01*
X64394Y191346D01*
X54685Y211055D02*
Y222047D01*
Y211055D02*
X64394Y201346D01*
X46780Y333788D02*
X51732Y338740D01*
X46780Y150780D02*
Y333788D01*
X10000Y114000D02*
X46780Y150780D01*
X10000Y134000D02*
X33280Y157280D01*
X39780Y343732D02*
X46724D01*
X51732Y348740D01*
X35880Y332888D02*
X41732Y338740D01*
X35880Y315793D02*
Y332888D01*
X35280Y315193D02*
X35880Y315793D01*
X35280Y149280D02*
Y315193D01*
X10000Y124000D02*
X35280Y149280D01*
X135880Y162979D02*
Y333232D01*
Y162979D02*
X158740Y140118D01*
Y120118D02*
X172598Y106260D01*
Y25354D02*
Y106260D01*
X102580Y256932D02*
Y362032D01*
Y256932D02*
X103280Y256232D01*
Y127732D02*
Y256232D01*
X101180Y125632D02*
X103280Y127732D01*
X95880Y125632D02*
X101180D01*
X94287Y124040D02*
X95880Y125632D01*
X94287Y114571D02*
Y124040D01*
Y114571D02*
X98740Y110118D01*
X214567Y350433D02*
Y367717D01*
Y350433D02*
X220118Y344882D01*
X110880Y127979D02*
Y256832D01*
Y127979D02*
X158740Y80118D01*
X49291Y60291D02*
X68197D01*
X39000Y50000D02*
X49291Y60291D01*
X174376Y17132D02*
X182598Y25354D01*
X160680Y17132D02*
X174376D01*
X158080Y19732D02*
X160680Y17132D01*
X158080Y19732D02*
Y42132D01*
X163193Y47245D01*
Y105665D01*
X158740Y110118D02*
X163193Y105665D01*
X158740Y150118D02*
X163193Y145665D01*
Y137732D02*
Y145665D01*
X161093Y135632D02*
X163193Y137732D01*
X156980Y135632D02*
X161093D01*
X154280Y132932D02*
X156980Y135632D01*
X154280Y127732D02*
Y132932D01*
Y127732D02*
X156380Y125632D01*
X168980D01*
X185880Y142532D01*
Y204632D01*
X143580Y172632D02*
Y305132D01*
Y172632D02*
X150680Y165532D01*
X160980D01*
X165193Y161319D01*
Y136571D02*
Y161319D01*
X158740Y130118D02*
X165193Y136571D01*
X105280Y126658D02*
Y322532D01*
X98740Y120118D02*
X105280Y126658D01*
X70079Y386260D02*
X94280Y362059D01*
Y129111D02*
Y362059D01*
X92287Y127118D02*
X94280Y129111D01*
X92287Y96571D02*
Y127118D01*
Y96571D02*
X98740Y90118D01*
X116535Y142323D02*
Y368110D01*
Y142323D02*
X158740Y100118D01*
X151260Y177599D02*
X158740Y170118D01*
X151260Y177599D02*
Y368110D01*
X161260Y258452D02*
Y368110D01*
Y258452D02*
X185180Y234532D01*
X202980D01*
X204480Y233032D01*
Y227732D02*
Y233032D01*
X202180Y225432D02*
X204480Y227732D01*
X173580Y225432D02*
X202180D01*
X163280Y215132D02*
X173580Y225432D01*
X163280Y184658D02*
Y215132D01*
X158740Y180118D02*
X163280Y184658D01*
X98740Y80118D02*
X103280Y75579D01*
Y16626D02*
Y75579D01*
X98032Y11378D02*
X103280Y16626D01*
X222047Y123268D02*
Y135827D01*
X69724Y386221D02*
X69882Y386063D01*
X70079Y385866D01*
Y386260D01*
X26378Y386221D02*
X69724D01*
X158740Y250118D02*
X165630D01*
X185748Y230000D01*
X200000D01*
D12*
X51732Y368740D02*
D03*
X41732Y358740D02*
D03*
X51732D02*
D03*
X41732Y348740D02*
D03*
X51732D02*
D03*
X41732Y338740D02*
D03*
X51732D02*
D03*
X41732Y328740D02*
D03*
X51732D02*
D03*
X41732Y318740D02*
D03*
X51732D02*
D03*
X41732Y308740D02*
D03*
X51732D02*
D03*
X41732Y298740D02*
D03*
X51732D02*
D03*
X41732Y288740D02*
D03*
X51732D02*
D03*
X227323Y25354D02*
D03*
X237323D02*
D03*
X25984Y278189D02*
D03*
Y268189D02*
D03*
X222441Y243858D02*
D03*
Y253858D02*
D03*
X106535Y368110D02*
D03*
X96535D02*
D03*
X68197Y86512D02*
D03*
Y46512D02*
D03*
X30000Y26000D02*
D03*
X139291Y25748D02*
D03*
X129291D02*
D03*
X26378Y366221D02*
D03*
Y376221D02*
D03*
X222047Y155827D02*
D03*
Y145827D02*
D03*
X194567Y367717D02*
D03*
X204567D02*
D03*
X172598Y25354D02*
D03*
X182598D02*
D03*
X192598D02*
D03*
X25984Y332913D02*
D03*
Y322913D02*
D03*
Y312913D02*
D03*
X222441Y189134D02*
D03*
Y199134D02*
D03*
Y209134D02*
D03*
X161260Y368110D02*
D03*
X151260D02*
D03*
X141260D02*
D03*
X158740Y60118D02*
D03*
Y70118D02*
D03*
Y80118D02*
D03*
Y90118D02*
D03*
Y100118D02*
D03*
Y110118D02*
D03*
Y120118D02*
D03*
Y130118D02*
D03*
Y140118D02*
D03*
Y150118D02*
D03*
Y160118D02*
D03*
Y170118D02*
D03*
Y180118D02*
D03*
Y190118D02*
D03*
Y200118D02*
D03*
Y210118D02*
D03*
Y220118D02*
D03*
Y230118D02*
D03*
Y240118D02*
D03*
Y250118D02*
D03*
X98740Y60118D02*
D03*
Y70118D02*
D03*
Y80118D02*
D03*
Y90118D02*
D03*
Y100118D02*
D03*
Y110118D02*
D03*
Y120118D02*
D03*
Y130118D02*
D03*
Y140118D02*
D03*
Y150118D02*
D03*
Y160118D02*
D03*
Y170118D02*
D03*
Y180118D02*
D03*
Y190118D02*
D03*
Y200118D02*
D03*
Y210118D02*
D03*
Y220118D02*
D03*
Y230118D02*
D03*
Y240118D02*
D03*
X200000Y250000D02*
D03*
Y240000D02*
D03*
Y230000D02*
D03*
Y220000D02*
D03*
Y210000D02*
D03*
Y130000D02*
D03*
Y140000D02*
D03*
Y150000D02*
D03*
Y160000D02*
D03*
Y170000D02*
D03*
X10000Y180000D02*
D03*
Y190000D02*
D03*
Y200000D02*
D03*
Y210000D02*
D03*
Y220000D02*
D03*
Y230000D02*
D03*
Y240000D02*
D03*
Y94000D02*
D03*
Y104000D02*
D03*
Y114000D02*
D03*
Y124000D02*
D03*
Y134000D02*
D03*
Y144000D02*
D03*
Y154000D02*
D03*
X74394Y181346D02*
D03*
X64394D02*
D03*
X74394Y191346D02*
D03*
X64394D02*
D03*
X74394Y201346D02*
D03*
D13*
X41732Y368740D02*
D03*
X25984Y288189D02*
D03*
X222441Y233858D02*
D03*
X68197Y100291D02*
D03*
Y60291D02*
D03*
X26378Y386221D02*
D03*
X222047Y135827D02*
D03*
X25984Y342913D02*
D03*
X222441Y179134D02*
D03*
X200000Y200000D02*
D03*
Y180000D02*
D03*
X10000Y250000D02*
D03*
Y164000D02*
D03*
X64394Y201346D02*
D03*
D14*
X236221Y370079D02*
D03*
Y287402D02*
D03*
D15*
X217323Y25354D02*
D03*
X116535Y368110D02*
D03*
X20000Y26000D02*
D03*
X119291Y25748D02*
D03*
X214567Y367717D02*
D03*
X162598Y25354D02*
D03*
X171260Y368110D02*
D03*
X98740Y250118D02*
D03*
D16*
X70000Y260000D02*
D03*
X180000D02*
D03*
X200000Y55000D02*
D03*
X10000Y60000D02*
D03*
D17*
X58197Y121402D02*
D03*
X78197D02*
D03*
X59000Y26000D02*
D03*
X79000D02*
D03*
D18*
X98032Y11378D02*
D03*
Y41378D02*
D03*
X70079Y386260D02*
D03*
Y356260D02*
D03*
X222047Y123268D02*
D03*
Y93268D02*
D03*
X220118Y344882D02*
D03*
X190118D02*
D03*
X63386Y164606D02*
D03*
Y134606D02*
D03*
X74409Y164606D02*
D03*
Y134606D02*
D03*
X84685Y222047D02*
D03*
X54685D02*
D03*
D19*
X39000Y70000D02*
D03*
Y60000D02*
D03*
D20*
Y50000D02*
D03*
D21*
X135880Y333232D02*
D03*
X102580Y362032D02*
D03*
X72080Y235132D02*
D03*
X110880Y256832D02*
D03*
X185880Y204632D02*
D03*
X143580Y305132D02*
D03*
X105280Y322532D02*
D03*
M02*
