M48
;Layer_Color=9474304
;FILE_FORMAT=2:5
INCH,LZ
;TYPE=PLATED
T1F00S00C0.01181
T2F00S00C0.03346
T3F00S00C0.03543
T4F00S00C0.03937
T5F00S00C0.09843
T6F00S00C0.12000
%
T01
X018588Y0204632
X011088Y0256832
X007208Y0235132
X010528Y0322532
X013588Y0333232
X014358Y0305132
X010258Y0362032
T02
X0098032Y0011378
Y0041378
X0222047Y0093268
Y0123268
X0074409Y0134606
X0063386
Y0164606
X0074409
X0084685Y0222047
X0054685
X0070079Y035626
X0190118Y0344882
X0220118
X0070079Y038626
T03
X002Y0026
X003
X0068197Y0046512
Y0060291
X009874Y0060118
Y0070118
X015874
Y0060118
X0162598Y0025354
X0172598
X0182598
X0192598
X0139291Y0025748
X0129291
X0119291
X0217323Y0025354
X0227323
X0237323
X0222047Y0135827
Y0145827
Y0155827
X0222441Y0179134
Y0189134
Y0199134
Y0209134
X02Y021
Y022
Y02
Y018
Y017
Y016
Y015
Y014
Y013
X015874Y0130118
Y0120118
Y0110118
Y0100118
Y0090118
Y0080118
Y0140118
Y0150118
Y0160118
Y0170118
Y0180118
Y0190118
Y0200118
Y0210118
Y0220118
X009874
Y0210118
Y0200118
Y0190118
Y0180118
Y0170118
Y0160118
Y0150118
Y0140118
Y0130118
Y0120118
Y0110118
Y0100118
Y0090118
Y0080118
X0068197Y0086512
Y0100291
X0064394Y0181346
X0074394
Y0191346
X0064394
Y0201346
X0074394
X001Y02
Y019
Y018
Y0164
Y0154
Y0144
Y0134
Y0124
Y0114
Y0104
Y0094
Y021
Y022
Y023
Y024
Y025
X0025984Y0268189
Y0278189
Y0288189
X0041732Y028874
Y029874
Y030874
Y031874
Y032874
Y033874
Y034874
Y035874
Y036874
X0026378Y0366221
Y0376221
X0025984Y0342913
Y0332913
Y0322913
Y0312913
X0051732Y030874
Y031874
Y032874
Y033874
Y034874
Y035874
Y036874
X0096535Y036811
X0106535
X0116535
X014126
X015126
X016126
X017126
X0194567Y0367717
X015874Y0250118
Y0240118
Y0230118
X009874
Y0240118
Y0250118
X0051732Y028874
Y029874
X02Y025
Y024
Y023
X0222441Y0233858
Y0243858
Y0253858
X0214567Y0367717
X0204567
X0026378Y0386221
T04
X0039Y005
Y006
Y007
X0059Y0026
X0079
X0078197Y0121402
X0058197
T05
X0236221Y0287402
Y0370079
T06
X001Y006
X02Y0055
X018Y026
X007
M30
