%FSLAX25Y25*%
%MOIN*%
G70*
G01*
G75*
G04 Layer_Color=8388736*
%ADD10C,0.01969*%
%ADD11C,0.01000*%
%ADD12C,0.05906*%
%ADD13R,0.05906X0.05906*%
%ADD14C,0.11811*%
%ADD15R,0.05906X0.05906*%
%ADD16C,0.23622*%
%ADD17C,0.06496*%
%ADD18C,0.05512*%
%ADD19C,0.06299*%
%ADD20R,0.06299X0.06299*%
%ADD21C,0.02362*%
%ADD22C,0.19685*%
%ADD23C,0.00787*%
%ADD24C,0.02362*%
%ADD25C,0.00984*%
%ADD26C,0.00500*%
%ADD27C,0.00591*%
%ADD28C,0.00600*%
%ADD29C,0.00800*%
%ADD30C,0.06706*%
%ADD31R,0.06706X0.06706*%
%ADD32C,0.12611*%
%ADD33R,0.06706X0.06706*%
%ADD34C,0.24422*%
%ADD35C,0.07296*%
%ADD36C,0.06312*%
%ADD37C,0.07099*%
%ADD38R,0.07099X0.07099*%
%ADD39C,0.03162*%
D30*
X51732Y368740D02*
D03*
X41732Y358740D02*
D03*
X51732D02*
D03*
X41732Y348740D02*
D03*
X51732D02*
D03*
X41732Y338740D02*
D03*
X51732D02*
D03*
X41732Y328740D02*
D03*
X51732D02*
D03*
X41732Y318740D02*
D03*
X51732D02*
D03*
X41732Y308740D02*
D03*
X51732D02*
D03*
X41732Y298740D02*
D03*
X51732D02*
D03*
X41732Y288740D02*
D03*
X51732D02*
D03*
X227323Y25354D02*
D03*
X237323D02*
D03*
X25984Y278189D02*
D03*
Y268189D02*
D03*
X222441Y243858D02*
D03*
Y253858D02*
D03*
X106535Y368110D02*
D03*
X96535D02*
D03*
X68197Y86512D02*
D03*
Y46512D02*
D03*
X30000Y26000D02*
D03*
X139291Y25748D02*
D03*
X129291D02*
D03*
X26378Y366221D02*
D03*
Y376221D02*
D03*
X222047Y155827D02*
D03*
Y145827D02*
D03*
X194567Y367717D02*
D03*
X204567D02*
D03*
X172598Y25354D02*
D03*
X182598D02*
D03*
X192598D02*
D03*
X25984Y332913D02*
D03*
Y322913D02*
D03*
Y312913D02*
D03*
X222441Y189134D02*
D03*
Y199134D02*
D03*
Y209134D02*
D03*
X161260Y368110D02*
D03*
X151260D02*
D03*
X141260D02*
D03*
X158740Y60118D02*
D03*
Y70118D02*
D03*
Y80118D02*
D03*
Y90118D02*
D03*
Y100118D02*
D03*
Y110118D02*
D03*
Y120118D02*
D03*
Y130118D02*
D03*
Y140118D02*
D03*
Y150118D02*
D03*
Y160118D02*
D03*
Y170118D02*
D03*
Y180118D02*
D03*
Y190118D02*
D03*
Y200118D02*
D03*
Y210118D02*
D03*
Y220118D02*
D03*
Y230118D02*
D03*
Y240118D02*
D03*
Y250118D02*
D03*
X98740Y60118D02*
D03*
Y70118D02*
D03*
Y80118D02*
D03*
Y90118D02*
D03*
Y100118D02*
D03*
Y110118D02*
D03*
Y120118D02*
D03*
Y130118D02*
D03*
Y140118D02*
D03*
Y150118D02*
D03*
Y160118D02*
D03*
Y170118D02*
D03*
Y180118D02*
D03*
Y190118D02*
D03*
Y200118D02*
D03*
Y210118D02*
D03*
Y220118D02*
D03*
Y230118D02*
D03*
Y240118D02*
D03*
X200000Y250000D02*
D03*
Y240000D02*
D03*
Y230000D02*
D03*
Y220000D02*
D03*
Y210000D02*
D03*
Y130000D02*
D03*
Y140000D02*
D03*
Y150000D02*
D03*
Y160000D02*
D03*
Y170000D02*
D03*
X10000Y180000D02*
D03*
Y190000D02*
D03*
Y200000D02*
D03*
Y210000D02*
D03*
Y220000D02*
D03*
Y230000D02*
D03*
Y240000D02*
D03*
Y94000D02*
D03*
Y104000D02*
D03*
Y114000D02*
D03*
Y124000D02*
D03*
Y134000D02*
D03*
Y144000D02*
D03*
Y154000D02*
D03*
X74394Y181346D02*
D03*
X64394D02*
D03*
X74394Y191346D02*
D03*
X64394D02*
D03*
X74394Y201346D02*
D03*
D31*
X41732Y368740D02*
D03*
X25984Y288189D02*
D03*
X222441Y233858D02*
D03*
X68197Y100291D02*
D03*
Y60291D02*
D03*
X26378Y386221D02*
D03*
X222047Y135827D02*
D03*
X25984Y342913D02*
D03*
X222441Y179134D02*
D03*
X200000Y200000D02*
D03*
Y180000D02*
D03*
X10000Y250000D02*
D03*
Y164000D02*
D03*
X64394Y201346D02*
D03*
D32*
X236221Y370079D02*
D03*
Y287402D02*
D03*
D33*
X217323Y25354D02*
D03*
X116535Y368110D02*
D03*
X20000Y26000D02*
D03*
X119291Y25748D02*
D03*
X214567Y367717D02*
D03*
X162598Y25354D02*
D03*
X171260Y368110D02*
D03*
X98740Y250118D02*
D03*
D34*
X70000Y260000D02*
D03*
X180000D02*
D03*
X200000Y55000D02*
D03*
X10000Y60000D02*
D03*
D35*
X58197Y121402D02*
D03*
X78197D02*
D03*
X59000Y26000D02*
D03*
X79000D02*
D03*
D36*
X98032Y11378D02*
D03*
Y41378D02*
D03*
X70079Y386260D02*
D03*
Y356260D02*
D03*
X222047Y123268D02*
D03*
Y93268D02*
D03*
X220118Y344882D02*
D03*
X190118D02*
D03*
X63386Y164606D02*
D03*
Y134606D02*
D03*
X74409Y164606D02*
D03*
Y134606D02*
D03*
X84685Y222047D02*
D03*
X54685D02*
D03*
D37*
X39000Y70000D02*
D03*
Y60000D02*
D03*
D38*
Y50000D02*
D03*
D39*
X135880Y333232D02*
D03*
X102580Y362032D02*
D03*
X72080Y235132D02*
D03*
X110880Y256832D02*
D03*
X185880Y204632D02*
D03*
X143580Y305132D02*
D03*
X105280Y322532D02*
D03*
M02*
