<?xml version="1.0" encoding="utf-8"?>
<!-- Generator: Adobe Illustrator 13.0.0, SVG Export Plug-In . SVG Version: 6.00 Build 14948)  -->
<svg version="1.2" baseProfile="tiny" id="Schematic" xmlns:xml="http://www.w3.org/XML/1998/namespace"
	 xmlns="http://www.w3.org/2000/svg" xmlns:xlink="http://www.w3.org/1999/xlink" x="0px" y="0px" width="254.637px"
	 height="261.104px" viewBox="1.75 0.067 254.637 261.104" xml:space="preserve">
<g>
	<text transform="matrix(1 0 0 1 85.8669 93.6121)" font-family="'DroidSans'" font-size="18">Part Name </text>
	<text transform="matrix(1 0 0 1 168.4543 122.8406)" font-family="'DroidSans'" font-size="10">Pin Label</text>
	<text transform="matrix(1 0 0 1 168.4543 144.0984)" font-family="'DroidSans'" font-size="10">Pin Label</text>
	<text transform="matrix(-4.371139e-08 -1 1 -4.371139e-08 163.136 152.0769)" font-family="'DroidSans'" font-size="10">Pin Group</text>
	<g>
		<g>
			
				<line fill="none" stroke="#000000" stroke-width="2.4" stroke-linecap="round" stroke-linejoin="round" x1="216.138" y1="141.451" x2="237.398" y2="141.451"/>
		</g>
		<g>
			
				<line fill="none" stroke="#000000" stroke-width="2.4" stroke-linecap="round" stroke-linejoin="round" x1="216.138" y1="120.194" x2="237.398" y2="120.194"/>
		</g>
	</g>
	<g>
		<g>
			
				<line fill="none" stroke="#000000" stroke-width="2.4" stroke-linecap="round" stroke-linejoin="round" x1="119.336" y1="216.986" x2="119.336" y2="238.249"/>
			<text transform="matrix(-4.371139e-08 1 -1 -4.371139e-08 124.6516 219.6492)" font-family="'DroidSans'" font-size="7">p</text>
			<text transform="matrix(-4.371139e-08 1 -1 -4.371139e-08 124.6516 223.7507)" font-family="'DroidSans'" font-size="7">i</text>
			<text transform="matrix(-4.371139e-08 1 -1 -4.371139e-08 124.6516 225.5613)" font-family="'DroidSans'" font-size="7">n</text>
			<text transform="matrix(-4.371139e-08 1 -1 -4.371139e-08 124.6516 231.5027)" font-family="'DroidSans'" font-size="7">c</text>
			<text transform="matrix(-4.371139e-08 1 -1 -4.371139e-08 124.6516 234.7429)" font-family="'DroidSans'" font-size="7">h</text>
			<text transform="matrix(-4.371139e-08 1 -1 -4.371139e-08 124.6516 238.864)" font-family="'DroidSans'" font-size="7">a</text>
			<text transform="matrix(-4.371139e-08 1 -1 -4.371139e-08 124.6516 242.5789)" font-family="'DroidSans'" font-size="7">r</text>
			<text transform="matrix(-4.371139e-08 1 -1 -4.371139e-08 124.6516 245.3035)" font-family="'DroidSans'" font-size="7">a</text>
			<text transform="matrix(-4.371139e-08 1 -1 -4.371139e-08 124.6516 249.0183)" font-family="'DroidSans'" font-size="7">c</text>
			<text transform="matrix(-4.371139e-08 1 -1 -4.371139e-08 124.6516 252.2585)" font-family="'DroidSans'" font-size="7">t</text>
			<text transform="matrix(-4.371139e-08 1 -1 -4.371139e-08 124.6516 254.6316)" font-family="'DroidSans'" font-size="7">e</text>
			<text transform="matrix(-4.371139e-08 1 -1 -4.371139e-08 124.6516 258.3777)" font-family="'DroidSans'" font-size="7">r</text>
		</g>
		<g>
			
				<line fill="none" stroke="#000000" stroke-width="2.4" stroke-linecap="round" stroke-linejoin="round" x1="140.599" y1="216.986" x2="140.599" y2="238.249"/>
			<text transform="matrix(-4.371139e-08 1 -1 -4.371139e-08 145.9133 219.6492)" font-family="'DroidSans'" font-size="7">p</text>
			<text transform="matrix(-4.371139e-08 1 -1 -4.371139e-08 145.9133 223.7507)" font-family="'DroidSans'" font-size="7">i</text>
			<text transform="matrix(-4.371139e-08 1 -1 -4.371139e-08 145.9133 225.5613)" font-family="'DroidSans'" font-size="7">n</text>
			<text transform="matrix(-4.371139e-08 1 -1 -4.371139e-08 145.9133 231.5027)" font-family="'DroidSans'" font-size="7">c</text>
			<text transform="matrix(-4.371139e-08 1 -1 -4.371139e-08 145.9133 234.7429)" font-family="'DroidSans'" font-size="7">h</text>
			<text transform="matrix(-4.371139e-08 1 -1 -4.371139e-08 145.9133 238.864)" font-family="'DroidSans'" font-size="7">a</text>
			<text transform="matrix(-4.371139e-08 1 -1 -4.371139e-08 145.9133 242.5789)" font-family="'DroidSans'" font-size="7">r</text>
			<text transform="matrix(-4.371139e-08 1 -1 -4.371139e-08 145.9133 245.3035)" font-family="'DroidSans'" font-size="7">a</text>
			<text transform="matrix(-4.371139e-08 1 -1 -4.371139e-08 145.9133 249.0183)" font-family="'DroidSans'" font-size="7">c</text>
			<text transform="matrix(-4.371139e-08 1 -1 -4.371139e-08 145.9133 252.2585)" font-family="'DroidSans'" font-size="7">t</text>
			<text transform="matrix(-4.371139e-08 1 -1 -4.371139e-08 145.9133 254.6316)" font-family="'DroidSans'" font-size="7">e</text>
			<text transform="matrix(-4.371139e-08 1 -1 -4.371139e-08 145.9133 258.3777)" font-family="'DroidSans'" font-size="7">r</text>
		</g>
	</g>
	<g>
		
			<line fill="none" stroke="#000000" stroke-width="2.4" stroke-linecap="round" stroke-linejoin="round" x1="23.664" y1="141.455" x2="44.927" y2="141.455"/>
		<text transform="matrix(1 0 0 1 -0.2498 136.1345)" font-family="'DroidSans'" font-size="7">p</text>
		<text transform="matrix(1 0 0 1 3.8508 136.1345)" font-family="'DroidSans'" font-size="7">i</text>
		<text transform="matrix(1 0 0 1 5.6624 136.1345)" font-family="'DroidSans'" font-size="7">n</text>
		<text transform="matrix(1 0 0 1 11.6038 136.1345)" font-family="'DroidSans'" font-size="7">c</text>
		<text transform="matrix(1 0 0 1 14.843 136.1345)" font-family="'DroidSans'" font-size="7">h</text>
		<text transform="matrix(1 0 0 1 18.9651 136.1345)" font-family="'DroidSans'" font-size="7">a</text>
		<text transform="matrix(1 0 0 1 22.6794 136.1345)" font-family="'DroidSans'" font-size="7">r</text>
		<text transform="matrix(1 0 0 1 25.4045 136.1345)" font-family="'DroidSans'" font-size="7">a</text>
		<text transform="matrix(1 0 0 1 29.1194 136.1345)" font-family="'DroidSans'" font-size="7">c</text>
		<text transform="matrix(1 0 0 1 32.3586 136.1345)" font-family="'DroidSans'" font-size="7">t</text>
		<text transform="matrix(1 0 0 1 34.7327 136.1345)" font-family="'DroidSans'" font-size="7">e</text>
		<text transform="matrix(1 0 0 1 38.4788 136.1345)" font-family="'DroidSans'" font-size="7">r</text>
		
			<line fill="none" stroke="#000000" stroke-width="2.4" stroke-linecap="round" stroke-linejoin="round" x1="23.664" y1="120.194" x2="44.927" y2="120.194"/>
		<text transform="matrix(1 0 0 1 -0.2498 114.8718)" font-family="'DroidSans'" font-size="7">p</text>
		<text transform="matrix(1 0 0 1 3.8508 114.8718)" font-family="'DroidSans'" font-size="7">i</text>
		<text transform="matrix(1 0 0 1 5.6624 114.8718)" font-family="'DroidSans'" font-size="7">n</text>
		<text transform="matrix(1 0 0 1 11.6038 114.8718)" font-family="'DroidSans'" font-size="7">c</text>
		<text transform="matrix(1 0 0 1 14.843 114.8718)" font-family="'DroidSans'" font-size="7">h</text>
		<text transform="matrix(1 0 0 1 18.9651 114.8718)" font-family="'DroidSans'" font-size="7">a</text>
		<text transform="matrix(1 0 0 1 22.6794 114.8718)" font-family="'DroidSans'" font-size="7">r</text>
		<text transform="matrix(1 0 0 1 25.4045 114.8718)" font-family="'DroidSans'" font-size="7">a</text>
		<text transform="matrix(1 0 0 1 29.1194 114.8718)" font-family="'DroidSans'" font-size="7">c</text>
		<text transform="matrix(1 0 0 1 32.3586 114.8718)" font-family="'DroidSans'" font-size="7">t</text>
		<text transform="matrix(1 0 0 1 34.7327 114.8718)" font-family="'DroidSans'" font-size="7">e</text>
		<text transform="matrix(1 0 0 1 38.4788 114.8718)" font-family="'DroidSans'" font-size="7">r</text>
	</g>
	
		<rect x="44.927" y="46.052" fill="none" stroke="#000000" stroke-width="2.4" stroke-linecap="round" stroke-linejoin="round" width="170.701" height="170.698"/>
	<g>
		<g>
			
				<line fill="none" stroke="#000000" stroke-width="2.4" stroke-linecap="round" stroke-linejoin="round" x1="140.597" y1="44.249" x2="140.597" y2="22.987"/>
			<text transform="matrix(-4.371139e-08 -1 1 -4.371139e-08 135.2815 41.5881)" font-family="'DroidSans'" font-size="7">p</text>
			<text transform="matrix(-4.371139e-08 -1 1 -4.371139e-08 135.2815 37.4866)" font-family="'DroidSans'" font-size="7">i</text>
			<text transform="matrix(-4.371139e-08 -1 1 -4.371139e-08 135.2815 35.676)" font-family="'DroidSans'" font-size="7">n</text>
			<text transform="matrix(-4.371139e-08 -1 1 -4.371139e-08 135.2815 29.7346)" font-family="'DroidSans'" font-size="7">c</text>
			<text transform="matrix(-4.371139e-08 -1 1 -4.371139e-08 135.2815 26.4944)" font-family="'DroidSans'" font-size="7">h</text>
			<text transform="matrix(-4.371139e-08 -1 1 -4.371139e-08 135.2815 22.3733)" font-family="'DroidSans'" font-size="7">a</text>
			<text transform="matrix(-4.371139e-08 -1 1 -4.371139e-08 135.2815 18.6584)" font-family="'DroidSans'" font-size="7">r</text>
			<text transform="matrix(-4.371139e-08 -1 1 -4.371139e-08 135.2815 15.9338)" font-family="'DroidSans'" font-size="7">a</text>
			<text transform="matrix(-4.371139e-08 -1 1 -4.371139e-08 135.2815 12.219)" font-family="'DroidSans'" font-size="7">c</text>
			<text transform="matrix(-4.371139e-08 -1 1 -4.371139e-08 135.2815 8.9788)" font-family="'DroidSans'" font-size="7">t</text>
			<text transform="matrix(-4.371139e-08 -1 1 -4.371139e-08 135.2815 6.6057)" font-family="'DroidSans'" font-size="7">e</text>
			<text transform="matrix(-4.371139e-08 -1 1 -4.371139e-08 135.2815 2.8596)" font-family="'DroidSans'" font-size="7">r</text>
		</g>
		<g>
			
				<line fill="none" stroke="#000000" stroke-width="2.4" stroke-linecap="round" stroke-linejoin="round" x1="119.334" y1="44.249" x2="119.334" y2="22.987"/>
			<text transform="matrix(-4.371139e-08 -1 1 -4.371139e-08 114.0188 41.5881)" font-family="'DroidSans'" font-size="7">p</text>
			<text transform="matrix(-4.371139e-08 -1 1 -4.371139e-08 114.0188 37.4866)" font-family="'DroidSans'" font-size="7">i</text>
			<text transform="matrix(-4.371139e-08 -1 1 -4.371139e-08 114.0188 35.676)" font-family="'DroidSans'" font-size="7">n</text>
			<text transform="matrix(-4.371139e-08 -1 1 -4.371139e-08 114.0188 29.7346)" font-family="'DroidSans'" font-size="7">c</text>
			<text transform="matrix(-4.371139e-08 -1 1 -4.371139e-08 114.0188 26.4944)" font-family="'DroidSans'" font-size="7">h</text>
			<text transform="matrix(-4.371139e-08 -1 1 -4.371139e-08 114.0188 22.3733)" font-family="'DroidSans'" font-size="7">a</text>
			<text transform="matrix(-4.371139e-08 -1 1 -4.371139e-08 114.0188 18.6584)" font-family="'DroidSans'" font-size="7">r</text>
			<text transform="matrix(-4.371139e-08 -1 1 -4.371139e-08 114.0188 15.9338)" font-family="'DroidSans'" font-size="7">a</text>
			<text transform="matrix(-4.371139e-08 -1 1 -4.371139e-08 114.0188 12.219)" font-family="'DroidSans'" font-size="7">c</text>
			<text transform="matrix(-4.371139e-08 -1 1 -4.371139e-08 114.0188 8.9788)" font-family="'DroidSans'" font-size="7">t</text>
			<text transform="matrix(-4.371139e-08 -1 1 -4.371139e-08 114.0188 6.6057)" font-family="'DroidSans'" font-size="7">e</text>
			<text transform="matrix(-4.371139e-08 -1 1 -4.371139e-08 114.0188 2.8596)" font-family="'DroidSans'" font-size="7">r</text>
		</g>
	</g>
	<g>
		<g>
			<line fill="none" stroke="#EC1C24" stroke-width="2" x1="218.664" y1="111.484" x2="218.664" y2="116.609"/>
			<line fill="none" stroke="#EC1C24" stroke-width="2" x1="239.924" y1="111.484" x2="239.924" y2="116.609"/>
			<line fill="none" stroke="#EC1C24" stroke-width="2" x1="218.664" y1="114.052" x2="239.924" y2="114.052"/>
		</g>
		<text transform="matrix(1 0 0 1 220.3967 108.6355)" fill="#BE1E2D" font-family="'MyriadPro-Regular'" font-size="7">7,5 mm</text>
	</g>
	<g>
		<g>
			<line fill="none" stroke="#EC1C24" stroke-width="2" x1="245.677" y1="120.206" x2="240.552" y2="120.206"/>
			<line fill="none" stroke="#EC1C24" stroke-width="2" x1="245.677" y1="141.471" x2="240.552" y2="141.471"/>
			<line fill="none" stroke="#EC1C24" stroke-width="2" x1="243.117" y1="120.206" x2="243.117" y2="141.471"/>
		</g>
		
			<text transform="matrix(-4.371139e-08 1 -1 -4.371139e-08 248.5266 119.9397)" fill="#BE1E2D" font-family="'MyriadPro-Regular'" font-size="7">7,5 mm</text>
	</g>
</g>
</svg>
