<?xml version="1.0" encoding="UTF-8" standalone="no"?>
<svg
   xmlns:dc="http://purl.org/dc/elements/1.1/"
   xmlns:cc="http://creativecommons.org/ns#"
   xmlns:rdf="http://www.w3.org/1999/02/22-rdf-syntax-ns#"
   xmlns:svg="http://www.w3.org/2000/svg"
   xmlns="http://www.w3.org/2000/svg"
   xmlns:sodipodi="http://sodipodi.sourceforge.net/DTD/sodipodi-0.dtd"
   xmlns:inkscape="http://www.inkscape.org/namespaces/inkscape"
   height="82.799995"
   version="1.2"
   viewBox="0 0 253.50515 919.99998"
   width="22.815464"
   id="svg13398"
   inkscape:version="0.48.0 r9654"
   sodipodi:docname="RFC-1100A_pcb_plain.svg">
  <metadata
     id="metadata13433">
    <rdf:RDF>
      <cc:Work
         rdf:about="">
        <dc:format>image/svg+xml</dc:format>
        <dc:type
           rdf:resource="http://purl.org/dc/dcmitype/StillImage" />
        <dc:title></dc:title>
      </cc:Work>
    </rdf:RDF>
  </metadata>
  <defs
     id="defs13431" />
  <sodipodi:namedview
     pagecolor="#ffffff"
     bordercolor="#666666"
     borderopacity="1"
     objecttolerance="10"
     gridtolerance="10"
     guidetolerance="10"
     inkscape:pageopacity="0"
     inkscape:pageshadow="2"
     inkscape:window-width="1512"
     inkscape:window-height="878"
     id="namedview13429"
     showgrid="false"
     inkscape:zoom="4.1606281"
     inkscape:cx="22.01766"
     inkscape:cy="17.480917"
     inkscape:window-x="80"
     inkscape:window-y="-8"
     inkscape:window-maximized="1"
     inkscape:current-layer="svg13398"
     fit-margin-top="0"
     fit-margin-left="0"
     fit-margin-right="0"
     fit-margin-bottom="0"
     units="cm" />
  <desc
     id="desc13400">Fritzing footprint SVG</desc>
  <g
     id="keepout"
     transform="translate(-10.000003,-11.617021)" />
  <g
     id="soldermask"
     transform="translate(-10.000003,-11.617021)" />
  <g
     id="outline"
     transform="translate(-10.000003,-11.617021)" />
  <g
     id="copper0-7"
     transform="matrix(-1,0,0,-1,153.44548,939.14598)">
    <rect
       style="fill:none;stroke:#ffbf00;stroke-width:20"
       id="rect13415-6"
       y="42.5"
       x="42.5"
       width="55"
       height="55" />
    <circle
       d="M 97.5,70 C 97.5,85.187831 85.187831,97.5 70,97.5 54.812169,97.5 42.5,85.187831 42.5,70 42.5,54.812169 54.812169,42.5 70,42.5 85.187831,42.5 97.5,54.812169 97.5,70 z"
       style="fill:none;stroke:#ffbf00;stroke-width:20"
       sodipodi:ry="27.5"
       sodipodi:rx="27.5"
       sodipodi:cy="70"
       sodipodi:cx="70"
       r="27.5"
       id="connector0pin-9"
       cy="70"
       cx="70" />
    <circle
       d="m 97.5,170 c 0,15.18783 -12.312169,27.5 -27.5,27.5 -15.187831,0 -27.5,-12.31217 -27.5,-27.5 0,-15.18783 12.312169,-27.5 27.5,-27.5 15.187831,0 27.5,12.31217 27.5,27.5 z"
       style="fill:none;stroke:#ffbf00;stroke-width:20"
       sodipodi:ry="27.5"
       sodipodi:rx="27.5"
       sodipodi:cy="170"
       sodipodi:cx="70"
       r="27.5"
       id="connector1pin-4"
       cy="170"
       cx="70" />
    <circle
       d="m 97.5,270 c 0,15.18783 -12.312169,27.5 -27.5,27.5 -15.187831,0 -27.5,-12.31217 -27.5,-27.5 0,-15.18783 12.312169,-27.5 27.5,-27.5 15.187831,0 27.5,12.31217 27.5,27.5 z"
       style="fill:none;stroke:#ffbf00;stroke-width:20"
       sodipodi:ry="27.5"
       sodipodi:rx="27.5"
       sodipodi:cy="270"
       sodipodi:cx="70"
       r="27.5"
       id="connector2pin-4"
       cy="270"
       cx="70" />
    <circle
       d="m 97.5,370 c 0,15.18783 -12.312169,27.5 -27.5,27.5 -15.187831,0 -27.5,-12.31217 -27.5,-27.5 0,-15.18783 12.312169,-27.5 27.5,-27.5 15.187831,0 27.5,12.31217 27.5,27.5 z"
       style="fill:none;stroke:#ffbf00;stroke-width:20"
       sodipodi:ry="27.5"
       sodipodi:rx="27.5"
       sodipodi:cy="370"
       sodipodi:cx="70"
       r="27.5"
       id="connector3pin-4"
       cy="370"
       cx="70" />
    <circle
       d="m 97.5,470 c 0,15.18783 -12.312169,27.5 -27.5,27.5 -15.187831,0 -27.5,-12.31217 -27.5,-27.5 0,-15.18783 12.312169,-27.5 27.5,-27.5 15.187831,0 27.5,12.31217 27.5,27.5 z"
       style="fill:none;stroke:#ffbf00;stroke-width:20"
       sodipodi:ry="27.5"
       sodipodi:rx="27.5"
       sodipodi:cy="470"
       sodipodi:cx="70"
       r="27.5"
       id="connector4pin-1"
       cy="470"
       cx="70" />
    <circle
       d="m 97.5,570 c 0,15.18783 -12.312169,27.5 -27.5,27.5 -15.187831,0 -27.5,-12.31217 -27.5,-27.5 0,-15.18783 12.312169,-27.5 27.5,-27.5 15.187831,0 27.5,12.31217 27.5,27.5 z"
       style="fill:none;stroke:#ffbf00;stroke-width:20"
       sodipodi:ry="27.5"
       sodipodi:rx="27.5"
       sodipodi:cy="570"
       sodipodi:cx="70"
       r="27.5"
       id="connector5pin-6"
       cy="570"
       cx="70" />
    <circle
       d="m 97.5,670 c 0,15.18783 -12.312169,27.5 -27.5,27.5 -15.187831,0 -27.5,-12.31217 -27.5,-27.5 0,-15.18783 12.312169,-27.5 27.5,-27.5 15.187831,0 27.5,12.31217 27.5,27.5 z"
       style="fill:none;stroke:#ffbf00;stroke-width:20"
       sodipodi:ry="27.5"
       sodipodi:rx="27.5"
       sodipodi:cy="670"
       sodipodi:cx="70"
       r="27.5"
       id="connector6pin-0"
       cy="670"
       cx="70" />
    <circle
       d="m 97.5,770 c 0,15.18783 -12.312169,27.5 -27.5,27.5 -15.187831,0 -27.5,-12.31217 -27.5,-27.5 0,-15.18783 12.312169,-27.5 27.5,-27.5 15.187831,0 27.5,12.31217 27.5,27.5 z"
       style="fill:none;stroke:#ffbf00;stroke-width:20"
       sodipodi:ry="27.5"
       sodipodi:rx="27.5"
       sodipodi:cy="770"
       sodipodi:cx="70"
       r="27.5"
       id="connector7pin-7"
       cy="770"
       cx="70" />
    <circle
       d="m 97.5,870 c 0,15.18783 -12.312169,27.5 -27.5,27.5 -15.187831,0 -27.5,-12.31217 -27.5,-27.5 0,-15.18783 12.312169,-27.5 27.5,-27.5 15.187831,0 27.5,12.31217 27.5,27.5 z"
       style="fill:none;stroke:#ffbf00;stroke-width:20"
       sodipodi:ry="27.5"
       sodipodi:rx="27.5"
       sodipodi:cy="870"
       sodipodi:cx="70"
       r="27.5"
       id="connector8pin-6"
       cy="870"
       cx="70" />
  </g>
  <g
     id="g13643"
     transform="translate(0,-0.00202085)">
    <rect
       transform="scale(-1,-1)"
       style="fill:none;stroke:#ffbf00;stroke-width:20"
       id="rect13415"
       y="-896.64734"
       x="-199.66255"
       width="55"
       height="55" />
    <circle
       transform="matrix(-1,0,0,-1,242.16255,939.14731)"
       d="M 97.5,70 C 97.5,85.187831 85.187831,97.5 70,97.5 54.812169,97.5 42.5,85.187831 42.5,70 42.5,54.812169 54.812169,42.5 70,42.5 85.187831,42.5 97.5,54.812169 97.5,70 z"
       style="fill:none;stroke:#ffbf00;stroke-width:20"
       sodipodi:ry="27.5"
       sodipodi:rx="27.5"
       sodipodi:cy="70"
       sodipodi:cx="70"
       r="27.5"
       id="connector0pin"
       cy="70"
       cx="70" />
    <circle
       transform="matrix(-1,0,0,-1,242.16255,939.14731)"
       d="m 97.5,170 c 0,15.18783 -12.312169,27.5 -27.5,27.5 -15.187831,0 -27.5,-12.31217 -27.5,-27.5 0,-15.18783 12.312169,-27.5 27.5,-27.5 15.187831,0 27.5,12.31217 27.5,27.5 z"
       style="fill:none;stroke:#ffbf00;stroke-width:20"
       sodipodi:ry="27.5"
       sodipodi:rx="27.5"
       sodipodi:cy="170"
       sodipodi:cx="70"
       r="27.5"
       id="connector1pin"
       cy="170"
       cx="70" />
    <circle
       transform="matrix(-1,0,0,-1,242.16255,939.14731)"
       d="m 97.5,270 c 0,15.18783 -12.312169,27.5 -27.5,27.5 -15.187831,0 -27.5,-12.31217 -27.5,-27.5 0,-15.18783 12.312169,-27.5 27.5,-27.5 15.187831,0 27.5,12.31217 27.5,27.5 z"
       style="fill:none;stroke:#ffbf00;stroke-width:20"
       sodipodi:ry="27.5"
       sodipodi:rx="27.5"
       sodipodi:cy="270"
       sodipodi:cx="70"
       r="27.5"
       id="connector2pin"
       cy="270"
       cx="70" />
    <circle
       transform="matrix(-1,0,0,-1,242.16255,939.14731)"
       d="m 97.5,370 c 0,15.18783 -12.312169,27.5 -27.5,27.5 -15.187831,0 -27.5,-12.31217 -27.5,-27.5 0,-15.18783 12.312169,-27.5 27.5,-27.5 15.187831,0 27.5,12.31217 27.5,27.5 z"
       style="fill:none;stroke:#ffbf00;stroke-width:20"
       sodipodi:ry="27.5"
       sodipodi:rx="27.5"
       sodipodi:cy="370"
       sodipodi:cx="70"
       r="27.5"
       id="connector3pin"
       cy="370"
       cx="70" />
    <circle
       transform="matrix(-1,0,0,-1,242.16255,939.14731)"
       d="m 97.5,470 c 0,15.18783 -12.312169,27.5 -27.5,27.5 -15.187831,0 -27.5,-12.31217 -27.5,-27.5 0,-15.18783 12.312169,-27.5 27.5,-27.5 15.187831,0 27.5,12.31217 27.5,27.5 z"
       style="fill:none;stroke:#ffbf00;stroke-width:20"
       sodipodi:ry="27.5"
       sodipodi:rx="27.5"
       sodipodi:cy="470"
       sodipodi:cx="70"
       r="27.5"
       id="connector4pin"
       cy="470"
       cx="70" />
    <circle
       transform="matrix(-1,0,0,-1,242.16255,939.14731)"
       d="m 97.5,570 c 0,15.18783 -12.312169,27.5 -27.5,27.5 -15.187831,0 -27.5,-12.31217 -27.5,-27.5 0,-15.18783 12.312169,-27.5 27.5,-27.5 15.187831,0 27.5,12.31217 27.5,27.5 z"
       style="fill:none;stroke:#ffbf00;stroke-width:20"
       sodipodi:ry="27.5"
       sodipodi:rx="27.5"
       sodipodi:cy="570"
       sodipodi:cx="70"
       r="27.5"
       id="connector5pin"
       cy="570"
       cx="70" />
    <circle
       transform="matrix(-1,0,0,-1,242.16255,939.14731)"
       d="m 97.5,670 c 0,15.18783 -12.312169,27.5 -27.5,27.5 -15.187831,0 -27.5,-12.31217 -27.5,-27.5 0,-15.18783 12.312169,-27.5 27.5,-27.5 15.187831,0 27.5,12.31217 27.5,27.5 z"
       style="fill:none;stroke:#ffbf00;stroke-width:20"
       sodipodi:ry="27.5"
       sodipodi:rx="27.5"
       sodipodi:cy="670"
       sodipodi:cx="70"
       r="27.5"
       id="connector6pin"
       cy="670"
       cx="70" />
    <circle
       transform="matrix(-1,0,0,-1,242.16255,939.14731)"
       d="m 97.5,770 c 0,15.18783 -12.312169,27.5 -27.5,27.5 -15.187831,0 -27.5,-12.31217 -27.5,-27.5 0,-15.18783 12.312169,-27.5 27.5,-27.5 15.187831,0 27.5,12.31217 27.5,27.5 z"
       style="fill:none;stroke:#ffbf00;stroke-width:20"
       sodipodi:ry="27.5"
       sodipodi:rx="27.5"
       sodipodi:cy="770"
       sodipodi:cx="70"
       r="27.5"
       id="connector7pin"
       cy="770"
       cx="70" />
    <circle
       transform="matrix(-1,0,0,-1,242.16255,939.14731)"
       d="m 97.5,870 c 0,15.18783 -12.312169,27.5 -27.5,27.5 -15.187831,0 -27.5,-12.31217 -27.5,-27.5 0,-15.18783 12.312169,-27.5 27.5,-27.5 15.187831,0 27.5,12.31217 27.5,27.5 z"
       style="fill:none;stroke:#ffbf00;stroke-width:20"
       sodipodi:ry="27.5"
       sodipodi:rx="27.5"
       sodipodi:cy="870"
       sodipodi:cx="70"
       r="27.5"
       id="connector8pin"
       cy="870"
       cx="70" />
    <rect
       transform="scale(-1,-1)"
       style="fill:none;stroke:#ffbf00;stroke-width:20"
       id="rect13415-2"
       y="-97.606125"
       x="-200.0899"
       width="55"
       height="55" />
    <circle
       transform="matrix(-1,0,0,-1,242.5899,140.10611)"
       d="M 97.5,70 C 97.5,85.187831 85.187831,97.5 70,97.5 54.812169,97.5 42.5,85.187831 42.5,70 42.5,54.812169 54.812169,42.5 70,42.5 85.187831,42.5 97.5,54.812169 97.5,70 z"
       style="fill:none;stroke:#ffbf00;stroke-width:20"
       sodipodi:ry="27.5"
       sodipodi:rx="27.5"
       sodipodi:cy="70"
       sodipodi:cx="70"
       r="27.5"
       id="connector0pin-2"
       cy="70"
       cx="70" />
    <rect
       transform="scale(-1,-1)"
       style="fill:none;stroke:#ffbf00;stroke-width:20"
       id="rect13415-2-6"
       y="-195.80055"
       x="-200.0899"
       width="55"
       height="55" />
    <circle
       transform="matrix(-1,0,0,-1,242.5899,238.30054)"
       d="M 97.5,70 C 97.5,85.187831 85.187831,97.5 70,97.5 54.812169,97.5 42.5,85.187831 42.5,70 42.5,54.812169 54.812169,42.5 70,42.5 85.187831,42.5 97.5,54.812169 97.5,70 z"
       style="fill:none;stroke:#ffbf00;stroke-width:20"
       sodipodi:ry="27.5"
       sodipodi:rx="27.5"
       sodipodi:cy="70"
       sodipodi:cx="70"
       r="27.5"
       id="connector0pin-2-5"
       cy="70"
       cx="70" />
  </g>
</svg>
