<?xml version="1.0" encoding="UTF-8" standalone="no"?>
<!-- Created with Inkscape (http://www.inkscape.org/) -->

<svg
   xmlns:dc="http://purl.org/dc/elements/1.1/"
   xmlns:cc="http://creativecommons.org/ns#"
   xmlns:rdf="http://www.w3.org/1999/02/22-rdf-syntax-ns#"
   xmlns:svg="http://www.w3.org/2000/svg"
   xmlns="http://www.w3.org/2000/svg"
   xmlns:xlink="http://www.w3.org/1999/xlink"
   xmlns:sodipodi="http://sodipodi.sourceforge.net/DTD/sodipodi-0.dtd"
   xmlns:inkscape="http://www.inkscape.org/namespaces/inkscape"
   width="467.20856"
   height="95.669289"
   id="svg2"
   version="1.1"
   
   >
  <defs
     id="defs4">
    <filter
       
       id="filter9892"
       x="-0.047907032"
       width="1.0958141"
       y="-0.14484324"
       height="1.2896864"
       color-interpolation-filters="sRGB">
      <feGaussianBlur
         
         stdDeviation="0.032709961"
         id="feGaussianBlur9894" />
    </filter>
  </defs>
  <sodipodi:namedview
     id="base"
     pagecolor="#ffffff"
     bordercolor="#666666"
     borderopacity="1.0"
     
     
     
     
     
     
     
     showgrid="false"
     fit-margin-top="0"
     fit-margin-left="0"
     fit-margin-right="0"
     fit-margin-bottom="0"
     
     
     
     
     
     units="cm"
     showguides="true"
      />
  <metadata
     id="metadata7">
    <rdf:RDF>
      <cc:Work
         rdf:about="">
        <dc:format>image/svg+xml</dc:format>
        <dc:type
           rdf:resource="http://purl.org/dc/dcmitype/StillImage" />
        <dc:title></dc:title>
      </cc:Work>
    </rdf:RDF>
  </metadata>
  <g
     
     
     id="layer1"
     transform="translate(-14.947707,-200.66171)"
     style="display:inline">
    <rect
       style="fill:#00a63d;fill-opacity:1;stroke-width:0;stroke-miterlimit:4;stroke-dasharray:none"
       id="rect2985"
       width="191.33858"
       height="95.669289"
       x="17.230263"
       y="200.66171" />
    <path
       
       style="fill:#000000;fill-opacity:0;stroke-width:0;stroke-miterlimit:4;stroke-dasharray:none"
       id="path3765"
       
       
       
       
       d="m 1.8772189,1.9970413 c 0,0.154411 -0.1698801,0.2795859 -0.3794379,0.2795859 -0.2095577,0 -0.3794378,-0.1251749 -0.3794378,-0.2795859 0,-0.1544109 0.1698801,-0.2795858 0.3794378,-0.2795858 0.2095578,0 0.3794379,0.1251749 0.3794379,0.2795858 z"
       transform="matrix(3.543307,0,0,3.543307,10.985074,200.31959)" />
    <path
       
       style="fill:#000000;fill-opacity:1;stroke-width:0;stroke-miterlimit:4;stroke-dasharray:none"
       id="path3809"
       
       
       
       
       d="m 6.989645,4.8528104 c 0,1.6654326 -1.3500999,3.0155325 -3.0155325,3.0155325 -1.6654326,0 -3.01553248,-1.3500999 -3.01553248,-3.0155325 0,-1.6654326 1.35009988,-3.0155325 3.01553248,-3.0155325 1.6654326,0 3.0155325,1.3500999 3.0155325,3.0155325 z"
       transform="matrix(1.3406315,0,0,1.3406315,21.936908,203.31804)"
       
       
       
       
       
        />
    <use
       x="0"
       y="0"
       
       xlink:href="#path3809"
       transform="translate(0,9.8570892)"
       id="use9816"
       width="6.031065"
       height="6.031065" />
    <use
       x="0"
       y="0"
       
       xlink:href="#path3809"
       transform="translate(0,19.714178)"
       id="use9818"
       width="6.031065"
       height="6.031065" />
    <use
       x="0"
       y="0"
       
       xlink:href="#path3809"
       transform="translate(0,29.571268)"
       id="use9820"
       width="6.031065"
       height="6.031065" />
    <use
       x="0"
       y="0"
       
       xlink:href="#path3809"
       transform="translate(9.8570892,29.571268)"
       id="use9822"
       width="6.031065"
       height="6.031065" />
    <use
       x="0"
       y="0"
       
       xlink:href="#path3809"
       transform="translate(9.8570892,39.428358)"
       id="use9824"
       width="6.031065"
       height="6.031065" />
    <use
       x="0"
       y="0"
       
       xlink:href="#path3809"
       transform="translate(0,59.142535)"
       id="use9826"
       width="6.031065"
       height="6.031065" />
    <use
       x="0"
       y="0"
       
       xlink:href="#path3809"
       transform="translate(0,68.999625)"
       id="use9828"
       width="6.031065"
       height="6.031065" />
    <use
       x="0"
       y="0"
       
       xlink:href="#path3809"
       transform="translate(9.8570892,68.999625)"
       id="use9830"
       width="6.031065"
       height="6.031065" />
    <use
       x="0"
       y="0"
       
       xlink:href="#path3809"
       transform="translate(9.8570892,-4.8701622e-8)"
       id="use9832"
       width="6.031065"
       height="6.031065" />
    <use
       x="0"
       y="0"
       
       xlink:href="#path3809"
       transform="translate(9.8570892,9.8570892)"
       id="use9834"
       width="6.031065"
       height="6.031065" />
    <use
       x="0"
       y="0"
       
       xlink:href="#path3809"
       transform="translate(9.8570892,19.714178)"
       id="use9836"
       width="6.031065"
       height="6.031065" />
    <use
       x="0"
       y="0"
       
       xlink:href="#path3809"
       transform="translate(0,39.428358)"
       id="use9838"
       width="6.031065"
       height="6.031065" />
    <use
       x="0"
       y="0"
       
       xlink:href="#path3809"
       transform="translate(0,49.285444)"
       id="use9840"
       width="6.031065"
       height="6.031065" />
    <use
       x="0"
       y="0"
       
       xlink:href="#path3809"
       transform="translate(9.8570892,49.285444)"
       id="use9842"
       width="6.031065"
       height="6.031065" />
    <use
       x="0"
       y="0"
       
       xlink:href="#path3809"
       transform="translate(9.8570892,59.142535)"
       id="use9844"
       width="6.031065"
       height="6.031065" />
    <use
       x="0"
       y="0"
       
       xlink:href="#path3809"
       transform="translate(0,78.856712)"
       id="use9846"
       width="6.031065"
       height="6.031065" />
    <use
       x="0"
       y="0"
       
       xlink:href="#path3809"
       transform="translate(9.8570892,78.856712)"
       id="use9848"
       width="6.031065"
       height="6.031065" />
    <rect
       style="fill:#000000;fill-opacity:1;stroke:#000000;stroke-width:6.71283054;stroke-linecap:round;stroke-linejoin:round;stroke-miterlimit:4;stroke-opacity:1;stroke-dasharray:none"
       id="rect9852"
       width="260.73245"
       height="38.343086"
       x="218.06303"
       y="224.43826" />
    <rect
       style="fill:#ded817;fill-opacity:1;stroke:#000000;stroke-width:0;stroke-linecap:round;stroke-linejoin:round;stroke-miterlimit:4;stroke-opacity:1;stroke-dasharray:none"
       id="rect9854"
       width="26.506506"
       height="14.81246"
       x="191.71829"
       y="236.27936" />
    <text
       xml:space="preserve"
       style="font-size:6px;font-style:normal;font-weight:bold;line-height:125%;letter-spacing:0px;word-spacing:0px;fill:#000000;fill-opacity:1;stroke:none;font-family:DroidSans;-inkscape-font-specification:DroidSans Bold"
       x="4.4160342"
       y="2.0855918"
       id="text10379"
       
       transform="translate(86.672867,237.05661)"><tspan
         
         id="tspan10381"
         x="4.4160342"
         y="2.0855918" /></text>
  </g>
  <g
     
     id="layer2"
     
     transform="translate(69.488473,34.334637)">
    <g
       transform="matrix(3.543307,0,0,3.543307,2.3593046,-22.745558)"
       style="font-size:0.60000002px;font-style:normal;font-variant:normal;font-weight:bold;font-stretch:normal;text-align:start;line-height:125%;letter-spacing:0px;word-spacing:0px;writing-mode:lr-tb;text-anchor:start;fill:#ffffff;fill-opacity:1;stroke:none;filter:url(#filter9892);font-family:DroidSans;-inkscape-font-specification:DroidSans Bold"
       id="flowRoot9884">
      <path
         d="m -17.409277,0.93884411 -0.153516,-0.42949221 0.09404,0 0.108691,0.31787111 0.105176,-0.31787111 0.09199,0 -0.153808,0.42949221 z"
         id="path11488"
          />
      <path
         d="m -16.843262,0.78093394 0.08408,0.0266602 c -0.01289,0.0468751 -0.03433,0.0816895 -0.06431,0.10444336 -0.02998,0.0227539 -0.06802,0.0341309 -0.114112,0.0341309 -0.05703,0 -0.103906,-0.0194824 -0.140625,-0.0584473 -0.03672,-0.0389648 -0.05508,-0.0922362 -0.05508,-0.15981446 0,-0.0714841 0.01846,-0.12700162 0.05537,-0.16655274 0.03691,-0.0395504 0.08545,-0.0593257 0.145606,-0.0593262 0.05254,4.4e-7 0.09521,0.0155278 0.128027,0.046582 0.01953,0.0183597 0.03418,0.0447269 0.04394,0.0791016 l -0.08584,0.0205078 c -0.0051,-0.0222653 -0.01567,-0.0398434 -0.03179,-0.0527344 -0.01611,-0.0128903 -0.03569,-0.0193356 -0.05874,-0.0193359 -0.03184,3.6e-7 -0.05767,0.0114261 -0.07749,0.0342773 -0.01982,0.0228519 -0.02974,0.0598636 -0.02974,0.11103516 0,0.0542971 0.0098,0.0929689 0.0293,0.11601563 0.01953,0.023047 0.04492,0.0345704 0.07617,0.0345703 0.02305,7e-8 0.04287,-0.007324 0.05947,-0.0219727 0.0166,-0.0146483 0.02851,-0.0376952 0.03574,-0.0691406 z"
         id="path11490"
          />
      <path
         d="m -16.409668,0.78093394 0.08408,0.0266602 c -0.01289,0.0468751 -0.03433,0.0816895 -0.06431,0.10444336 -0.02998,0.0227539 -0.06802,0.0341309 -0.114111,0.0341309 -0.05703,0 -0.103906,-0.0194824 -0.140625,-0.0584473 -0.03672,-0.0389648 -0.05508,-0.0922362 -0.05508,-0.15981446 0,-0.0714841 0.01846,-0.12700162 0.05537,-0.16655274 0.03691,-0.0395504 0.08545,-0.0593257 0.145606,-0.0593262 0.05254,4.4e-7 0.09521,0.0155278 0.128027,0.046582 0.01953,0.0183597 0.03418,0.0447269 0.04394,0.0791016 l -0.08584,0.0205078 c -0.0051,-0.0222653 -0.01567,-0.0398434 -0.03179,-0.0527344 -0.01611,-0.0128903 -0.03569,-0.0193356 -0.05874,-0.0193359 -0.03184,3.6e-7 -0.05767,0.0114261 -0.07749,0.0342773 -0.01982,0.0228519 -0.02974,0.0598636 -0.02974,0.11103516 0,0.0542971 0.0098,0.0929689 0.0293,0.11601563 0.01953,0.023047 0.04492,0.0345704 0.07617,0.0345703 0.02305,7e-8 0.04287,-0.007324 0.05947,-0.0219727 0.0166,-0.0146483 0.02851,-0.0376952 0.03574,-0.0691406 z"
         id="path11492"
          />
      <path
         d="m -16.267871,0.82839488 0.08203,-0.008496 c 0.0023,0.0185548 0.0093,0.033252 0.0208,0.0440918 0.01152,0.0108399 0.02481,0.0162598 0.03984,0.0162598 0.01719,6e-8 0.03174,-0.006982 0.04365,-0.0209473 0.01191,-0.0139648 0.01787,-0.0350097 0.01787,-0.0631348 0,-0.026367 -0.0059,-0.0461424 -0.01772,-0.0593262 -0.01182,-0.0131834 -0.0272,-0.0197752 -0.04614,-0.0197754 -0.02363,2.3e-7 -0.04482,0.0104494 -0.06357,0.0313477 l -0.0668,-0.009668 0.04219,-0.22353516 0.217676,0 0,0.0770508 -0.155273,0 -0.01289,0.0729492 c 0.01836,-0.009179 0.03711,-0.0137692 0.05625,-0.0137695 0.03652,2.9e-7 0.06748,0.0132815 0.09287,0.0398437 0.02539,0.0265627 0.03809,0.0610354 0.03809,0.10341798 0,0.0353517 -0.01025,0.0668946 -0.03076,0.0946289 -0.02793,0.0378906 -0.0667,0.0568359 -0.116309,0.0568359 -0.03965,0 -0.07197,-0.0106445 -0.09697,-0.0319336 -0.025,-0.021289 -0.03994,-0.0499023 -0.04482,-0.0858399 z"
         id="path11494"
          />
    </g>
    <g
       transform="matrix(3.543307,0,0,3.543307,12.0708,-22.745558)"
       style="font-size:0.60000002px;font-style:normal;font-variant:normal;font-weight:bold;font-stretch:normal;text-align:start;line-height:125%;letter-spacing:0px;word-spacing:0px;writing-mode:lr-tb;text-anchor:start;fill:#ffffff;fill-opacity:1;stroke:none;filter:url(#filter9892);font-family:DroidSans;-inkscape-font-specification:DroidSans Bold"
       id="use10078">
      <path
         d="m -17.319043,0.78093394 0,-0.0723633 0.186914,0 0,0.17109376 c -0.01816,0.0175782 -0.04448,0.0330567 -0.07896,0.0464355 -0.03447,0.0133789 -0.06939,0.0200684 -0.104736,0.0200684 -0.04492,0 -0.08408,-0.009424 -0.117481,-0.0282715 -0.0334,-0.0188476 -0.0585,-0.0458007 -0.07529,-0.0808594 -0.0168,-0.0350585 -0.0252,-0.0731932 -0.0252,-0.1144043 0,-0.0447263 0.0094,-0.0844724 0.02812,-0.11923829 0.01875,-0.0347653 0.04619,-0.0614254 0.08232,-0.0799805 0.02754,-0.0142574 0.06182,-0.0213863 0.102832,-0.0213867 0.05332,4.4e-7 0.09497,0.0111821 0.124951,0.0335449 0.02998,0.0223637 0.04927,0.0532718 0.05786,0.0927246 l -0.08613,0.0161133 c -0.0061,-0.0210934 -0.01743,-0.0377438 -0.03413,-0.0499512 -0.0167,-0.0122067 -0.03755,-0.0183102 -0.06255,-0.0183105 -0.03789,3.6e-7 -0.06802,0.0120121 -0.09038,0.0360352 -0.02236,0.0240237 -0.03355,0.0596682 -0.03355,0.10693359 0,0.0509767 0.01133,0.0892091 0.03399,0.11469727 0.02266,0.0254884 0.05234,0.0382325 0.08906,0.0382324 0.01816,7e-8 0.03638,-0.003564 0.05464,-0.0106934 0.01826,-0.007129 0.03393,-0.0157714 0.04702,-0.0259277 l 0,-0.0544922 z"
         id="path11497"
          />
      <path
         d="m -17.051562,0.93884411 0,-0.42949221 0.08438,0 0.175781,0.28681642 0,-0.28681642 0.08057,0 0,0.42949221 -0.08701,0 -0.173144,-0.28007814 0,0.28007814 z"
         id="path11499"
          />
      <path
         d="m -16.619141,0.5093519 0.158497,0 c 0.03574,4.3e-7 0.06299,0.002735 0.08174,0.008203 0.0252,0.007422 0.04678,0.0206059 0.06475,0.0395508 0.01797,0.0189457 0.03164,0.042139 0.04102,0.0695801 0.0094,0.0274417 0.01406,0.0612796 0.01406,0.10151368 0,0.0353517 -0.0044,0.0658205 -0.01318,0.0914063 -0.01074,0.0312501 -0.02607,0.056543 -0.046,0.0758789 -0.01504,0.0146485 -0.03535,0.0260742 -0.06094,0.0342773 -0.01914,0.006055 -0.04473,0.009082 -0.07676,0.009082 l -0.163184,0 z m 0.08672,0.0726562 0,0.28447267 0.06475,0 c 0.02422,7e-8 0.0417,-0.001367 0.05244,-0.004102 0.01406,-0.003516 0.02573,-0.009473 0.03501,-0.0178711 0.0093,-0.008398 0.01685,-0.0222167 0.02271,-0.0414551 0.0059,-0.0192381 0.0088,-0.0454588 0.0088,-0.0786621 -10e-7,-0.0332029 -0.0029,-0.0586911 -0.0088,-0.0764648 -0.0059,-0.0177731 -0.01406,-0.0316403 -0.02461,-0.0416016 -0.01055,-0.009961 -0.02393,-0.0166989 -0.04014,-0.0202148 -0.01211,-0.002734 -0.03584,-0.004101 -0.07119,-0.004102 z"
         id="path11501"
          />
    </g>
    <g
       transform="matrix(3.543307,0,0,3.543307,12.615903,-12.961956)"
       style="font-size:0.60000002px;font-style:normal;font-variant:normal;font-weight:bold;font-stretch:normal;text-align:start;line-height:125%;letter-spacing:0px;word-spacing:0px;writing-mode:lr-tb;text-anchor:start;fill:#ffffff;fill-opacity:1;stroke:none;filter:url(#filter9892);font-family:DroidSans;-inkscape-font-specification:DroidSans Bold"
       id="use10080">
      <path
         d="m -17.319043,0.78093394 0,-0.0723633 0.186914,0 0,0.17109376 c -0.01816,0.0175782 -0.04448,0.0330567 -0.07896,0.0464355 -0.03447,0.0133789 -0.06939,0.0200684 -0.104736,0.0200684 -0.04492,0 -0.08408,-0.009424 -0.117481,-0.0282715 -0.0334,-0.0188476 -0.0585,-0.0458007 -0.07529,-0.0808594 -0.0168,-0.0350585 -0.0252,-0.0731932 -0.0252,-0.1144043 0,-0.0447263 0.0094,-0.0844724 0.02812,-0.11923829 0.01875,-0.0347653 0.04619,-0.0614254 0.08232,-0.0799805 0.02754,-0.0142574 0.06182,-0.0213863 0.102832,-0.0213867 0.05332,4.4e-7 0.09497,0.0111821 0.124951,0.0335449 0.02998,0.0223637 0.04927,0.0532718 0.05786,0.0927246 l -0.08613,0.0161133 c -0.0061,-0.0210934 -0.01743,-0.0377438 -0.03413,-0.0499512 -0.0167,-0.0122067 -0.03755,-0.0183102 -0.06255,-0.0183105 -0.03789,3.6e-7 -0.06802,0.0120121 -0.09038,0.0360352 -0.02236,0.0240237 -0.03355,0.0596682 -0.03355,0.10693359 0,0.0509767 0.01133,0.0892091 0.03399,0.11469727 0.02266,0.0254884 0.05234,0.0382325 0.08906,0.0382324 0.01816,7e-8 0.03638,-0.003564 0.05464,-0.0106934 0.01826,-0.007129 0.03393,-0.0157714 0.04702,-0.0259277 l 0,-0.0544922 z"
         id="path11504"
          />
      <path
         d="m -17.051562,0.93884411 0,-0.42949221 0.08438,0 0.175781,0.28681642 0,-0.28681642 0.08057,0 0,0.42949221 -0.08701,0 -0.173144,-0.28007814 0,0.28007814 z"
         id="path11506"
          />
      <path
         d="m -16.619141,0.5093519 0.158497,0 c 0.03574,4.3e-7 0.06299,0.002735 0.08174,0.008203 0.0252,0.007422 0.04678,0.0206059 0.06475,0.0395508 0.01797,0.0189457 0.03164,0.042139 0.04102,0.0695801 0.0094,0.0274417 0.01406,0.0612796 0.01406,0.10151368 0,0.0353517 -0.0044,0.0658205 -0.01318,0.0914063 -0.01074,0.0312501 -0.02607,0.056543 -0.046,0.0758789 -0.01504,0.0146485 -0.03535,0.0260742 -0.06094,0.0342773 -0.01914,0.006055 -0.04473,0.009082 -0.07676,0.009082 l -0.163184,0 z m 0.08672,0.0726562 0,0.28447267 0.06475,0 c 0.02422,7e-8 0.0417,-0.001367 0.05244,-0.004102 0.01406,-0.003516 0.02573,-0.009473 0.03501,-0.0178711 0.0093,-0.008398 0.01685,-0.0222167 0.02271,-0.0414551 0.0059,-0.0192381 0.0088,-0.0454588 0.0088,-0.0786621 -10e-7,-0.0332029 -0.0029,-0.0586911 -0.0088,-0.0764648 -0.0059,-0.0177731 -0.01406,-0.0316403 -0.02461,-0.0416016 -0.01055,-0.009961 -0.02393,-0.0166989 -0.04014,-0.0202148 -0.01211,-0.002734 -0.03584,-0.004101 -0.07119,-0.004102 z"
         id="path11508"
          />
    </g>
    <g
       transform="matrix(3.543307,0,0,3.543307,13.994639,-3.0500863)"
       style="font-size:0.60000002px;font-style:normal;font-variant:normal;font-weight:bold;font-stretch:normal;text-align:start;line-height:125%;letter-spacing:0px;word-spacing:0px;writing-mode:lr-tb;text-anchor:start;fill:#ffffff;fill-opacity:1;stroke:none;filter:url(#filter9892);font-family:DroidSans;-inkscape-font-specification:DroidSans Bold"
       id="use10082">
      <path
         d="m -17.54082,0.79909801 0.08438,-0.008203 c 0.0051,0.0283204 0.01538,0.0491212 0.03091,0.0624024 0.01553,0.0132813 0.03647,0.0199219 0.06284,0.0199219 0.02793,7e-8 0.04897,-0.005908 0.06313,-0.0177246 0.01416,-0.0118163 0.02124,-0.0256346 0.02124,-0.0414551 -10e-7,-0.0101561 -0.003,-0.0187987 -0.0089,-0.0259277 -0.006,-0.007129 -0.01636,-0.0133299 -0.0312,-0.0186035 -0.01016,-0.003515 -0.0333,-0.009765 -0.06943,-0.01875 -0.04648,-0.0115232 -0.0791,-0.0256834 -0.09785,-0.0424805 -0.02637,-0.0236326 -0.03955,-0.0524411 -0.03955,-0.0864258 0,-0.0218747 0.0062,-0.0423336 0.0186,-0.061377 0.0124,-0.0190426 0.03027,-0.0335445 0.05361,-0.0435059 0.02334,-0.009961 0.05151,-0.014941 0.08452,-0.0149414 0.05391,4.4e-7 0.09448,0.0118168 0.121729,0.0354492 0.02725,0.0236332 0.04155,0.0551761 0.04292,0.0946289 l -0.08672,0.003809 c -0.0037,-0.02207 -0.01167,-0.0379391 -0.02388,-0.0476074 -0.01221,-0.009668 -0.03052,-0.0145016 -0.05493,-0.0145019 -0.0252,3.6e-7 -0.04492,0.005176 -0.05918,0.0155273 -0.0092,0.006641 -0.01377,0.0155277 -0.01377,0.0266602 0,0.0101566 0.0043,0.018848 0.01289,0.0260742 0.01094,0.00918 0.0375,0.0187503 0.07969,0.0287109 0.04219,0.009961 0.07339,0.0202639 0.0936,0.0309082 0.02021,0.0106448 0.03604,0.0251955 0.04746,0.0436524 0.01142,0.0184572 0.01714,0.0412599 0.01714,0.0684082 0,0.0246095 -0.0068,0.0476563 -0.02051,0.0691406 -0.01367,0.0214844 -0.03301,0.0374512 -0.05801,0.0479004 -0.025,0.0104492 -0.05615,0.0156738 -0.09346,0.0156738 -0.0543,0 -0.096,-0.0125488 -0.125098,-0.0376465 -0.0291,-0.0250976 -0.04648,-0.0616698 -0.05215,-0.1097168 z"
         id="path11511"
          />
      <path
         d="m -17.120703,0.93884411 0,-0.42949221 0.08672,0 0,0.42949221 z"
         id="path11513"
          />
    </g>
    <g
       transform="matrix(3.543307,0,0,3.543307,3.6739423,6.7014488)"
       style="font-size:0.60000002px;font-style:normal;font-variant:normal;font-weight:bold;font-stretch:normal;text-align:start;line-height:125%;letter-spacing:0px;word-spacing:0px;writing-mode:lr-tb;text-anchor:start;fill:#ffffff;fill-opacity:1;stroke:none;filter:url(#filter9892);font-family:DroidSans;-inkscape-font-specification:DroidSans Bold"
       id="use10084">
      <path
         d="m -17.54082,0.79909801 0.08438,-0.008203 c 0.0051,0.0283204 0.01538,0.0491212 0.03091,0.0624024 0.01553,0.0132813 0.03647,0.0199219 0.06284,0.0199219 0.02793,7e-8 0.04897,-0.005908 0.06313,-0.0177246 0.01416,-0.0118163 0.02124,-0.0256346 0.02124,-0.0414551 -10e-7,-0.0101561 -0.003,-0.0187987 -0.0089,-0.0259277 -0.006,-0.007129 -0.01636,-0.0133299 -0.0312,-0.0186035 -0.01016,-0.003515 -0.0333,-0.009765 -0.06943,-0.01875 -0.04648,-0.0115232 -0.0791,-0.0256834 -0.09785,-0.0424805 -0.02637,-0.0236326 -0.03955,-0.0524411 -0.03955,-0.0864258 0,-0.0218747 0.0062,-0.0423336 0.0186,-0.061377 0.0124,-0.0190426 0.03027,-0.0335445 0.05361,-0.0435059 0.02334,-0.009961 0.05151,-0.014941 0.08452,-0.0149414 0.05391,4.4e-7 0.09448,0.0118168 0.121729,0.0354492 0.02725,0.0236332 0.04155,0.0551761 0.04292,0.0946289 l -0.08672,0.003809 c -0.0037,-0.02207 -0.01167,-0.0379391 -0.02388,-0.0476074 -0.01221,-0.009668 -0.03052,-0.0145016 -0.05493,-0.0145019 -0.0252,3.6e-7 -0.04492,0.005176 -0.05918,0.0155273 -0.0092,0.006641 -0.01377,0.0155277 -0.01377,0.0266602 0,0.0101566 0.0043,0.018848 0.01289,0.0260742 0.01094,0.00918 0.0375,0.0187503 0.07969,0.0287109 0.04219,0.009961 0.07339,0.0202639 0.0936,0.0309082 0.02021,0.0106448 0.03604,0.0251955 0.04746,0.0436524 0.01142,0.0184572 0.01714,0.0412599 0.01714,0.0684082 0,0.0246095 -0.0068,0.0476563 -0.02051,0.0691406 -0.01367,0.0214844 -0.03301,0.0374512 -0.05801,0.0479004 -0.025,0.0104492 -0.05615,0.0156738 -0.09346,0.0156738 -0.0543,0 -0.096,-0.0125488 -0.125098,-0.0376465 -0.0291,-0.0250976 -0.04648,-0.0616698 -0.05215,-0.1097168 z"
         id="path11516"
          />
      <path
         d="m -17.135645,0.72673472 c 0,-0.0437497 0.0065,-0.0804685 0.01963,-0.11015625 0.0098,-0.0218747 0.0231,-0.0415035 0.03999,-0.0588867 0.01689,-0.0173824 0.0354,-0.030273 0.05552,-0.0386719 0.02676,-0.0113277 0.05762,-0.0169918 0.09258,-0.0169922 0.06328,4.4e-7 0.113916,0.0196293 0.151905,0.0588867 0.03799,0.0392582 0.05698,0.093848 0.05698,0.16376954 0,0.0693361 -0.01885,0.12358408 -0.05654,0.16274415 -0.0377,0.0391602 -0.08809,0.0587402 -0.151172,0.0587402 -0.06387,0 -0.114648,-0.0194824 -0.152344,-0.0584473 -0.03769,-0.0389648 -0.05654,-0.0926268 -0.05654,-0.16098634 z m 0.08936,-0.00293 c 0,0.048633 0.01123,0.0854982 0.03369,0.11059571 0.02246,0.0250977 0.05098,0.0376466 0.08555,0.0376465 0.03457,7e-8 0.06294,-0.0124511 0.08511,-0.0373535 0.02217,-0.0249022 0.03325,-0.0622557 0.03325,-0.11206055 -1e-6,-0.0492185 -0.01079,-0.0859372 -0.03237,-0.11015625 -0.02158,-0.0242184 -0.05025,-0.0363278 -0.08599,-0.0363281 -0.03574,3.6e-7 -0.06455,0.0122562 -0.08643,0.0367676 -0.02187,0.024512 -0.03281,0.0614749 -0.03281,0.11088867 z"
         id="path11518"
          />
    </g>
    <g
       transform="matrix(3.543307,0,0,3.543307,2.8402731,16.581216)"
       style="font-size:0.60000002px;font-style:normal;font-variant:normal;font-weight:bold;font-stretch:normal;text-align:start;line-height:125%;letter-spacing:0px;word-spacing:0px;writing-mode:lr-tb;text-anchor:start;fill:#ffffff;fill-opacity:1;stroke:none;filter:url(#filter9892);font-family:DroidSans;-inkscape-font-specification:DroidSans Bold"
       id="use10086">
      <path
         d="m -17.518848,0.93884411 0,-0.42949221 0.139161,0 c 0.05273,4.3e-7 0.08711,0.002149 0.103125,0.006445 0.02461,0.006446 0.04521,0.0204594 0.06182,0.042041 0.0166,0.0215824 0.0249,0.0494632 0.0249,0.0836426 0,0.0263675 -0.0048,0.0485354 -0.01435,0.0665039 -0.0096,0.017969 -0.02173,0.0320803 -0.03647,0.042334 -0.01475,0.0102541 -0.02974,0.0170412 -0.04497,0.0203613 -0.0207,0.004102 -0.05068,0.006153 -0.08994,0.006152 l -0.05654,0 0,0.16201173 z m 0.08672,-0.35683596 0,0.12187501 0.04746,0 c 0.03418,2.3e-7 0.05703,-0.002246 0.06855,-0.006738 0.01152,-0.004492 0.02056,-0.0115232 0.0271,-0.0210938 0.0065,-0.00957 0.0098,-0.0207028 0.0098,-0.0333984 0,-0.0156247 -0.0046,-0.0285153 -0.01377,-0.0386719 -0.0092,-0.0101559 -0.0208,-0.0165036 -0.03486,-0.019043 -0.01035,-0.001953 -0.03115,-0.002929 -0.0624,-0.00293 z"
         id="path11521"
          />
      <path
         d="m -16.730762,0.93884411 -0.09434,0 -0.0375,-0.0975586 -0.171679,0 -0.03545,0.0975586 -0.09199,0 0.167285,-0.42949221 0.0917,0 z m -0.159668,-0.16992189 -0.05918,-0.159375 -0.05801,0.159375 z"
         id="path11523"
          />
      <path
         d="m -16.409668,0.78093394 0.08408,0.0266602 c -0.01289,0.0468751 -0.03433,0.0816895 -0.06431,0.10444336 -0.02998,0.0227539 -0.06802,0.0341309 -0.114111,0.0341309 -0.05703,0 -0.103906,-0.0194824 -0.140625,-0.0584473 -0.03672,-0.0389648 -0.05508,-0.0922362 -0.05508,-0.15981446 0,-0.0714841 0.01846,-0.12700162 0.05537,-0.16655274 0.03691,-0.0395504 0.08545,-0.0593257 0.145606,-0.0593262 0.05254,4.4e-7 0.09521,0.0155278 0.128027,0.046582 0.01953,0.0183597 0.03418,0.0447269 0.04394,0.0791016 l -0.08584,0.0205078 c -0.0051,-0.0222653 -0.01567,-0.0398434 -0.03179,-0.0527344 -0.01611,-0.0128903 -0.03569,-0.0193356 -0.05874,-0.0193359 -0.03184,3.6e-7 -0.05767,0.0114261 -0.07749,0.0342773 -0.01982,0.0228519 -0.02974,0.0598636 -0.02974,0.11103516 0,0.0542971 0.0098,0.0929689 0.0293,0.11601563 0.01953,0.023047 0.04492,0.0345704 0.07617,0.0345703 0.02305,7e-8 0.04287,-0.007324 0.05947,-0.0219727 0.0166,-0.0146483 0.02851,-0.0376952 0.03574,-0.0691406 z"
         id="path11525"
          />
    </g>
    <g
       transform="matrix(3.543307,0,0,3.543307,3.0006077,26.39685)"
       style="font-size:0.60000002px;font-style:normal;font-variant:normal;font-weight:bold;font-stretch:normal;text-align:start;line-height:125%;letter-spacing:0px;word-spacing:0px;writing-mode:lr-tb;text-anchor:start;fill:#ffffff;fill-opacity:1;stroke:none;filter:url(#filter9892);font-family:DroidSans;-inkscape-font-specification:DroidSans Bold"
       id="use10088">
      <path
         d="m -17.244043,0.78093394 0.08408,0.0266602 c -0.01289,0.0468751 -0.03433,0.0816895 -0.06431,0.10444336 -0.02998,0.0227539 -0.06802,0.0341309 -0.114111,0.0341309 -0.05703,0 -0.103906,-0.0194824 -0.140625,-0.0584473 -0.03672,-0.0389648 -0.05508,-0.0922362 -0.05508,-0.15981446 0,-0.0714841 0.01846,-0.12700162 0.05537,-0.16655274 0.03691,-0.0395504 0.08545,-0.0593257 0.145606,-0.0593262 0.05254,4.4e-7 0.09521,0.0155278 0.128027,0.046582 0.01953,0.0183597 0.03418,0.0447269 0.04395,0.0791016 l -0.08584,0.0205078 c -0.0051,-0.0222653 -0.01567,-0.0398434 -0.03179,-0.0527344 -0.01611,-0.0128903 -0.03569,-0.0193356 -0.05874,-0.0193359 -0.03184,3.6e-7 -0.05767,0.0114261 -0.07749,0.0342773 -0.01983,0.0228519 -0.02974,0.0598636 -0.02974,0.11103516 0,0.0542971 0.0098,0.0929689 0.0293,0.11601563 0.01953,0.023047 0.04492,0.0345704 0.07617,0.0345703 0.02305,7e-8 0.04287,-0.007324 0.05947,-0.0219727 0.0166,-0.0146483 0.02851,-0.0376952 0.03574,-0.0691406 z"
         id="path11528"
          />
      <path
         d="m -17.107227,0.79909801 0.08438,-0.008203 c 0.0051,0.0283204 0.01538,0.0491212 0.03091,0.0624024 0.01553,0.0132813 0.03647,0.0199219 0.06284,0.0199219 0.02793,7e-8 0.04897,-0.005908 0.06313,-0.0177246 0.01416,-0.0118163 0.02124,-0.0256346 0.02124,-0.0414551 0,-0.0101561 -0.003,-0.0187987 -0.0089,-0.0259277 -0.006,-0.007129 -0.01636,-0.0133299 -0.0312,-0.0186035 -0.01016,-0.003515 -0.0333,-0.009765 -0.06943,-0.01875 -0.04648,-0.0115232 -0.0791,-0.0256834 -0.09785,-0.0424805 -0.02637,-0.0236326 -0.03955,-0.0524411 -0.03955,-0.0864258 0,-0.0218747 0.0062,-0.0423336 0.0186,-0.061377 0.0124,-0.0190426 0.03027,-0.0335445 0.05361,-0.0435059 0.02334,-0.009961 0.05151,-0.014941 0.08452,-0.0149414 0.05391,4.4e-7 0.09448,0.0118168 0.121729,0.0354492 0.02725,0.0236332 0.04155,0.0551761 0.04292,0.0946289 l -0.08672,0.003809 c -0.0037,-0.02207 -0.01167,-0.0379391 -0.02388,-0.0476074 -0.01221,-0.009668 -0.03052,-0.0145016 -0.05493,-0.0145019 -0.0252,3.6e-7 -0.04492,0.005176 -0.05918,0.0155273 -0.0092,0.006641 -0.01377,0.0155277 -0.01377,0.0266602 0,0.0101566 0.0043,0.018848 0.01289,0.0260742 0.01094,0.00918 0.0375,0.0187503 0.07969,0.0287109 0.04219,0.009961 0.07339,0.0202639 0.0936,0.0309082 0.02021,0.0106448 0.03603,0.0251955 0.04746,0.0436524 0.01142,0.0184572 0.01714,0.0412599 0.01714,0.0684082 0,0.0246095 -0.0068,0.0476563 -0.02051,0.0691406 -0.01367,0.0214844 -0.03301,0.0374512 -0.05801,0.0479004 -0.025,0.0104492 -0.05615,0.0156738 -0.09346,0.0156738 -0.0543,0 -0.096,-0.0125488 -0.125098,-0.0376465 -0.0291,-0.0250976 -0.04648,-0.0616698 -0.05215,-0.1097168 z"
         id="path11530"
          />
      <path
         d="m -16.402051,0.93884411 -0.08232,0 0,-0.15878907 c 0,-0.0335936 -0.0018,-0.0553221 -0.0053,-0.0651856 -0.0035,-0.009863 -0.0092,-0.0175291 -0.01714,-0.022998 -0.0079,-0.005468 -0.01743,-0.008203 -0.02857,-0.008203 -0.01426,2.6e-7 -0.02705,0.003907 -0.03838,0.0117188 -0.01133,0.007813 -0.01909,0.0181643 -0.02329,0.0310547 -0.0042,0.0128908 -0.0063,0.0367189 -0.0063,0.0714844 l 0,0.14091798 -0.08233,0 0,-0.31113283 0.07647,0 0,0.0457031 c 0.02715,-0.035156 0.06133,-0.0527341 0.102539,-0.0527344 0.01816,3.2e-7 0.03477,0.003272 0.0498,0.009814 0.01504,0.006543 0.02642,0.0148929 0.03413,0.0250488 0.0077,0.0101565 0.01309,0.02168 0.01611,0.0345703 0.003,0.0128909 0.0045,0.0313479 0.0045,0.0553711 z"
         id="path11532"
          />
    </g>
    <g
       transform="matrix(3.543307,0,0,3.543307,3.4815408,36.276653)"
       style="font-size:0.60000002px;font-style:normal;font-variant:normal;font-weight:bold;font-stretch:normal;text-align:start;line-height:125%;letter-spacing:0px;word-spacing:0px;writing-mode:lr-tb;text-anchor:start;fill:#ffffff;fill-opacity:1;stroke:none;filter:url(#filter9892);font-family:DroidSans;-inkscape-font-specification:DroidSans Bold"
       id="use10090">
      <path
         d="m -17.517969,0.93884411 0,-0.42949221 0.08438,0 0.175782,0.28681642 0,-0.28681642 0.08057,0 0,0.42949221 -0.08701,0 -0.173144,-0.28007814 0,0.28007814 z"
         id="path11535"
          />
      <path
         d="m -16.810449,0.78093394 0.08408,0.0266602 c -0.01289,0.0468751 -0.03433,0.0816895 -0.06431,0.10444336 -0.02998,0.0227539 -0.06802,0.0341309 -0.114111,0.0341309 -0.05703,0 -0.103906,-0.0194824 -0.140625,-0.0584473 -0.03672,-0.0389648 -0.05508,-0.0922362 -0.05508,-0.15981446 0,-0.0714841 0.01846,-0.12700162 0.05537,-0.16655274 0.03691,-0.0395504 0.08545,-0.0593257 0.145605,-0.0593262 0.05254,4.4e-7 0.09522,0.0155278 0.128028,0.046582 0.01953,0.0183597 0.03418,0.0447269 0.04395,0.0791016 l -0.08584,0.0205078 c -0.0051,-0.0222653 -0.01567,-0.0398434 -0.03179,-0.0527344 -0.01611,-0.0128903 -0.03569,-0.0193356 -0.05874,-0.0193359 -0.03184,3.6e-7 -0.05767,0.0114261 -0.07749,0.0342773 -0.01983,0.0228519 -0.02974,0.0598636 -0.02974,0.11103516 0,0.0542971 0.0098,0.0929689 0.0293,0.11601563 0.01953,0.023047 0.04492,0.0345704 0.07617,0.0345703 0.02305,7e-8 0.04287,-0.007324 0.05947,-0.0219727 0.0166,-0.0146483 0.02852,-0.0376952 0.03574,-0.0691406 z"
         id="path11537"
          />
    </g>
    <g
       transform="matrix(3.543307,0,0,3.543307,3.5456746,46.124389)"
       style="font-size:0.60000002px;font-style:normal;font-variant:normal;font-weight:bold;font-stretch:normal;text-align:start;line-height:125%;letter-spacing:0px;word-spacing:0px;writing-mode:lr-tb;text-anchor:start;fill:#ffffff;fill-opacity:1;stroke:none;filter:url(#filter9892);font-family:DroidSans;-inkscape-font-specification:DroidSans Bold"
       id="use10092">
      <path
         d="m -17.517969,0.93884411 0,-0.42949221 0.08438,0 0.175782,0.28681642 0,-0.28681642 0.08057,0 0,0.42949221 -0.08701,0 -0.173144,-0.28007814 0,0.28007814 z"
         id="path11540"
          />
      <path
         d="m -16.810449,0.78093394 0.08408,0.0266602 c -0.01289,0.0468751 -0.03433,0.0816895 -0.06431,0.10444336 -0.02998,0.0227539 -0.06802,0.0341309 -0.114111,0.0341309 -0.05703,0 -0.103906,-0.0194824 -0.140625,-0.0584473 -0.03672,-0.0389648 -0.05508,-0.0922362 -0.05508,-0.15981446 0,-0.0714841 0.01846,-0.12700162 0.05537,-0.16655274 0.03691,-0.0395504 0.08545,-0.0593257 0.145605,-0.0593262 0.05254,4.4e-7 0.09522,0.0155278 0.128028,0.046582 0.01953,0.0183597 0.03418,0.0447269 0.04395,0.0791016 l -0.08584,0.0205078 c -0.0051,-0.0222653 -0.01567,-0.0398434 -0.03179,-0.0527344 -0.01611,-0.0128903 -0.03569,-0.0193356 -0.05874,-0.0193359 -0.03184,3.6e-7 -0.05767,0.0114261 -0.07749,0.0342773 -0.01983,0.0228519 -0.02974,0.0598636 -0.02974,0.11103516 0,0.0542971 0.0098,0.0929689 0.0293,0.11601563 0.01953,0.023047 0.04492,0.0345704 0.07617,0.0345703 0.02305,7e-8 0.04287,-0.007324 0.05947,-0.0219727 0.0166,-0.0146483 0.02852,-0.0376952 0.03574,-0.0691406 z"
         id="path11542"
          />
    </g>
    <g
       transform="matrix(3.543307,0,0,3.543307,2.3593046,-12.961956)"
       style="font-size:0.60000002px;font-style:normal;font-variant:normal;font-weight:bold;font-stretch:normal;text-align:start;line-height:125%;letter-spacing:0px;word-spacing:0px;writing-mode:lr-tb;text-anchor:start;fill:#ffffff;fill-opacity:1;stroke:none;filter:url(#filter9892);font-family:DroidSans;-inkscape-font-specification:DroidSans Bold"
       id="use10094">
      <path
         d="m -17.409277,0.93884411 -0.153516,-0.42949221 0.09404,0 0.108691,0.31787111 0.105176,-0.31787111 0.09199,0 -0.153808,0.42949221 z"
         id="path11545"
          />
      <path
         d="m -16.843262,0.78093394 0.08408,0.0266602 c -0.01289,0.0468751 -0.03433,0.0816895 -0.06431,0.10444336 -0.02998,0.0227539 -0.06802,0.0341309 -0.114112,0.0341309 -0.05703,0 -0.103906,-0.0194824 -0.140625,-0.0584473 -0.03672,-0.0389648 -0.05508,-0.0922362 -0.05508,-0.15981446 0,-0.0714841 0.01846,-0.12700162 0.05537,-0.16655274 0.03691,-0.0395504 0.08545,-0.0593257 0.145606,-0.0593262 0.05254,4.4e-7 0.09521,0.0155278 0.128027,0.046582 0.01953,0.0183597 0.03418,0.0447269 0.04394,0.0791016 l -0.08584,0.0205078 c -0.0051,-0.0222653 -0.01567,-0.0398434 -0.03179,-0.0527344 -0.01611,-0.0128903 -0.03569,-0.0193356 -0.05874,-0.0193359 -0.03184,3.6e-7 -0.05767,0.0114261 -0.07749,0.0342773 -0.01982,0.0228519 -0.02974,0.0598636 -0.02974,0.11103516 0,0.0542971 0.0098,0.0929689 0.0293,0.11601563 0.01953,0.023047 0.04492,0.0345704 0.07617,0.0345703 0.02305,7e-8 0.04287,-0.007324 0.05947,-0.0219727 0.0166,-0.0146483 0.02851,-0.0376952 0.03574,-0.0691406 z"
         id="path11547"
          />
      <path
         d="m -16.409668,0.78093394 0.08408,0.0266602 c -0.01289,0.0468751 -0.03433,0.0816895 -0.06431,0.10444336 -0.02998,0.0227539 -0.06802,0.0341309 -0.114111,0.0341309 -0.05703,0 -0.103906,-0.0194824 -0.140625,-0.0584473 -0.03672,-0.0389648 -0.05508,-0.0922362 -0.05508,-0.15981446 0,-0.0714841 0.01846,-0.12700162 0.05537,-0.16655274 0.03691,-0.0395504 0.08545,-0.0593257 0.145606,-0.0593262 0.05254,4.4e-7 0.09521,0.0155278 0.128027,0.046582 0.01953,0.0183597 0.03418,0.0447269 0.04394,0.0791016 l -0.08584,0.0205078 c -0.0051,-0.0222653 -0.01567,-0.0398434 -0.03179,-0.0527344 -0.01611,-0.0128903 -0.03569,-0.0193356 -0.05874,-0.0193359 -0.03184,3.6e-7 -0.05767,0.0114261 -0.07749,0.0342773 -0.01982,0.0228519 -0.02974,0.0598636 -0.02974,0.11103516 0,0.0542971 0.0098,0.0929689 0.0293,0.11601563 0.01953,0.023047 0.04492,0.0345704 0.07617,0.0345703 0.02305,7e-8 0.04287,-0.007324 0.05947,-0.0219727 0.0166,-0.0146483 0.02851,-0.0376952 0.03574,-0.0691406 z"
         id="path11549"
          />
      <path
         d="m -16.267871,0.82839488 0.08203,-0.008496 c 0.0023,0.0185548 0.0093,0.033252 0.0208,0.0440918 0.01152,0.0108399 0.02481,0.0162598 0.03984,0.0162598 0.01719,6e-8 0.03174,-0.006982 0.04365,-0.0209473 0.01191,-0.0139648 0.01787,-0.0350097 0.01787,-0.0631348 0,-0.026367 -0.0059,-0.0461424 -0.01772,-0.0593262 -0.01182,-0.0131834 -0.0272,-0.0197752 -0.04614,-0.0197754 -0.02363,2.3e-7 -0.04482,0.0104494 -0.06357,0.0313477 l -0.0668,-0.009668 0.04219,-0.22353516 0.217676,0 0,0.0770508 -0.155273,0 -0.01289,0.0729492 c 0.01836,-0.009179 0.03711,-0.0137692 0.05625,-0.0137695 0.03652,2.9e-7 0.06748,0.0132815 0.09287,0.0398437 0.02539,0.0265627 0.03809,0.0610354 0.03809,0.10341798 0,0.0353517 -0.01025,0.0668946 -0.03076,0.0946289 -0.02793,0.0378906 -0.0667,0.0568359 -0.116309,0.0568359 -0.03965,0 -0.07197,-0.0106445 -0.09697,-0.0319336 -0.025,-0.021289 -0.03994,-0.0499023 -0.04482,-0.0858399 z"
         id="path11551"
          />
    </g>
    <g
       transform="matrix(3.543307,0,0,3.543307,2.3593046,-3.1783541)"
       style="font-size:0.60000002px;font-style:normal;font-variant:normal;font-weight:bold;font-stretch:normal;text-align:start;line-height:125%;letter-spacing:0px;word-spacing:0px;writing-mode:lr-tb;text-anchor:start;fill:#ffffff;fill-opacity:1;stroke:none;filter:url(#filter9892);font-family:DroidSans;-inkscape-font-specification:DroidSans Bold"
       id="use10096">
      <path
         d="m -17.409277,0.93884411 -0.153516,-0.42949221 0.09404,0 0.108691,0.31787111 0.105176,-0.31787111 0.09199,0 -0.153808,0.42949221 z"
         id="path11554"
          />
      <path
         d="m -16.843262,0.78093394 0.08408,0.0266602 c -0.01289,0.0468751 -0.03433,0.0816895 -0.06431,0.10444336 -0.02998,0.0227539 -0.06802,0.0341309 -0.114112,0.0341309 -0.05703,0 -0.103906,-0.0194824 -0.140625,-0.0584473 -0.03672,-0.0389648 -0.05508,-0.0922362 -0.05508,-0.15981446 0,-0.0714841 0.01846,-0.12700162 0.05537,-0.16655274 0.03691,-0.0395504 0.08545,-0.0593257 0.145606,-0.0593262 0.05254,4.4e-7 0.09521,0.0155278 0.128027,0.046582 0.01953,0.0183597 0.03418,0.0447269 0.04394,0.0791016 l -0.08584,0.0205078 c -0.0051,-0.0222653 -0.01567,-0.0398434 -0.03179,-0.0527344 -0.01611,-0.0128903 -0.03569,-0.0193356 -0.05874,-0.0193359 -0.03184,3.6e-7 -0.05767,0.0114261 -0.07749,0.0342773 -0.01982,0.0228519 -0.02974,0.0598636 -0.02974,0.11103516 0,0.0542971 0.0098,0.0929689 0.0293,0.11601563 0.01953,0.023047 0.04492,0.0345704 0.07617,0.0345703 0.02305,7e-8 0.04287,-0.007324 0.05947,-0.0219727 0.0166,-0.0146483 0.02851,-0.0376952 0.03574,-0.0691406 z"
         id="path11556"
          />
      <path
         d="m -16.409668,0.78093394 0.08408,0.0266602 c -0.01289,0.0468751 -0.03433,0.0816895 -0.06431,0.10444336 -0.02998,0.0227539 -0.06802,0.0341309 -0.114111,0.0341309 -0.05703,0 -0.103906,-0.0194824 -0.140625,-0.0584473 -0.03672,-0.0389648 -0.05508,-0.0922362 -0.05508,-0.15981446 0,-0.0714841 0.01846,-0.12700162 0.05537,-0.16655274 0.03691,-0.0395504 0.08545,-0.0593257 0.145606,-0.0593262 0.05254,4.4e-7 0.09521,0.0155278 0.128027,0.046582 0.01953,0.0183597 0.03418,0.0447269 0.04394,0.0791016 l -0.08584,0.0205078 c -0.0051,-0.0222653 -0.01567,-0.0398434 -0.03179,-0.0527344 -0.01611,-0.0128903 -0.03569,-0.0193356 -0.05874,-0.0193359 -0.03184,3.6e-7 -0.05767,0.0114261 -0.07749,0.0342773 -0.01982,0.0228519 -0.02974,0.0598636 -0.02974,0.11103516 0,0.0542971 0.0098,0.0929689 0.0293,0.11601563 0.01953,0.023047 0.04492,0.0345704 0.07617,0.0345703 0.02305,7e-8 0.04287,-0.007324 0.05947,-0.0219727 0.0166,-0.0146483 0.02851,-0.0376952 0.03574,-0.0691406 z"
         id="path11558"
          />
      <path
         d="m -16.271973,0.82487926 0.07969,-0.009668 c 0.0025,0.0203126 0.0094,0.0358399 0.02051,0.046582 0.01113,0.0107423 0.02461,0.0161133 0.04043,0.0161133 0.01699,6e-8 0.0313,-0.006445 0.04292,-0.0193359 0.01162,-0.0128905 0.01743,-0.0302733 0.01743,-0.0521484 0,-0.020703 -0.0056,-0.0371092 -0.0167,-0.0492188 -0.01113,-0.0121092 -0.02471,-0.0181639 -0.04072,-0.0181641 -0.01055,2e-7 -0.02314,0.002051 -0.03779,0.006152 l 0.0091,-0.0670898 c 0.02227,5.862e-4 0.03926,-0.004248 0.05098,-0.014502 0.01172,-0.0102536 0.01758,-0.0238767 0.01758,-0.0408691 0,-0.0144528 -0.0043,-0.0259762 -0.01289,-0.0345703 -0.0086,-0.008593 -0.02002,-0.0128903 -0.03428,-0.0128906 -0.01406,3.7e-7 -0.02607,0.004883 -0.03603,0.0146484 -0.01,0.009766 -0.01602,0.0240238 -0.01816,0.0427734 l -0.07588,-0.0128906 c 0.0053,-0.0259762 0.01323,-0.0467281 0.02388,-0.0622559 0.01064,-0.0155269 0.02549,-0.027734 0.04453,-0.0366211 0.01904,-0.008886 0.04038,-0.0133296 0.06401,-0.0133301 0.04043,4.3e-7 0.07285,0.012891 0.09727,0.0386719 0.02012,0.0210941 0.03018,0.0449222 0.03018,0.0714844 0,0.0376956 -0.02061,0.0677737 -0.06182,0.0902344 0.02461,0.005274 0.04429,0.0170901 0.05903,0.0354492 0.01475,0.0183596 0.02212,0.0405275 0.02212,0.0665039 0,0.0376954 -0.01377,0.0698243 -0.04131,0.0963867 -0.02754,0.0265625 -0.06182,0.0398437 -0.102832,0.0398437 -0.03887,0 -0.07109,-0.0111816 -0.09668,-0.0335449 -0.02559,-0.0223632 -0.04043,-0.0516112 -0.04453,-0.0877441 z"
         id="path11560"
          />
    </g>
    <g
       transform="matrix(3.543307,0,0,3.543307,12.680037,56.260692)"
       style="font-size:0.60000002px;font-style:normal;font-variant:normal;font-weight:bold;font-stretch:normal;text-align:start;line-height:125%;letter-spacing:0px;word-spacing:0px;writing-mode:lr-tb;text-anchor:start;fill:#ffffff;fill-opacity:1;stroke:none;filter:url(#filter9892);font-family:DroidSans;-inkscape-font-specification:DroidSans Bold"
       id="use10098">
      <path
         d="m -17.319043,0.78093394 0,-0.0723633 0.186914,0 0,0.17109376 c -0.01816,0.0175782 -0.04448,0.0330567 -0.07896,0.0464355 -0.03447,0.0133789 -0.06939,0.0200684 -0.104736,0.0200684 -0.04492,0 -0.08408,-0.009424 -0.117481,-0.0282715 -0.0334,-0.0188476 -0.0585,-0.0458007 -0.07529,-0.0808594 -0.0168,-0.0350585 -0.0252,-0.0731932 -0.0252,-0.1144043 0,-0.0447263 0.0094,-0.0844724 0.02812,-0.11923829 0.01875,-0.0347653 0.04619,-0.0614254 0.08232,-0.0799805 0.02754,-0.0142574 0.06182,-0.0213863 0.102832,-0.0213867 0.05332,4.4e-7 0.09497,0.0111821 0.124951,0.0335449 0.02998,0.0223637 0.04927,0.0532718 0.05786,0.0927246 l -0.08613,0.0161133 c -0.0061,-0.0210934 -0.01743,-0.0377438 -0.03413,-0.0499512 -0.0167,-0.0122067 -0.03755,-0.0183102 -0.06255,-0.0183105 -0.03789,3.6e-7 -0.06802,0.0120121 -0.09038,0.0360352 -0.02236,0.0240237 -0.03355,0.0596682 -0.03355,0.10693359 0,0.0509767 0.01133,0.0892091 0.03399,0.11469727 0.02266,0.0254884 0.05234,0.0382325 0.08906,0.0382324 0.01816,7e-8 0.03638,-0.003564 0.05464,-0.0106934 0.01826,-0.007129 0.03393,-0.0157714 0.04702,-0.0259277 l 0,-0.0544922 z"
         id="path11563"
          />
      <path
         d="m -17.051562,0.93884411 0,-0.42949221 0.08438,0 0.175781,0.28681642 0,-0.28681642 0.08057,0 0,0.42949221 -0.08701,0 -0.173144,-0.28007814 0,0.28007814 z"
         id="path11565"
          />
      <path
         d="m -16.619141,0.5093519 0.158497,0 c 0.03574,4.3e-7 0.06299,0.002735 0.08174,0.008203 0.0252,0.007422 0.04678,0.0206059 0.06475,0.0395508 0.01797,0.0189457 0.03164,0.042139 0.04102,0.0695801 0.0094,0.0274417 0.01406,0.0612796 0.01406,0.10151368 0,0.0353517 -0.0044,0.0658205 -0.01318,0.0914063 -0.01074,0.0312501 -0.02607,0.056543 -0.046,0.0758789 -0.01504,0.0146485 -0.03535,0.0260742 -0.06094,0.0342773 -0.01914,0.006055 -0.04473,0.009082 -0.07676,0.009082 l -0.163184,0 z m 0.08672,0.0726562 0,0.28447267 0.06475,0 c 0.02422,7e-8 0.0417,-0.001367 0.05244,-0.004102 0.01406,-0.003516 0.02573,-0.009473 0.03501,-0.0178711 0.0093,-0.008398 0.01685,-0.0222167 0.02271,-0.0414551 0.0059,-0.0192381 0.0088,-0.0454588 0.0088,-0.0786621 -10e-7,-0.0332029 -0.0029,-0.0586911 -0.0088,-0.0764648 -0.0059,-0.0177731 -0.01406,-0.0316403 -0.02461,-0.0416016 -0.01055,-0.009961 -0.02393,-0.0166989 -0.04014,-0.0202148 -0.01211,-0.002734 -0.03584,-0.004101 -0.07119,-0.004102 z"
         id="path11567"
          />
    </g>
    <g
       transform="matrix(3.543307,0,0,3.543307,11.8143,6.7014488)"
       style="font-size:0.60000002px;font-style:normal;font-variant:normal;font-weight:bold;font-stretch:normal;text-align:start;line-height:125%;letter-spacing:0px;word-spacing:0px;writing-mode:lr-tb;text-anchor:start;fill:#ffffff;fill-opacity:1;stroke:none;filter:url(#filter9892);font-family:DroidSans;-inkscape-font-specification:DroidSans Bold"
       id="use10100">
      <path
         d="m -17.54082,0.79909801 0.08438,-0.008203 c 0.0051,0.0283204 0.01538,0.0491212 0.03091,0.0624024 0.01553,0.0132813 0.03647,0.0199219 0.06284,0.0199219 0.02793,7e-8 0.04897,-0.005908 0.06313,-0.0177246 0.01416,-0.0118163 0.02124,-0.0256346 0.02124,-0.0414551 -10e-7,-0.0101561 -0.003,-0.0187987 -0.0089,-0.0259277 -0.006,-0.007129 -0.01636,-0.0133299 -0.0312,-0.0186035 -0.01016,-0.003515 -0.0333,-0.009765 -0.06943,-0.01875 -0.04648,-0.0115232 -0.0791,-0.0256834 -0.09785,-0.0424805 -0.02637,-0.0236326 -0.03955,-0.0524411 -0.03955,-0.0864258 0,-0.0218747 0.0062,-0.0423336 0.0186,-0.061377 0.0124,-0.0190426 0.03027,-0.0335445 0.05361,-0.0435059 0.02334,-0.009961 0.05151,-0.014941 0.08452,-0.0149414 0.05391,4.4e-7 0.09448,0.0118168 0.121729,0.0354492 0.02725,0.0236332 0.04155,0.0551761 0.04292,0.0946289 l -0.08672,0.003809 c -0.0037,-0.02207 -0.01167,-0.0379391 -0.02388,-0.0476074 -0.01221,-0.009668 -0.03052,-0.0145016 -0.05493,-0.0145019 -0.0252,3.6e-7 -0.04492,0.005176 -0.05918,0.0155273 -0.0092,0.006641 -0.01377,0.0155277 -0.01377,0.0266602 0,0.0101566 0.0043,0.018848 0.01289,0.0260742 0.01094,0.00918 0.0375,0.0187503 0.07969,0.0287109 0.04219,0.009961 0.07339,0.0202639 0.0936,0.0309082 0.02021,0.0106448 0.03604,0.0251955 0.04746,0.0436524 0.01142,0.0184572 0.01714,0.0412599 0.01714,0.0684082 0,0.0246095 -0.0068,0.0476563 -0.02051,0.0691406 -0.01367,0.0214844 -0.03301,0.0374512 -0.05801,0.0479004 -0.025,0.0104492 -0.05615,0.0156738 -0.09346,0.0156738 -0.0543,0 -0.096,-0.0125488 -0.125098,-0.0376465 -0.0291,-0.0250976 -0.04648,-0.0616698 -0.05215,-0.1097168 z"
         id="path11570"
          />
      <path
         d="m -16.843262,0.78093394 0.08408,0.0266602 c -0.01289,0.0468751 -0.03433,0.0816895 -0.06431,0.10444336 -0.02998,0.0227539 -0.06802,0.0341309 -0.114112,0.0341309 -0.05703,0 -0.103906,-0.0194824 -0.140625,-0.0584473 -0.03672,-0.0389648 -0.05508,-0.0922362 -0.05508,-0.15981446 0,-0.0714841 0.01846,-0.12700162 0.05537,-0.16655274 0.03691,-0.0395504 0.08545,-0.0593257 0.145606,-0.0593262 0.05254,4.4e-7 0.09521,0.0155278 0.128027,0.046582 0.01953,0.0183597 0.03418,0.0447269 0.04394,0.0791016 l -0.08584,0.0205078 c -0.0051,-0.0222653 -0.01567,-0.0398434 -0.03179,-0.0527344 -0.01611,-0.0128903 -0.03569,-0.0193356 -0.05874,-0.0193359 -0.03184,3.6e-7 -0.05767,0.0114261 -0.07749,0.0342773 -0.01982,0.0228519 -0.02974,0.0598636 -0.02974,0.11103516 0,0.0542971 0.0098,0.0929689 0.0293,0.11601563 0.01953,0.023047 0.04492,0.0345704 0.07617,0.0345703 0.02305,7e-8 0.04287,-0.007324 0.05947,-0.0219727 0.0166,-0.0146483 0.02851,-0.0376952 0.03574,-0.0691406 z"
         id="path11572"
          />
      <path
         d="m -16.682129,0.93884411 0,-0.42597658 0.08672,0 0,0.35361329 0.215625,0 0,0.0723633 z"
         id="path11574"
          />
      <path
         d="m -16.316504,0.93884411 0,-0.42949221 0.08672,0 0,0.19072267 0.175195,-0.19072267 0.116602,0 -0.161719,0.16728516 0.170508,0.26220705 -0.112207,0 -0.118067,-0.20156251 -0.07031,0.0717773 0,0.12978517 z"
         id="path11576"
          />
    </g>
    <g
       transform="matrix(3.543307,0,0,3.543307,11.846367,16.549149)"
       style="font-size:0.60000002px;font-style:normal;font-variant:normal;font-weight:bold;font-stretch:normal;text-align:start;line-height:125%;letter-spacing:0px;word-spacing:0px;writing-mode:lr-tb;text-anchor:start;fill:#ffffff;fill-opacity:1;stroke:none;filter:url(#filter9892);font-family:DroidSans;-inkscape-font-specification:DroidSans Bold"
       id="use10102">
      <path
         d="m -17.319043,0.78093394 0,-0.0723633 0.186914,0 0,0.17109376 c -0.01816,0.0175782 -0.04448,0.0330567 -0.07896,0.0464355 -0.03447,0.0133789 -0.06939,0.0200684 -0.104736,0.0200684 -0.04492,0 -0.08408,-0.009424 -0.117481,-0.0282715 -0.0334,-0.0188476 -0.0585,-0.0458007 -0.07529,-0.0808594 -0.0168,-0.0350585 -0.0252,-0.0731932 -0.0252,-0.1144043 0,-0.0447263 0.0094,-0.0844724 0.02812,-0.11923829 0.01875,-0.0347653 0.04619,-0.0614254 0.08232,-0.0799805 0.02754,-0.0142574 0.06182,-0.0213863 0.102832,-0.0213867 0.05332,4.4e-7 0.09497,0.0111821 0.124951,0.0335449 0.02998,0.0223637 0.04927,0.0532718 0.05786,0.0927246 l -0.08613,0.0161133 c -0.0061,-0.0210934 -0.01743,-0.0377438 -0.03413,-0.0499512 -0.0167,-0.0122067 -0.03755,-0.0183102 -0.06255,-0.0183105 -0.03789,3.6e-7 -0.06802,0.0120121 -0.09038,0.0360352 -0.02236,0.0240237 -0.03355,0.0596682 -0.03355,0.10693359 0,0.0509767 0.01133,0.0892091 0.03399,0.11469727 0.02266,0.0254884 0.05234,0.0382325 0.08906,0.0382324 0.01816,7e-8 0.03638,-0.003564 0.05464,-0.0106934 0.01826,-0.007129 0.03393,-0.0157714 0.04702,-0.0259277 l 0,-0.0544922 z"
         id="path11579"
          />
      <path
         d="m -17.052734,0.5093519 0.158496,0 c 0.03574,4.3e-7 0.06299,0.002735 0.08174,0.008203 0.0252,0.007422 0.04678,0.0206059 0.06475,0.0395508 0.01797,0.0189457 0.03164,0.042139 0.04102,0.0695801 0.0094,0.0274417 0.01406,0.0612796 0.01406,0.10151368 0,0.0353517 -0.0044,0.0658205 -0.01318,0.0914063 -0.01074,0.0312501 -0.02607,0.056543 -0.046,0.0758789 -0.01504,0.0146485 -0.03535,0.0260742 -0.06094,0.0342773 -0.01914,0.006055 -0.04473,0.009082 -0.07676,0.009082 l -0.163183,0 z m 0.08672,0.0726562 0,0.28447267 0.06475,0 c 0.02422,7e-8 0.0417,-0.001367 0.05244,-0.004102 0.01406,-0.003516 0.02573,-0.009473 0.03501,-0.0178711 0.0093,-0.008398 0.01685,-0.0222167 0.02271,-0.0414551 0.0059,-0.0192381 0.0088,-0.0454588 0.0088,-0.0786621 -1e-6,-0.0332029 -0.0029,-0.0586911 -0.0088,-0.0764648 -0.0059,-0.0177731 -0.01406,-0.0316403 -0.02461,-0.0416016 -0.01055,-0.009961 -0.02393,-0.0166989 -0.04014,-0.0202148 -0.01211,-0.002734 -0.03584,-0.004101 -0.07119,-0.004102 z"
         id="path11581"
          />
      <path
         d="m -16.636426,0.72673472 c 0,-0.0437497 0.0065,-0.0804685 0.01963,-0.11015625 0.0098,-0.0218747 0.0231,-0.0415035 0.03999,-0.0588867 0.01689,-0.0173824 0.0354,-0.030273 0.05552,-0.0386719 0.02676,-0.0113277 0.05762,-0.0169918 0.09258,-0.0169922 0.06328,4.4e-7 0.113916,0.0196293 0.151904,0.0588867 0.03799,0.0392582 0.05698,0.093848 0.05698,0.16376954 -1e-6,0.0693361 -0.01885,0.12358408 -0.05654,0.16274415 -0.0377,0.0391602 -0.08809,0.0587402 -0.151172,0.0587402 -0.06387,0 -0.114649,-0.0194824 -0.152344,-0.0584473 -0.0377,-0.0389648 -0.05654,-0.0926268 -0.05654,-0.16098634 z m 0.08936,-0.00293 c 0,0.048633 0.01123,0.0854982 0.03369,0.11059571 0.02246,0.0250977 0.05098,0.0376466 0.08555,0.0376465 0.03457,7e-8 0.06294,-0.0124511 0.08511,-0.0373535 0.02217,-0.0249022 0.03325,-0.0622557 0.03325,-0.11206055 0,-0.0492185 -0.01079,-0.0859372 -0.03237,-0.11015625 -0.02158,-0.0242184 -0.05024,-0.0363278 -0.08599,-0.0363281 -0.03574,3.6e-7 -0.06455,0.0122562 -0.08643,0.0367676 -0.02187,0.024512 -0.03281,0.0614749 -0.03281,0.11088867 z"
         id="path11583"
          />
      <path
         d="m -15.892578,0.86237926 0,0.0764649 -0.288574,0 c 0.0031,-0.0289062 0.0125,-0.0562988 0.02812,-0.0821777 0.01563,-0.0258788 0.04648,-0.0602049 0.09258,-0.10297852 0.03711,-0.0345701 0.05986,-0.0580076 0.06826,-0.0703125 0.01133,-0.0169919 0.01699,-0.0337888 0.01699,-0.0503906 0,-0.018359 -0.0049,-0.0324704 -0.0148,-0.042334 -0.0099,-0.009863 -0.02349,-0.0147946 -0.04087,-0.0147949 -0.01719,3.6e-7 -0.03086,0.005176 -0.04102,0.0155273 -0.01016,0.0103519 -0.01602,0.0275394 -0.01758,0.0515625 l -0.08203,-0.008203 c 0.0049,-0.0453121 0.02021,-0.0778317 0.046,-0.0975586 0.02578,-0.0197261 0.05801,-0.0295894 0.09668,-0.0295898 0.04238,4.3e-7 0.07568,0.0114262 0.0999,0.0342773 0.02422,0.0228519 0.03633,0.0512699 0.03633,0.0852539 0,0.0193362 -0.0035,0.0377444 -0.0104,0.0552246 -0.0069,0.0174807 -0.01792,0.0357912 -0.03296,0.0549316 -0.01,0.0126955 -0.02793,0.0309572 -0.05391,0.0547852 -0.02598,0.0238282 -0.04243,0.0396485 -0.04936,0.0474609 -0.0069,0.007813 -0.01255,0.0154298 -0.01685,0.0228516 z"
         id="path11585"
          />
    </g>
    <g
       transform="matrix(3.543307,0,0,3.543307,11.846367,26.428917)"
       style="font-size:0.60000002px;font-style:normal;font-variant:normal;font-weight:bold;font-stretch:normal;text-align:start;line-height:125%;letter-spacing:0px;word-spacing:0px;writing-mode:lr-tb;text-anchor:start;fill:#ffffff;fill-opacity:1;stroke:none;filter:url(#filter9892);font-family:DroidSans;-inkscape-font-specification:DroidSans Bold"
       id="use10104">
      <path
         d="m -17.319043,0.78093394 0,-0.0723633 0.186914,0 0,0.17109376 c -0.01816,0.0175782 -0.04448,0.0330567 -0.07896,0.0464355 -0.03447,0.0133789 -0.06939,0.0200684 -0.104736,0.0200684 -0.04492,0 -0.08408,-0.009424 -0.117481,-0.0282715 -0.0334,-0.0188476 -0.0585,-0.0458007 -0.07529,-0.0808594 -0.0168,-0.0350585 -0.0252,-0.0731932 -0.0252,-0.1144043 0,-0.0447263 0.0094,-0.0844724 0.02812,-0.11923829 0.01875,-0.0347653 0.04619,-0.0614254 0.08232,-0.0799805 0.02754,-0.0142574 0.06182,-0.0213863 0.102832,-0.0213867 0.05332,4.4e-7 0.09497,0.0111821 0.124951,0.0335449 0.02998,0.0223637 0.04927,0.0532718 0.05786,0.0927246 l -0.08613,0.0161133 c -0.0061,-0.0210934 -0.01743,-0.0377438 -0.03413,-0.0499512 -0.0167,-0.0122067 -0.03755,-0.0183102 -0.06255,-0.0183105 -0.03789,3.6e-7 -0.06802,0.0120121 -0.09038,0.0360352 -0.02236,0.0240237 -0.03355,0.0596682 -0.03355,0.10693359 0,0.0509767 0.01133,0.0892091 0.03399,0.11469727 0.02266,0.0254884 0.05234,0.0382325 0.08906,0.0382324 0.01816,7e-8 0.03638,-0.003564 0.05464,-0.0106934 0.01826,-0.007129 0.03393,-0.0157714 0.04702,-0.0259277 l 0,-0.0544922 z"
         id="path11588"
          />
      <path
         d="m -17.052734,0.5093519 0.158496,0 c 0.03574,4.3e-7 0.06299,0.002735 0.08174,0.008203 0.0252,0.007422 0.04678,0.0206059 0.06475,0.0395508 0.01797,0.0189457 0.03164,0.042139 0.04102,0.0695801 0.0094,0.0274417 0.01406,0.0612796 0.01406,0.10151368 0,0.0353517 -0.0044,0.0658205 -0.01318,0.0914063 -0.01074,0.0312501 -0.02607,0.056543 -0.046,0.0758789 -0.01504,0.0146485 -0.03535,0.0260742 -0.06094,0.0342773 -0.01914,0.006055 -0.04473,0.009082 -0.07676,0.009082 l -0.163183,0 z m 0.08672,0.0726562 0,0.28447267 0.06475,0 c 0.02422,7e-8 0.0417,-0.001367 0.05244,-0.004102 0.01406,-0.003516 0.02573,-0.009473 0.03501,-0.0178711 0.0093,-0.008398 0.01685,-0.0222167 0.02271,-0.0414551 0.0059,-0.0192381 0.0088,-0.0454588 0.0088,-0.0786621 -1e-6,-0.0332029 -0.0029,-0.0586911 -0.0088,-0.0764648 -0.0059,-0.0177731 -0.01406,-0.0316403 -0.02461,-0.0416016 -0.01055,-0.009961 -0.02393,-0.0166989 -0.04014,-0.0202148 -0.01211,-0.002734 -0.03584,-0.004101 -0.07119,-0.004102 z"
         id="path11590"
          />
      <path
         d="m -16.636426,0.72673472 c 0,-0.0437497 0.0065,-0.0804685 0.01963,-0.11015625 0.0098,-0.0218747 0.0231,-0.0415035 0.03999,-0.0588867 0.01689,-0.0173824 0.0354,-0.030273 0.05552,-0.0386719 0.02676,-0.0113277 0.05762,-0.0169918 0.09258,-0.0169922 0.06328,4.4e-7 0.113916,0.0196293 0.151904,0.0588867 0.03799,0.0392582 0.05698,0.093848 0.05698,0.16376954 -1e-6,0.0693361 -0.01885,0.12358408 -0.05654,0.16274415 -0.0377,0.0391602 -0.08809,0.0587402 -0.151172,0.0587402 -0.06387,0 -0.114649,-0.0194824 -0.152344,-0.0584473 -0.0377,-0.0389648 -0.05654,-0.0926268 -0.05654,-0.16098634 z m 0.08936,-0.00293 c 0,0.048633 0.01123,0.0854982 0.03369,0.11059571 0.02246,0.0250977 0.05098,0.0376466 0.08555,0.0376465 0.03457,7e-8 0.06294,-0.0124511 0.08511,-0.0373535 0.02217,-0.0249022 0.03325,-0.0622557 0.03325,-0.11206055 0,-0.0492185 -0.01079,-0.0859372 -0.03237,-0.11015625 -0.02158,-0.0242184 -0.05024,-0.0363278 -0.08599,-0.0363281 -0.03574,3.6e-7 -0.06455,0.0122562 -0.08643,0.0367676 -0.02187,0.024512 -0.03281,0.0614749 -0.03281,0.11088867 z"
         id="path11592"
          />
      <path
         d="m -16.031445,0.50759409 c 0.0416,4.3e-7 0.07412,0.0148442 0.09756,0.0445313 0.02793,0.0351566 0.0419,0.0934573 0.0419,0.17490235 0,0.0812501 -0.01406,0.13964852 -0.04219,0.17519532 -0.02324,0.0292969 -0.05566,0.0439453 -0.09727,0.0439453 -0.0418,0 -0.07549,-0.0160644 -0.101074,-0.0481934 -0.02559,-0.0321288 -0.03838,-0.0894042 -0.03838,-0.17182618 0,-0.0808591 0.01406,-0.13906215 0.04219,-0.17460938 0.02324,-0.0292965 0.05566,-0.0439449 0.09727,-0.0439453 z m 0,0.0682617 c -0.01,3.6e-7 -0.01885,0.003174 -0.02666,0.009521 -0.0078,0.006348 -0.01387,0.0177249 -0.01816,0.0341309 -0.0057,0.0212894 -0.0085,0.0571292 -0.0085,0.10751953 0,0.0503908 0.0025,0.0850099 0.0076,0.10385743 0.0051,0.0188477 0.01147,0.0313966 0.01919,0.0376465 0.0077,0.00625 0.01655,0.009375 0.02651,0.009375 0.01,6e-8 0.01885,-0.003174 0.02666,-0.009521 0.0078,-0.006348 0.01387,-0.0177245 0.01816,-0.0341309 0.0057,-0.0210936 0.0085,-0.0568358 0.0085,-0.10722657 0,-0.0503904 -0.0025,-0.0850095 -0.0076,-0.10385742 -0.0051,-0.0188473 -0.01147,-0.031445 -0.01919,-0.037793 -0.0077,-0.006347 -0.01655,-0.009521 -0.02651,-0.009521 z"
         id="path11594"
          />
    </g>
    <g
       transform="matrix(3.543307,0,0,3.543307,13.417505,36.372854)"
       style="font-size:0.60000002px;font-style:normal;font-variant:normal;font-weight:bold;font-stretch:normal;text-align:start;line-height:125%;letter-spacing:0px;word-spacing:0px;writing-mode:lr-tb;text-anchor:start;fill:#ffffff;fill-opacity:1;stroke:none;filter:url(#filter9892);font-family:DroidSans;-inkscape-font-specification:DroidSans Bold"
       id="use10106">
      <path
         d="m -17.517969,0.93884411 0,-0.42949221 0.08438,0 0.175782,0.28681642 0,-0.28681642 0.08057,0 0,0.42949221 -0.08701,0 -0.173144,-0.28007814 0,0.28007814 z"
         id="path11597"
          />
      <path
         d="m -16.810449,0.78093394 0.08408,0.0266602 c -0.01289,0.0468751 -0.03433,0.0816895 -0.06431,0.10444336 -0.02998,0.0227539 -0.06802,0.0341309 -0.114111,0.0341309 -0.05703,0 -0.103906,-0.0194824 -0.140625,-0.0584473 -0.03672,-0.0389648 -0.05508,-0.0922362 -0.05508,-0.15981446 0,-0.0714841 0.01846,-0.12700162 0.05537,-0.16655274 0.03691,-0.0395504 0.08545,-0.0593257 0.145605,-0.0593262 0.05254,4.4e-7 0.09522,0.0155278 0.128028,0.046582 0.01953,0.0183597 0.03418,0.0447269 0.04395,0.0791016 l -0.08584,0.0205078 c -0.0051,-0.0222653 -0.01567,-0.0398434 -0.03179,-0.0527344 -0.01611,-0.0128903 -0.03569,-0.0193356 -0.05874,-0.0193359 -0.03184,3.6e-7 -0.05767,0.0114261 -0.07749,0.0342773 -0.01983,0.0228519 -0.02974,0.0598636 -0.02974,0.11103516 0,0.0542971 0.0098,0.0929689 0.0293,0.11601563 0.01953,0.023047 0.04492,0.0345704 0.07617,0.0345703 0.02305,7e-8 0.04287,-0.007324 0.05947,-0.0219727 0.0166,-0.0146483 0.02852,-0.0376952 0.03574,-0.0691406 z"
         id="path11599"
          />
    </g>
    <g
       transform="matrix(3.543307,0,0,3.543307,13.385438,46.156456)"
       style="font-size:0.60000002px;font-style:normal;font-variant:normal;font-weight:bold;font-stretch:normal;text-align:start;line-height:125%;letter-spacing:0px;word-spacing:0px;writing-mode:lr-tb;text-anchor:start;fill:#ffffff;fill-opacity:1;stroke:none;filter:url(#filter9892);font-family:DroidSans;-inkscape-font-specification:DroidSans Bold"
       id="use10108">
      <path
         d="m -17.517969,0.93884411 0,-0.42949221 0.08438,0 0.175782,0.28681642 0,-0.28681642 0.08057,0 0,0.42949221 -0.08701,0 -0.173144,-0.28007814 0,0.28007814 z"
         id="path11602"
          />
      <path
         d="m -16.810449,0.78093394 0.08408,0.0266602 c -0.01289,0.0468751 -0.03433,0.0816895 -0.06431,0.10444336 -0.02998,0.0227539 -0.06802,0.0341309 -0.114111,0.0341309 -0.05703,0 -0.103906,-0.0194824 -0.140625,-0.0584473 -0.03672,-0.0389648 -0.05508,-0.0922362 -0.05508,-0.15981446 0,-0.0714841 0.01846,-0.12700162 0.05537,-0.16655274 0.03691,-0.0395504 0.08545,-0.0593257 0.145605,-0.0593262 0.05254,4.4e-7 0.09522,0.0155278 0.128028,0.046582 0.01953,0.0183597 0.03418,0.0447269 0.04395,0.0791016 l -0.08584,0.0205078 c -0.0051,-0.0222653 -0.01567,-0.0398434 -0.03179,-0.0527344 -0.01611,-0.0128903 -0.03569,-0.0193356 -0.05874,-0.0193359 -0.03184,3.6e-7 -0.05767,0.0114261 -0.07749,0.0342773 -0.01983,0.0228519 -0.02974,0.0598636 -0.02974,0.11103516 0,0.0542971 0.0098,0.0929689 0.0293,0.11601563 0.01953,0.023047 0.04492,0.0345704 0.07617,0.0345703 0.02305,7e-8 0.04287,-0.007324 0.05947,-0.0219727 0.0166,-0.0146483 0.02852,-0.0376952 0.03574,-0.0691406 z"
         id="path11604"
          />
    </g>
    <g
       transform="matrix(3.543307,0,0,3.543307,2.6478715,56.324826)"
       style="font-size:0.60000002px;font-style:normal;font-variant:normal;font-weight:bold;font-stretch:normal;text-align:start;line-height:125%;letter-spacing:0px;word-spacing:0px;writing-mode:lr-tb;text-anchor:start;fill:#ffffff;fill-opacity:1;stroke:none;filter:url(#filter9892);font-family:DroidSans;-inkscape-font-specification:DroidSans Bold"
       id="use10110">
      <path
         d="m -17.319043,0.78093394 0,-0.0723633 0.186914,0 0,0.17109376 c -0.01816,0.0175782 -0.04448,0.0330567 -0.07896,0.0464355 -0.03447,0.0133789 -0.06939,0.0200684 -0.104736,0.0200684 -0.04492,0 -0.08408,-0.009424 -0.117481,-0.0282715 -0.0334,-0.0188476 -0.0585,-0.0458007 -0.07529,-0.0808594 -0.0168,-0.0350585 -0.0252,-0.0731932 -0.0252,-0.1144043 0,-0.0447263 0.0094,-0.0844724 0.02812,-0.11923829 0.01875,-0.0347653 0.04619,-0.0614254 0.08232,-0.0799805 0.02754,-0.0142574 0.06182,-0.0213863 0.102832,-0.0213867 0.05332,4.4e-7 0.09497,0.0111821 0.124951,0.0335449 0.02998,0.0223637 0.04927,0.0532718 0.05786,0.0927246 l -0.08613,0.0161133 c -0.0061,-0.0210934 -0.01743,-0.0377438 -0.03413,-0.0499512 -0.0167,-0.0122067 -0.03755,-0.0183102 -0.06255,-0.0183105 -0.03789,3.6e-7 -0.06802,0.0120121 -0.09038,0.0360352 -0.02236,0.0240237 -0.03355,0.0596682 -0.03355,0.10693359 0,0.0509767 0.01133,0.0892091 0.03399,0.11469727 0.02266,0.0254884 0.05234,0.0382325 0.08906,0.0382324 0.01816,7e-8 0.03638,-0.003564 0.05464,-0.0106934 0.01826,-0.007129 0.03393,-0.0157714 0.04702,-0.0259277 l 0,-0.0544922 z"
         id="path11607"
          />
      <path
         d="m -17.051562,0.93884411 0,-0.42949221 0.08438,0 0.175781,0.28681642 0,-0.28681642 0.08057,0 0,0.42949221 -0.08701,0 -0.173144,-0.28007814 0,0.28007814 z"
         id="path11609"
          />
      <path
         d="m -16.619141,0.5093519 0.158497,0 c 0.03574,4.3e-7 0.06299,0.002735 0.08174,0.008203 0.0252,0.007422 0.04678,0.0206059 0.06475,0.0395508 0.01797,0.0189457 0.03164,0.042139 0.04102,0.0695801 0.0094,0.0274417 0.01406,0.0612796 0.01406,0.10151368 0,0.0353517 -0.0044,0.0658205 -0.01318,0.0914063 -0.01074,0.0312501 -0.02607,0.056543 -0.046,0.0758789 -0.01504,0.0146485 -0.03535,0.0260742 -0.06094,0.0342773 -0.01914,0.006055 -0.04473,0.009082 -0.07676,0.009082 l -0.163184,0 z m 0.08672,0.0726562 0,0.28447267 0.06475,0 c 0.02422,7e-8 0.0417,-0.001367 0.05244,-0.004102 0.01406,-0.003516 0.02573,-0.009473 0.03501,-0.0178711 0.0093,-0.008398 0.01685,-0.0222167 0.02271,-0.0414551 0.0059,-0.0192381 0.0088,-0.0454588 0.0088,-0.0786621 -10e-7,-0.0332029 -0.0029,-0.0586911 -0.0088,-0.0764648 -0.0059,-0.0177731 -0.01406,-0.0316403 -0.02461,-0.0416016 -0.01055,-0.009961 -0.02393,-0.0166989 -0.04014,-0.0202148 -0.01211,-0.002734 -0.03584,-0.004101 -0.07119,-0.004102 z"
         id="path11611"
          />
    </g>
  </g>
</svg>
