<?xml version="1.0" encoding="UTF-8" standalone="no"?>
<!-- Generator: Adobe Illustrator 13.0.0, SVG Export Plug-In . SVG Version: 6.00 Build 14948)  -->

<svg
   xmlns:dc="http://purl.org/dc/elements/1.1/"
   xmlns:cc="http://creativecommons.org/ns#"
   xmlns:rdf="http://www.w3.org/1999/02/22-rdf-syntax-ns#"
   xmlns:svg="http://www.w3.org/2000/svg"
   xmlns="http://www.w3.org/2000/svg"
   xmlns:sodipodi="http://sodipodi.sourceforge.net/DTD/sodipodi-0.dtd"
   xmlns:inkscape="http://www.inkscape.org/namespaces/inkscape"
   width="32.421875"
   xml:space="preserve"
   x="0px"
   version="1.2"
   y="0px"
   height="5.4296875"
   viewBox="0 0 25.937501 4.3437501"
   id="Layer_1"
   
   ><metadata
   id="metadata3893"><rdf:RDF><cc:Work
       rdf:about=""><dc:format>image/svg+xml</dc:format><dc:type
         rdf:resource="http://purl.org/dc/dcmitype/StillImage" /><dc:title></dc:title></cc:Work></rdf:RDF></metadata><defs
   id="defs3891">
  
  
  
  
  
  
  
  
  
 
  
  
  
  
  
 </defs><sodipodi:namedview
   pagecolor="#ffffff"
   bordercolor="#666666"
   borderopacity="1"
   objecttolerance="10"
   gridtolerance="10"
   guidetolerance="10"
   
   
   
   
   id="namedview3889"
   showgrid="false"
   fit-margin-top="0"
   fit-margin-left="0"
   fit-margin-right="0"
   fit-margin-bottom="0"
   
   
   
   
   
   
    />
 <desc
   id="desc3862">Fritzing footprint SVG</desc>
 
 <g
   id="g3909"
   transform="matrix(0,1,-1,0,28.09375,-23.75)"><circle
     cx="25.92"
     cy="25.92"
     id="connector4pad"
     r="1.584"
     
     
     
     
     style="fill:none;stroke:#ffbf00;stroke-width:1.15199995"
     d="m 27.504,25.92 c 0,0.874819 -0.709181,1.584 -1.584,1.584 -0.874819,0 -1.584,-0.709181 -1.584,-1.584 0,-0.874819 0.709181,-1.584 1.584,-1.584 0.874819,0 1.584,0.709181 1.584,1.584 z" /><circle
     cx="25.92"
     cy="18.719999"
     id="connector5pad"
     r="1.584"
     
     
     
     
     style="fill:none;stroke:#ffbf00;stroke-width:1.15199995"
     d="m 27.504,18.719999 c 0,0.874819 -0.709181,1.584 -1.584,1.584 -0.874819,0 -1.584,-0.709181 -1.584,-1.584 0,-0.874819 0.709181,-1.584 1.584,-1.584 0.874819,0 1.584,0.709181 1.584,1.584 z" /><circle
     cx="25.92"
     cy="11.52"
     id="connector6pad"
     r="1.584"
     
     
     
     
     style="fill:none;stroke:#ffbf00;stroke-width:1.15199995"
     d="m 27.504,11.52 c 0,0.874819 -0.709181,1.584 -1.584,1.584 -0.874819,0 -1.584,-0.709181 -1.584,-1.584 0,-0.874819 0.709181,-1.5839995 1.584,-1.5839995 0.874819,0 1.584,0.7091805 1.584,1.5839995 z" /><circle
     cx="25.92"
     cy="4.3200002"
     id="connector7pad"
     r="1.584"
     
     
     
     
     style="fill:none;stroke:#ffbf00;stroke-width:1.15199995"
     d="m 27.504,4.3200002 c 0,0.874819 -0.709181,1.584 -1.584,1.584 -0.874819,0 -1.584,-0.709181 -1.584,-1.584 0,-0.8748191 0.709181,-1.584 1.584,-1.584 0.874819,0 1.584,0.7091809 1.584,1.584 z" /></g>
 <g
   id="keepout"
   transform="translate(-2.45058,-33.629588)" />
 <g
   id="soldermask"
   transform="translate(-2.45058,-33.629588)" />
 <g
   id="outline"
   transform="translate(-2.45058,-33.629588)" />
</svg>