<?xml version="1.0" encoding="UTF-8" standalone="no"?>
<!-- Created with Inkscape (http://www.inkscape.org/) -->

<svg
   xmlns:dc="http://purl.org/dc/elements/1.1/"
   xmlns:cc="http://creativecommons.org/ns#"
   xmlns:rdf="http://www.w3.org/1999/02/22-rdf-syntax-ns#"
   xmlns:svg="http://www.w3.org/2000/svg"
   xmlns="http://www.w3.org/2000/svg"
   xmlns:sodipodi="http://sodipodi.sourceforge.net/DTD/sodipodi-0.dtd"
   xmlns:inkscape="http://www.inkscape.org/namespaces/inkscape"
   version="1.2"
   width="141.75089"
   height="92.61219"
   viewBox="1.75 0.067 141.75089 92.612189"
   id="Schematic"
   xml:space="preserve"
   inkscape:version="0.48.0 r9654"
   sodipodi:docname="hc-sr04_ultrasonic-sensor_PCB_schematic.svg"><sodipodi:namedview
   pagecolor="#ffffff"
   bordercolor="#666666"
   borderopacity="1"
   objecttolerance="10"
   gridtolerance="10"
   guidetolerance="10"
   inkscape:pageopacity="0"
   inkscape:pageshadow="2"
   inkscape:window-width="1512"
   inkscape:window-height="878"
   id="namedview4003"
   showgrid="false"
   inkscape:zoom="3.142135"
   inkscape:cx="70.875443"
   inkscape:cy="46.306095"
   inkscape:window-x="80"
   inkscape:window-y="-8"
   inkscape:window-maximized="1"
   inkscape:current-layer="Schematic" /><metadata
   id="metadata3298"><rdf:RDF><cc:Work
       rdf:about=""><dc:format>image/svg+xml</dc:format><dc:type
         rdf:resource="http://purl.org/dc/dcmitype/StillImage" /><dc:title></dc:title></cc:Work></rdf:RDF></metadata><defs
   id="defs3296" />
<g
   style="font-size:18px;font-family:DroidSans"
   id="text3080"><path
     d="m 35.858448,25.344299 0,-12.884765 1.705078,0 0,5.291015 6.697266,0 0,-5.291015 1.705078,0 0,12.884765 -1.705078,0 0,-6.073242 -6.697266,0 0,6.073242 z"
     style="font-size:18px;font-family:DroidSans"
     id="path4061" /><path
     d="m 58.006886,20.826721 1.705078,0.430664 c -0.357434,1.400394 -1.0005,2.468264 -1.9292,3.203614 -0.92872,0.735351 -2.063973,1.103027 -3.405761,1.103027 -1.388678,0 -2.518071,-0.282715 -3.388184,-0.848145 -0.87012,-0.565428 -1.532228,-1.384275 -1.986328,-2.456543 -0.454103,-1.072261 -0.681153,-2.223627 -0.681152,-3.454101 -1e-6,-1.341789 0.256346,-2.512198 0.769043,-3.511231 0.512693,-0.999012 1.242184,-1.7578 2.188476,-2.276367 0.946284,-0.518542 1.987787,-0.777819 3.124512,-0.777832 1.289054,1.3e-5 2.373037,0.328138 3.251953,0.984375 0.878895,0.656262 1.491199,1.579112 1.836914,2.768555 l -1.678711,0.395508 c -0.298838,-0.93749 -0.732431,-1.620107 -1.300781,-2.047852 -0.568368,-0.427723 -1.283211,-0.64159 -2.144531,-0.641601 -0.990241,1.1e-5 -1.817877,0.237316 -2.482911,0.711914 -0.665042,0.474619 -1.132327,1.111826 -1.401855,1.911621 -0.269534,0.799813 -0.4043,1.624519 -0.404297,2.474121 -3e-6,1.095708 0.159665,2.05225 0.479004,2.869629 0.319333,0.817385 0.815914,1.428225 1.489746,1.832519 0.673823,0.404299 1.403314,0.606447 2.188477,0.606446 0.95507,10e-7 1.763663,-0.27539 2.425781,-0.826172 0.662099,-0.550779 1.110341,-1.368161 1.344727,-2.452149 z"
     style="font-size:18px;font-family:DroidSans"
     id="path4063" /><path
     d="m 61.003956,21.477112 0,-1.59082 4.860351,0 0,1.59082 z"
     style="font-size:18px;font-family:DroidSans"
     id="path4065" /><path
     d="m 67.252979,21.204651 1.608399,-0.140625 c 0.07617,0.644535 0.253415,1.173343 0.531738,1.586426 0.278317,0.413088 0.710446,0.747072 1.296387,1.001953 0.585932,0.254884 1.245111,0.382325 1.977539,0.382324 0.650384,1e-6 1.224602,-0.09668 1.722656,-0.290039 0.498038,-0.193358 0.868644,-0.458494 1.111816,-0.79541 0.243155,-0.336912 0.364737,-0.704587 0.364747,-1.103028 -10e-6,-0.404293 -0.117197,-0.75732 -0.351563,-1.059082 -0.234384,-0.301753 -0.621102,-0.55517 -1.160156,-0.760253 -0.345711,-0.134761 -1.110359,-0.344233 -2.293946,-0.628418 -1.183598,-0.284174 -2.012698,-0.55224 -2.487304,-0.8042 -0.615237,-0.322258 -1.073733,-0.72216 -1.375489,-1.199707 -0.301759,-0.47753 -0.452638,-1.012198 -0.452636,-1.604004 -2e-6,-0.65038 0.184569,-1.25829 0.553711,-1.82373 0.369138,-0.565418 0.9082,-0.994617 1.617187,-1.287598 0.70898,-0.292956 1.497066,-0.43944 2.364258,-0.439453 0.955071,1.3e-5 1.797356,0.153822 2.526855,0.461426 0.729484,0.307629 1.290518,0.760266 1.683106,1.35791 0.392568,0.597667 0.603505,1.274424 0.632812,2.030274 l -1.634765,0.123046 c -0.0879,-0.814443 -0.385263,-1.429677 -0.89209,-1.845703 -0.506844,-0.416004 -1.255378,-0.624012 -2.245605,-0.624023 -1.031255,1.1e-5 -1.782719,0.188976 -2.254395,0.566894 -0.471683,0.377941 -0.707522,0.833507 -0.70752,1.3667 -2e-6,0.462899 0.16699,0.843758 0.500977,1.142578 0.328121,0.298836 1.185054,0.604988 2.570801,0.918457 1.385735,0.313484 2.336417,0.587409 2.852051,0.821777 0.74999,0.34571 1.3037,0.783697 1.661132,1.313965 0.357411,0.530278 0.536122,1.141118 0.536133,1.832519 -1.1e-5,0.68555 -0.1963,1.331546 -0.588867,1.937989 -0.392588,0.606446 -0.956552,1.078125 -1.691895,1.415039 -0.735359,0.336914 -1.562995,0.505371 -2.48291,0.505371 -1.16602,0 -2.14307,-0.169922 -2.931152,-0.509766 -0.788089,-0.339843 -1.406252,-0.851073 -1.854492,-1.533691 -0.448243,-0.682615 -0.684083,-1.454587 -0.70752,-2.315918 z"
     style="font-size:18px;font-family:DroidSans"
     id="path4067" /><path
     d="m 79.882862,25.344299 0,-12.884765 5.712891,0 c 1.148429,1.3e-5 2.021475,0.115735 2.61914,0.347168 0.597646,0.231457 1.075185,0.640148 1.432618,1.226074 0.35741,0.585948 0.536121,1.233408 0.536132,1.942383 -1.1e-5,0.914071 -0.29591,1.684578 -0.887695,2.311523 -0.591807,0.62696 -1.505869,1.025397 -2.742187,1.195313 0.451163,0.216802 0.793936,0.430669 1.02832,0.641601 0.498037,0.457036 0.969716,1.028325 1.415039,1.713867 l 2.241211,3.506836 -2.144531,0 -1.705079,-2.680664 c -0.498055,-0.773434 -0.908211,-1.36523 -1.230468,-1.77539 -0.322273,-0.410152 -0.610847,-0.697261 -0.865723,-0.861328 -0.254889,-0.164058 -0.514166,-0.278315 -0.777832,-0.342774 -0.193365,-0.04101 -0.509771,-0.06152 -0.949219,-0.06152 l -1.977539,0 0,5.721679 z m 1.705078,-7.198242 3.665039,0 c 0.77929,7e-6 1.388664,-0.08056 1.828125,-0.241699 0.439444,-0.161125 0.773428,-0.418938 1.001953,-0.773438 0.228506,-0.354483 0.342764,-0.739737 0.342774,-1.155761 -1e-5,-0.609365 -0.221201,-1.110341 -0.663574,-1.50293 -0.442392,-0.392567 -1.141122,-0.588856 -2.096192,-0.588867 l -4.078125,0 z"
     style="font-size:18px;font-family:DroidSans"
     id="path4069" /><path
     d="m 92.222706,18.989807 c -10e-7,-1.523429 0.156737,-2.749502 0.470215,-3.678223 0.313475,-0.9287 0.779295,-1.645007 1.397461,-2.148925 0.61816,-0.503894 1.395992,-0.755847 2.333496,-0.75586 0.6914,1.3e-5 1.297845,0.139173 1.819336,0.417481 0.521477,0.278332 0.95214,0.679699 1.291992,1.204101 0.339835,0.524425 0.606434,1.163096 0.799804,1.916016 0.19335,0.752938 0.29003,1.768074 0.29004,3.04541 -1e-5,1.511724 -0.15528,2.731937 -0.46582,3.660645 -0.310556,0.928712 -0.774911,1.646485 -1.393067,2.15332 -0.618171,0.506836 -1.398932,0.760254 -2.342285,0.760254 -1.242191,0 -2.217776,-0.445312 -2.926758,-1.335938 -0.849611,-1.072263 -1.274415,-2.818355 -1.274414,-5.238281 z m 1.625976,0 c -2e-6,2.115239 0.247556,3.522952 0.742676,4.223145 0.495114,0.700196 1.105953,1.050294 1.83252,1.050293 0.726557,10e-7 1.337396,-0.351561 1.832519,-1.054688 0.49511,-0.703122 0.742669,-2.109371 0.742676,-4.21875 -7e-6,-2.121085 -0.247566,-3.530263 -0.742676,-4.227539 -0.495123,-0.697254 -1.111822,-1.045887 -1.850097,-1.045898 -0.726567,1.1e-5 -1.306645,0.307628 -1.740235,0.922851 -0.544924,0.785166 -0.817385,2.23536 -0.817383,4.350586 z"
     style="font-size:18px;font-family:DroidSans"
     id="path4071" /><path
     d="m 107.31353,25.344299 0,-3.084961 -5.58985,0 0,-1.450195 5.87989,-8.349609 1.29199,0 0,8.349609 1.74023,0 0,1.450195 -1.74023,0 0,3.084961 z m 0,-4.535156 0,-5.80957 -4.03418,5.80957 z"
     style="font-size:18px;font-family:DroidSans"
     id="path4073" /></g>
<line
   style="fill:none;stroke:#000000;stroke-width:2.4000001;stroke-linecap:round;stroke-linejoin:round"
   id="line3102"
   y2="91.231178"
   x2="43.367912"
   y1="69.968178"
   x1="43.367912" /><text
   x="74.851997"
   y="-84.269661"
   transform="matrix(-4.371139e-8,1,-1,-4.371139e-8,0,0)"
   id="text3104"
   style="font-size:7px;font-family:DroidSans" />

<text
   x="76.732887"
   y="-82.68351"
   transform="matrix(-4.371139e-8,1,-1,-4.371139e-8,0,0)"
   id="text3106"
   style="font-size:7px;font-family:DroidSans" />

<text
   x="78.54348"
   y="-82.68351"
   transform="matrix(-4.371139e-8,1,-1,-4.371139e-8,0,0)"
   id="text3108"
   style="font-size:7px;font-family:DroidSans" />

<line
   style="fill:none;stroke:#000000;stroke-width:2.4000001;stroke-linecap:round;stroke-linejoin:round"
   id="line3102-0"
   y2="91.486946"
   x2="85.478752"
   y1="70.22393"
   x1="85.478752" /><line
   x1="106.3279"
   y1="70.22393"
   x2="106.3279"
   y2="91.486946"
   id="line3130-6"
   style="fill:none;stroke:#000000;stroke-width:2.4000001;stroke-linecap:round;stroke-linejoin:round" /><line
   style="fill:none;stroke:#000000;stroke-width:2.4000001;stroke-linecap:round;stroke-linejoin:round"
   id="line3130"
   y2="91.231178"
   x2="64.630913"
   y1="69.968178"
   x1="64.630913" /><rect
   width="140.34393"
   height="69.477791"
   x="2.4530833"
   y="0.76033694"
   id="rect3210"
   style="fill:none;stroke:#000000;stroke-width:1.38834977;stroke-linecap:round;stroke-linejoin:round" />
<flowRoot
   transform="translate(-40.218089,-146.95082)"
   id="flowRoot3610"
   xml:space="preserve"
   style="font-size:6px;font-style:normal;font-weight:bold;line-height:125%;letter-spacing:0px;word-spacing:0px;fill:#000000;fill-opacity:1;stroke:none;font-family:Sans;-inkscape-font-specification:Sans Bold"><flowRegion
     id="flowRegion3612"><rect
       width="15.861547"
       height="6.3446188"
       x="120.38914"
       y="222.24321"
       id="rect3614" /></flowRegion><flowPara
     id="flowPara3616" /></flowRoot><g
   style="font-size:18px;font-family:DroidSans"
   id="text3080-7"><path
     d="m 11.451222,43.585182 0,-12.884765 1.705079,0 0,12.884765 z"
     style="font-size:18px;font-family:DroidSans"
     id="path4038" /><path
     d="m 19.431691,43.585182 0,-11.364258 -4.245117,0 0,-1.520507 10.212891,0 0,1.520507 -4.262696,0 0,11.364258 z"
     style="font-size:18px;font-family:DroidSans"
     id="path4040" /><path
     d="m 27.192433,43.585182 0,-12.884765 9.316407,0 0,1.520507 -7.611329,0 0,3.946289 7.12793,0 0,1.511719 -7.12793,0 0,4.385742 7.910157,0 0,1.520508 z"
     style="font-size:18px;font-family:DroidSans"
     id="path4042" /><path
     d="m 37.765676,43.585182 4.948242,-12.884765 1.836914,0 5.273437,12.884765 -1.942383,0 -1.502929,-3.902344 -5.387696,0 -1.415039,3.902344 z m 3.717773,-5.291015 4.368164,0 -1.344727,-3.56836 c -0.410162,-1.083974 -0.714849,-1.974598 -0.914062,-2.671875 -0.164068,0.826183 -0.395513,1.646494 -0.694336,2.460938 z"
     style="font-size:18px;font-family:DroidSans"
     id="path4044" /><path
     d="m 51.204152,43.585182 0,-12.884765 4.438477,0 c 1.001946,1.2e-5 1.766594,0.06154 2.293945,0.18457 0.738272,0.169934 1.368155,0.477551 1.889648,0.922851 0.679677,0.57423 1.187978,1.308116 1.524903,2.201661 0.336902,0.893563 0.505359,1.914558 0.505371,3.062988 -1.2e-5,0.978521 -0.11427,1.845708 -0.342774,2.601562 -0.228527,0.755863 -0.521495,1.381351 -0.878906,1.876465 -0.357432,0.495119 -0.748545,0.884767 -1.17334,1.168946 -0.424814,0.28418 -0.937508,0.499512 -1.538086,0.645996 -0.600593,0.146484 -1.290534,0.219726 -2.069824,0.219726 z m 1.705078,-1.520508 2.750977,0 c 0.849602,2e-6 1.516106,-0.0791 1.999512,-0.237304 0.48339,-0.158202 0.868643,-0.380858 1.155761,-0.667969 0.404288,-0.404294 0.719229,-0.947751 0.944824,-1.630371 0.225576,-0.682613 0.338369,-1.510248 0.338379,-2.48291 -1e-5,-1.347649 -0.221201,-2.383292 -0.663574,-3.106934 -0.442392,-0.723622 -0.979989,-1.208485 -1.612793,-1.45459 -0.457039,-0.17577 -1.192389,-0.26366 -2.206055,-0.263672 l -2.707031,0 z"
     style="font-size:18px;font-family:DroidSans"
     id="path4046" /><path
     d="m 68.624074,39.445534 1.608398,-0.140625 c 0.07617,0.644535 0.253416,1.173343 0.531739,1.586426 0.278317,0.413088 0.710445,0.747072 1.296386,1.001953 0.585933,0.254884 1.245112,0.382325 1.977539,0.382324 0.650384,10e-7 1.224602,-0.09668 1.722657,-0.290039 0.498038,-0.193358 0.868643,-0.458494 1.111816,-0.79541 0.243155,-0.336912 0.364737,-0.704587 0.364746,-1.103028 -9e-6,-0.404293 -0.117197,-0.75732 -0.351562,-1.059082 -0.234384,-0.301753 -0.621102,-0.55517 -1.160157,-0.760254 -0.34571,-0.13476 -1.110358,-0.344232 -2.293945,-0.628418 -1.183598,-0.284173 -2.012699,-0.552239 -2.487305,-0.804199 -0.615236,-0.322258 -1.073732,-0.72216 -1.375488,-1.199707 -0.301759,-0.47753 -0.452638,-1.012198 -0.452637,-1.604004 -10e-7,-0.65038 0.184569,-1.25829 0.553711,-1.82373 0.369139,-0.565418 0.908201,-0.994617 1.617188,-1.287598 0.70898,-0.292956 1.497065,-0.43944 2.364258,-0.439453 0.955071,1.3e-5 1.797355,0.153822 2.526855,0.461426 0.729483,0.307629 1.290518,0.760266 1.683106,1.35791 0.392567,0.597667 0.603505,1.274424 0.632812,2.030273 l -1.634765,0.123047 c -0.0879,-0.814443 -0.385263,-1.429677 -0.89209,-1.845703 -0.506844,-0.416004 -1.255378,-0.624012 -2.245606,-0.624023 -1.031255,1.1e-5 -1.782719,0.188976 -2.254394,0.566894 -0.471683,0.377941 -0.707523,0.833507 -0.70752,1.366699 -3e-6,0.4629 0.166989,0.843759 0.500977,1.142579 0.328121,0.298836 1.185054,0.604988 2.570801,0.918457 1.385734,0.313483 2.336417,0.587409 2.85205,0.821777 0.749991,0.34571 1.303701,0.783697 1.661133,1.313965 0.357411,0.530278 0.536122,1.141117 0.536133,1.832519 -1.1e-5,0.68555 -0.1963,1.331546 -0.588867,1.937989 -0.392588,0.606446 -0.956553,1.078125 -1.691895,1.415039 -0.735359,0.336914 -1.562995,0.505371 -2.48291,0.505371 -1.166021,0 -2.143071,-0.169922 -2.931152,-0.509766 C 70.397997,42.9553 69.779834,42.44407 69.331594,41.761452 68.88335,41.078837 68.647511,40.306865 68.624074,39.445534 z"
     style="font-size:18px;font-family:DroidSans"
     id="path4048" /><path
     d="m 84.50591,43.585182 0,-11.364258 -4.245117,0 0,-1.520507 10.21289,0 0,1.520507 -4.262695,0 0,11.364258 z"
     style="font-size:18px;font-family:DroidSans"
     id="path4050" /><path
     d="m 100.68657,30.700417 1.70508,0 0,7.444336 c -1e-5,1.294926 -0.14649,2.323245 -0.43945,3.08496 -0.29298,0.761721 -0.82179,1.381349 -1.58643,1.858887 -0.764654,0.477539 -1.768071,0.716309 -3.010251,0.716309 -1.207036,0 -2.19434,-0.208008 -2.961914,-0.624024 -0.767581,-0.416014 -1.315432,-1.018065 -1.643554,-1.806152 -0.328127,-0.788083 -0.492189,-1.864742 -0.492188,-3.22998 l 0,-7.444336 1.705078,0 0,7.435546 c -3e-6,1.119145 0.104001,1.943852 0.312012,2.474122 0.208004,0.530275 0.565426,0.938966 1.072266,1.226074 0.50683,0.287111 1.126459,0.430665 1.858886,0.430664 1.253899,10e-7 2.147453,-0.284178 2.680664,-0.852539 0.533191,-0.568357 0.799791,-1.661129 0.799801,-3.278321 z"
     style="font-size:18px;font-family:DroidSans"
     id="path4052" /><path
     d="m 105.23931,43.585182 0,-12.884765 4.43847,0 c 1.00195,1.2e-5 1.7666,0.06154 2.29395,0.18457 0.73827,0.169934 1.36815,0.477551 1.88965,0.922851 0.67968,0.57423 1.18798,1.308116 1.5249,2.201661 0.3369,0.893563 0.50536,1.914558 0.50537,3.062988 -1e-5,0.978521 -0.11427,1.845708 -0.34277,2.601562 -0.22853,0.755863 -0.5215,1.381351 -0.87891,1.876465 -0.35743,0.495119 -0.74854,0.884767 -1.17334,1.168946 -0.42481,0.28418 -0.93751,0.499512 -1.53808,0.645996 -0.6006,0.146484 -1.29054,0.219726 -2.06983,0.219726 z m 1.70508,-1.520508 2.75097,0 c 0.84961,2e-6 1.51611,-0.0791 1.99951,-0.237304 0.48339,-0.158202 0.86865,-0.380858 1.15577,-0.667969 0.40428,-0.404294 0.71923,-0.947751 0.94482,-1.630371 0.22558,-0.682613 0.33837,-1.510248 0.33838,-2.48291 -1e-5,-1.347649 -0.2212,-2.383292 -0.66357,-3.106934 -0.4424,-0.723622 -0.97999,-1.208485 -1.6128,-1.45459 -0.45704,-0.17577 -1.19239,-0.26366 -2.20605,-0.263672 l -2.70703,0 z"
     style="font-size:18px;font-family:DroidSans"
     id="path4054" /><path
     d="m 118.53716,43.585182 0,-12.884765 1.70508,0 0,12.884765 z"
     style="font-size:18px;font-family:DroidSans"
     id="path4056" /><path
     d="m 122.72075,37.309792 c 0,-2.138664 0.57422,-3.812979 1.72266,-5.02295 1.14843,-1.209948 2.63085,-1.814928 4.44727,-1.814941 1.18944,1.3e-5 2.2617,0.284192 3.21679,0.852539 0.95507,0.568371 1.6831,1.360851 2.18408,2.377441 0.50097,1.016611 0.75146,2.169442 0.75147,3.458497 -1e-5,1.306645 -0.26369,2.475589 -0.79102,3.506835 -0.52735,1.031252 -1.27442,1.812013 -2.24121,2.342286 -0.9668,0.530273 -2.00977,0.79541 -3.1289,0.79541 -1.2129,0 -2.29688,-0.292969 -3.25196,-0.878906 -0.95508,-0.585937 -1.67871,-1.385741 -2.1709,-2.399415 -0.49218,-1.013667 -0.73828,-2.085932 -0.73828,-3.216796 z m 1.75782,0.02637 c -1e-5,1.552739 0.41747,2.775882 1.25244,3.669433 0.83495,0.893557 1.88232,1.340334 3.14209,1.340332 1.28319,2e-6 2.33934,-0.45117 3.16845,-1.353515 0.82909,-0.902341 1.24365,-2.182613 1.24366,-3.840821 -1e-5,-1.04882 -0.17726,-1.964347 -0.53174,-2.746582 -0.3545,-0.782216 -0.87306,-1.388661 -1.55567,-1.819336 -0.68262,-0.430652 -1.44873,-0.645984 -2.29834,-0.645996 -1.20703,1.2e-5 -2.24561,0.414562 -3.11572,1.243653 -0.87012,0.829111 -1.30518,2.213387 -1.30517,4.152832 z"
     style="font-size:18px;font-family:DroidSans"
     id="path4058" /></g>
<g
   transform="matrix(0,1,-1,0,0,0)"
   style="font-size:18px;font-family:DroidSans"
   id="text3080-3"><path
     d="m 74.655815,-47.907066 -1.664062,-4.294922 0.615234,0 1.116211,3.120117 c 0.08984,0.250001 0.165037,0.484376 0.225586,0.703125 0.0664,-0.234374 0.143552,-0.468749 0.231445,-0.703125 l 1.160156,-3.120117 0.580079,0 -1.681641,4.294922 z"
     style="font-size:6px"
     id="path4031" /><path
     d="m 80.500542,-49.412926 0.568359,0.143555 c -0.119145,0.466798 -0.3335,0.822754 -0.643066,1.067871 -0.309574,0.245117 -0.687991,0.367676 -1.135254,0.367676 -0.462893,0 -0.839357,-0.09424 -1.129395,-0.282715 -0.29004,-0.188476 -0.510743,-0.461425 -0.662109,-0.818848 -0.151368,-0.35742 -0.227051,-0.741209 -0.227051,-1.151367 0,-0.447263 0.08545,-0.837399 0.256348,-1.17041 0.170897,-0.333004 0.414061,-0.585934 0.729492,-0.758789 0.315428,-0.172847 0.662596,-0.259273 1.041504,-0.259277 0.429685,4e-6 0.791012,0.109379 1.083984,0.328125 0.292965,0.218753 0.497067,0.52637 0.612305,0.922851 l -0.55957,0.131836 c -0.09961,-0.312497 -0.244144,-0.540035 -0.433594,-0.682617 -0.189456,-0.142574 -0.427737,-0.213863 -0.714844,-0.213867 -0.33008,4e-6 -0.605959,0.0791 -0.827637,0.237304 -0.221681,0.158207 -0.377442,0.370609 -0.467285,0.637207 -0.08984,0.266605 -0.134766,0.541507 -0.134765,0.824707 -10e-7,0.365237 0.05322,0.684084 0.159668,0.956543 0.106444,0.272462 0.271971,0.476075 0.496582,0.61084 0.224607,0.134766 0.467771,0.202149 0.729492,0.202149 0.318357,0 0.587888,-0.0918 0.808593,-0.275391 0.2207,-0.183593 0.370114,-0.456053 0.448243,-0.817383 z"
     style="font-size:6px"
     id="path4033" /><path
     d="m 84.836479,-49.412926 0.56836,0.143555 c -0.119145,0.466798 -0.3335,0.822754 -0.643067,1.067871 -0.309573,0.245117 -0.687991,0.367676 -1.135254,0.367676 -0.462892,0 -0.839357,-0.09424 -1.129394,-0.282715 -0.29004,-0.188476 -0.510743,-0.461425 -0.66211,-0.818848 -0.151367,-0.35742 -0.227051,-0.741209 -0.22705,-1.151367 -10e-7,-0.447263 0.08545,-0.837399 0.256347,-1.17041 0.170898,-0.333004 0.414062,-0.585934 0.729492,-0.758789 0.315428,-0.172847 0.662596,-0.259273 1.041504,-0.259277 0.429685,4e-6 0.791013,0.109379 1.083985,0.328125 0.292965,0.218753 0.497066,0.52637 0.612304,0.922851 l -0.55957,0.131836 c -0.09961,-0.312497 -0.244144,-0.540035 -0.433594,-0.682617 -0.189456,-0.142574 -0.427737,-0.213863 -0.714843,-0.213867 -0.330081,4e-6 -0.605959,0.0791 -0.827637,0.237304 -0.221681,0.158207 -0.377443,0.370609 -0.467285,0.637207 -0.08984,0.266605 -0.134767,0.541507 -0.134766,0.824707 -10e-7,0.365237 0.05322,0.684084 0.159668,0.956543 0.106444,0.272462 0.271971,0.476075 0.496582,0.61084 0.224608,0.134766 0.467771,0.202149 0.729492,0.202149 0.318357,0 0.587888,-0.0918 0.808594,-0.275391 0.2207,-0.183593 0.370114,-0.456053 0.448242,-0.817383 z"
     style="font-size:6px"
     id="path4035" /></g>
<text
   x="71.438713"
   y="-113.39485"
   transform="matrix(0,1,-1,0,0,0)"
   id="text3080-3-0"
   style="font-size:18px;font-family:DroidSans" />

<g
   transform="matrix(0,1,-1,0,0,0)"
   style="font-size:18px;font-family:DroidSans"
   id="text3080-3-0-2"><path
     d="m 72.991753,-90.107552 0,-4.294921 3.105468,0 0,0.506835 -2.537109,0 0,1.31543 2.375977,0 0,0.503906 -2.375977,0 0,1.461914 2.636719,0 0,0.506836 z"
     style="font-size:6px"
     id="path4013" /><path
     d="m 78.950737,-91.2472 0.518555,0.06738 c -0.05664,0.357422 -0.201663,0.637207 -0.435059,0.839355 -0.233401,0.202149 -0.520021,0.303223 -0.859863,0.303223 -0.425783,0 -0.768067,-0.13916 -1.026856,-0.417481 -0.258789,-0.278319 -0.388183,-0.677245 -0.388183,-1.196777 0,-0.335936 0.05566,-0.629881 0.166992,-0.881836 0.111328,-0.25195 0.280761,-0.440915 0.508301,-0.566894 0.227538,-0.125974 0.475096,-0.188962 0.742675,-0.188965 0.337889,3e-6 0.614256,0.08545 0.829102,0.256347 0.214841,0.170902 0.352536,0.413577 0.413086,0.728028 l -0.512695,0.0791 c -0.04883,-0.208982 -0.135256,-0.366208 -0.259278,-0.471679 -0.124025,-0.105466 -0.273927,-0.158201 -0.449707,-0.158203 -0.265626,2e-6 -0.481446,0.09522 -0.647461,0.285644 -0.166016,0.190432 -0.249024,0.491701 -0.249023,0.903809 -10e-7,0.41797 0.08008,0.72168 0.240234,0.911132 0.160155,0.189454 0.36914,0.284181 0.626953,0.28418 0.20703,10e-7 0.379881,-0.06348 0.518555,-0.19043 0.13867,-0.126952 0.22656,-0.322264 0.263672,-0.585937 z"
     style="font-size:6px"
     id="path4015" /><path
     d="m 79.920464,-90.107552 0,-4.294921 0.527343,0 0,1.541015 c 0.246093,-0.285153 0.556639,-0.427731 0.931641,-0.427734 0.230467,3e-6 0.430662,0.04541 0.600586,0.13623 0.169919,0.09082 0.291501,0.216312 0.364746,0.376465 0.07324,0.160159 0.10986,0.392581 0.109863,0.697266 l 0,1.971679 -0.527344,0 0,-1.971679 c -2e-6,-0.26367 -0.05713,-0.455564 -0.171386,-0.575684 -0.11426,-0.120114 -0.275881,-0.180173 -0.484864,-0.180176 -0.156251,3e-6 -0.303224,0.04053 -0.440917,0.121582 -0.137697,0.08106 -0.235841,0.190921 -0.294434,0.32959 -0.05859,0.138674 -0.08789,0.33008 -0.08789,0.574219 l 0,1.702148 z"
     style="font-size:6px"
     id="path4017" /><path
     d="m 83.064018,-91.663216 c 0,-0.576169 0.160156,-1.002927 0.480469,-1.280273 0.267577,-0.230466 0.593749,-0.3457 0.978516,-0.345703 0.427732,3e-6 0.777341,0.14014 1.048828,0.42041 0.271481,0.280276 0.407223,0.667483 0.407226,1.161621 -3e-6,0.400392 -0.06006,0.715333 -0.180175,0.944824 -0.12012,0.229493 -0.294925,0.407715 -0.524415,0.534668 -0.229494,0.126953 -0.479982,0.19043 -0.751464,0.19043 -0.435548,0 -0.787599,-0.139648 -1.056153,-0.418945 -0.268555,-0.279297 -0.402832,-0.68164 -0.402832,-1.207032 z m 0.541992,0 c 0,0.398439 0.08691,0.696779 0.260743,0.89502 0.173827,0.198243 0.392576,0.297364 0.65625,0.297363 0.261716,10e-7 0.47949,-0.09961 0.65332,-0.298828 0.173826,-0.199218 0.26074,-0.502928 0.260742,-0.911133 -2e-6,-0.384763 -0.08741,-0.676267 -0.262207,-0.874511 -0.174807,-0.19824 -0.392092,-0.297361 -0.651855,-0.297364 -0.263674,3e-6 -0.482423,0.09864 -0.65625,0.295899 -0.173829,0.197268 -0.260743,0.495119 -0.260743,0.893554 z"
     style="font-size:6px"
     id="path4019" /></g>
<g
   transform="matrix(0,1,-1,0,0,0)"
   style="font-size:18px;font-family:DroidSans"
   id="text3080-3-0-2-0"><path
     d="m 75.145073,-112.16805 0,-0.50391 1.819336,-0.003 0,1.59375 c -0.279301,0.22266 -0.567387,0.39014 -0.864258,0.50244 -0.296878,0.11231 -0.601565,0.16846 -0.914062,0.16846 -0.421878,0 -0.805178,-0.0903 -1.149903,-0.271 -0.344727,-0.18066 -0.604981,-0.44189 -0.780762,-0.78369 -0.175781,-0.34179 -0.263672,-0.72363 -0.263671,-1.14551 -10e-7,-0.41796 0.0874,-0.8081 0.262207,-1.17041 0.174804,-0.3623 0.426268,-0.63134 0.754394,-0.80712 0.328124,-0.17578 0.706053,-0.26367 1.133789,-0.26368 0.310544,1e-5 0.591306,0.0503 0.842285,0.15088 0.250973,0.10059 0.447751,0.24073 0.590332,0.42041 0.142575,0.17969 0.250973,0.41407 0.325196,0.70313 l -0.512696,0.14062 c -0.06446,-0.21874 -0.144534,-0.39062 -0.240234,-0.51562 -0.09571,-0.125 -0.232425,-0.2251 -0.410156,-0.3003 -0.177737,-0.0752 -0.375003,-0.11278 -0.591797,-0.11279 -0.259768,1e-5 -0.484377,0.0396 -0.673828,0.11865 -0.189455,0.0791 -0.342287,0.18311 -0.458496,0.31202 -0.116212,0.12891 -0.206544,0.27051 -0.270996,0.4248 -0.109376,0.26563 -0.164064,0.55371 -0.164063,0.86426 -10e-7,0.38281 0.06592,0.70312 0.197754,0.96094 0.131835,0.25781 0.323729,0.44922 0.575684,0.57421 0.251951,0.12501 0.519529,0.1875 0.802734,0.1875 0.246091,0 0.486325,-0.0474 0.720703,-0.14209 0.234372,-0.0947 0.412106,-0.1958 0.533203,-0.30322 l 0,-0.7998 z"
     style="font-size:6px"
     id="path4006" /><path
     d="m 77.79351,-110.48348 0,-4.29492 0.583008,0 2.25586,3.37207 0,-3.37207 0.544921,0 0,4.29492 -0.583007,0 -2.25586,-3.375 0,3.375 z"
     style="font-size:6px"
     id="path4008" /><path
     d="m 82.135307,-110.48348 0,-4.29492 1.479492,0 c 0.333983,0 0.588865,0.0205 0.764649,0.0615 0.246091,0.0566 0.456051,0.15918 0.629883,0.30762 0.226559,0.19141 0.395992,0.43604 0.508301,0.73388 0.1123,0.29786 0.168453,0.63819 0.168457,1.021 -4e-6,0.32617 -0.03809,0.61524 -0.114258,0.86719 -0.07618,0.25195 -0.173832,0.46045 -0.292969,0.62548 -0.119144,0.16504 -0.249515,0.29493 -0.391113,0.38965 -0.141605,0.0947 -0.312503,0.16651 -0.512696,0.21534 -0.200197,0.0488 -0.430178,0.0732 -0.689941,0.0732 z m 0.56836,-0.50684 0.916992,0 c 0.283201,0 0.505369,-0.0264 0.666504,-0.0791 0.16113,-0.0527 0.289548,-0.12695 0.385254,-0.22266 0.134762,-0.13476 0.239743,-0.31591 0.314941,-0.54345 0.07519,-0.22754 0.11279,-0.50342 0.112793,-0.82764 -3e-6,-0.44922 -0.07373,-0.79443 -0.221191,-1.03564 -0.147464,-0.24121 -0.326663,-0.40283 -0.537598,-0.48487 -0.152346,-0.0586 -0.397463,-0.0879 -0.735352,-0.0879 l -0.902343,0 z"
     style="font-size:6px"
     id="path4010" /></g>
<g
   transform="matrix(0,1,-1,0,0,0)"
   style="font-size:18px;font-family:DroidSans"
   id="text3080-3-2"><path
     d="m 74.359917,-68.949684 0,-3.788086 -1.415039,0 0,-0.506836 3.404296,0 0,0.506836 -1.420898,0 0,3.788086 z"
     style="font-size:6px"
     id="path4022" /><path
     d="m 76.86187,-68.949684 0,-3.111328 0.474609,0 0,0.471679 c 0.121093,-0.2207 0.232909,-0.366208 0.335449,-0.436523 0.102538,-0.07031 0.215331,-0.105466 0.338379,-0.105469 0.177733,3e-6 0.358397,0.05664 0.541992,0.169922 l -0.18164,0.489258 c -0.128908,-0.07617 -0.257814,-0.114255 -0.386719,-0.114258 -0.115236,3e-6 -0.218751,0.03467 -0.310547,0.104004 -0.0918,0.06934 -0.157227,0.16553 -0.196289,0.288574 -0.05859,0.187502 -0.08789,0.39258 -0.08789,0.615235 l 0,1.628906 z"
     style="font-size:6px"
     id="path4024" /><path
     d="m 78.874565,-72.638161 0,-0.606445 0.527344,0 0,0.606445 z m 0,3.688477 0,-3.111328 0.527344,0 0,3.111328 z"
     style="font-size:6px"
     id="path4026" /><path
     d="m 80.110893,-68.691872 0.512696,0.07617 c 0.02148,0.158203 0.08105,0.273437 0.17871,0.345703 0.130859,0.09766 0.30957,0.146484 0.536133,0.146485 0.244139,-10e-7 0.432616,-0.04883 0.56543,-0.146485 0.13281,-0.09766 0.222654,-0.234375 0.269531,-0.410156 0.02734,-0.107422 0.04004,-0.333008 0.03809,-0.676758 -0.230471,0.271485 -0.51758,0.407227 -0.861328,0.407227 -0.427735,0 -0.75879,-0.154297 -0.993164,-0.462891 -0.234375,-0.308593 -0.351563,-0.67871 -0.351563,-1.110351 0,-0.296873 0.05371,-0.570799 0.161133,-0.821778 0.107422,-0.250974 0.263183,-0.444821 0.467285,-0.581543 0.204101,-0.136715 0.443847,-0.205075 0.719239,-0.205078 0.367185,3e-6 0.669919,0.148441 0.908203,0.445313 l 0,-0.375 0.486328,0 0,2.689453 c -3e-6,0.484375 -0.04932,0.827636 -0.147949,1.029785 -0.09864,0.202148 -0.254886,0.361815 -0.46875,0.479004 -0.21387,0.117186 -0.477053,0.17578 -0.789551,0.175781 -0.371095,-10e-7 -0.670899,-0.0835 -0.899414,-0.250488 -0.228516,-0.166993 -0.338868,-0.418458 -0.331055,-0.754395 z m 0.436524,-1.86914 c -10e-7,0.408204 0.08105,0.706055 0.243164,0.893554 0.162108,0.187501 0.365233,0.281251 0.609375,0.28125 0.242185,10e-7 0.44531,-0.09326 0.609375,-0.279785 0.16406,-0.186522 0.246091,-0.479002 0.246093,-0.877441 -2e-6,-0.380858 -0.08448,-0.667967 -0.253417,-0.861328 -0.168948,-0.193357 -0.372561,-0.290037 -0.61084,-0.290039 -0.234377,2e-6 -0.433595,0.09522 -0.597657,0.285644 -0.164063,0.190432 -0.246094,0.473147 -0.246093,0.848145 z"
     style="font-size:6px"
     id="path4028" /></g>
<text
   x="182.47804"
   y="95.436562"
   id="text3857"
   xml:space="preserve"
   style="font-size:6px;font-style:normal;font-weight:bold;line-height:125%;letter-spacing:0px;word-spacing:0px;fill:#000000;fill-opacity:1;stroke:none;font-family:Sans;-inkscape-font-specification:Sans Bold"
   sodipodi:linespacing="125%"><tspan
     x="182.47804"
     y="95.436562"
     id="tspan3859" /></text>

</svg>